<svg width="14" height="17" viewBox="0 0 14 17" fill="none" xmlns="http://www.w3.org/2000/svg">
<path fill-rule="evenodd" clip-rule="evenodd" d="M6.86437 4.13768C7.31193 4.0968 7.66195 4.03912 7.90956 3.96444C8.27085 3.84135 8.634 3.59526 8.99533 3.22826C9.41705 2.79925 9.72897 2.32936 9.92896 1.81855C10.1231 1.30775 10.2204 0.845264 10.2204 0.429898C10.2204 0.406067 10.2191 0.378442 10.2176 0.345528C10.2173 0.339533 10.217 0.333362 10.2167 0.327007C10.2131 0.286126 10.2113 0.251681 10.2113 0.224724C10.2039 0.204243 10.1948 0.167045 10.1856 0.112807C10.1765 0.058569 10.1671 0.0195095 10.1597 0C8.98067 0.278638 8.14431 0.782971 7.64921 1.51288C7.14483 2.24752 6.88452 3.12286 6.86437 4.13768ZM11.7187 8.84729C11.7187 9.69162 11.9498 10.4523 12.4117 11.1255C12.874 11.8003 13.4021 12.229 14 12.4137C13.7378 13.2649 13.3252 14.1157 12.7639 14.9669C11.8983 16.3019 11.0385 16.969 10.1802 16.969C9.8518 16.969 9.38225 16.8602 8.77336 16.6419C8.19767 16.4247 7.69157 16.3156 7.25671 16.3156C6.84785 16.3156 6.37102 16.4278 5.82829 16.6532C5.28708 16.8844 4.84342 17 4.50224 17C3.48448 17 2.47588 16.1181 1.47819 14.3544C0.493352 12.5759 0 10.8646 0 9.21432C0 7.66328 0.377808 6.38807 1.13518 5.3943C1.88709 4.41356 2.83712 3.92352 3.99061 3.92352C4.47298 3.92352 5.06539 4.02491 5.76941 4.22948C6.46641 4.43437 6.92839 4.53572 7.15586 4.53572C7.4567 4.53572 7.93731 4.42134 8.59371 4.18823C9.27579 3.95699 9.85542 3.84139 10.3305 3.84139C11.1281 3.84139 11.8415 4.06332 12.4724 4.50532C12.8209 4.75146 13.1691 5.09057 13.5176 5.52698C12.9877 5.98351 12.6063 6.38435 12.3715 6.73305C11.9352 7.37245 11.7187 8.07735 11.7187 8.84729Z" fill="#828282"/>
</svg>
