<svg width="17" height="17" viewBox="0 0 17 17" fill="none" xmlns="http://www.w3.org/2000/svg">
<path d="M17 17C17 17 17 15.8312 16.9026 15.2203C16.8229 14.7378 16.1544 14.1003 13.3122 13.0555C10.5143 12.0284 10.687 12.5286 10.687 10.6383C10.687 9.41198 11.3112 10.1247 11.7096 7.79609C11.8646 6.87969 11.9885 7.49063 12.325 6.02083C12.5021 5.25052 12.2055 5.19297 12.2409 4.82552C12.2763 4.45807 12.3117 4.13047 12.3781 3.37786C12.4578 2.44818 11.5945 0 8.5 0C5.40547 0 4.54219 2.44818 4.6263 3.38229C4.69271 4.13047 4.72813 4.4625 4.76354 4.82995C4.79896 5.1974 4.50234 5.25495 4.67943 6.02526C5.01589 7.49062 5.13984 6.87969 5.29479 7.80052C5.69323 10.1292 6.31745 9.41641 6.31745 10.6427C6.31745 12.5375 6.4901 12.0372 3.69219 13.0599C0.85 14.1003 0.177083 14.7422 0.101823 15.2247C0 15.8313 0 17 0 17H8.5H17Z" fill="#828282"/>
</svg>
