<svg viewBox="0 0 37 31" fill="none" xmlns="http://www.w3.org/2000/svg">
<path d="M18.5096 0C8.28113 0 0 6.69304 0 14.9455C0 17.9191 1.07973 20.6893 2.93069 23.014C3.01745 23.1011 3.21026 23.382 3.27775 23.4886C3.27775 23.4886 3.18134 23.3336 3.1717 23.3046C3.39343 23.6242 3.51876 23.9923 3.51876 24.3894C3.51876 24.525 1.79312 30.0073 1.79312 30.0073C1.66779 30.4335 1.99557 30.8693 2.52579 30.9759C2.60292 30.9952 2.68004 30.9952 2.75716 30.9952C2.88249 30.9952 2.99817 30.9759 3.11386 30.9468L3.26811 30.8887L8.14616 28.7578C8.23293 28.719 9.0138 28.4188 9.11021 28.38L9.16805 28.3606C9.16805 28.3606 9.15841 28.3606 9.11021 28.38C9.43798 28.2638 9.80432 28.2057 10.1899 28.2057C10.537 28.2057 10.8744 28.2541 11.1829 28.351C11.1925 28.351 11.2022 28.351 11.2022 28.3606C11.2504 28.38 11.2986 28.3897 11.3468 28.4091C13.5737 29.1743 16.0128 29.4067 18.5867 29.4067C28.8056 29.4067 37 23.198 37 14.9455C37.0192 6.69304 28.7285 0 18.5096 0Z" fill="#A3A3A3"/>
</svg>
