<svg width="17" height="16" viewBox="0 0 17 16" fill="none" xmlns="http://www.w3.org/2000/svg">
<path d="M13.2632 6.6066V15.2778H0.736842V3.72222H10.3204L11.0572 3H0V16H14V5.88438L13.2632 6.6066Z" fill="white"/>
<path d="M6.9083 9.64333L14.727 1.79208L14.2112 1.26958L6 9.51958V11H7.46971L15.69 2.75L15.1697 2.23208L7.35104 10.0879" fill="white"/>
<path d="M16.7809 0.747083L16.2104 0.174167C16.0871 0.0641667 15.9274 0 15.7539 0C15.5805 0 15.4207 0.06875 15.3021 0.174167L14.7498 0.733333L14.7544 0.737917L15.2656 1.25583L16.2241 2.21833L16.7809 1.65917C16.8905 1.54 16.9544 1.37958 16.9544 1.20542C16.9589 1.03125 16.8905 0.870833 16.7809 0.747083Z" fill="white"/>
</svg>
