<svg width="95" height="95" viewBox="0 0 95 95" fill="none" xmlns="http://www.w3.org/2000/svg">
    <path fill-rule="evenodd" clip-rule="evenodd" d="M70.5577 33.6937H61.6334L56.2921 28.3388C56.2921 28.3388 56.2656 28.3125 56.2524 28.3125L56.226 28.2862C55.4327 27.4987 54.3618 27 53.1454 27H42.0397C40.744 27 39.5938 27.5512 38.7873 28.4306V28.4438L33.5649 33.6937H24.4423C21.9832 33.6937 20 35.61 20 38.0513V64.5769C20 67.0181 21.9832 69 24.4423 69H70.5577C73.0036 69 75 67.0181 75 64.5769V38.0513C75 35.61 73.0036 33.6937 70.5577 33.6937ZM47.5 62.3719C40.7704 62.3719 35.2837 56.9119 35.2837 50.2181C35.2837 43.5112 40.7704 38.0644 47.5 38.0644C54.2428 38.0644 59.7163 43.5112 59.7163 50.2181C59.7163 56.9119 54.2428 62.3719 47.5 62.3719ZM67.8738 38.865C67.8738 39.8888 68.7067 40.7156 69.7248 40.7156C70.7428 40.7156 71.5757 39.8888 71.5757 38.865C71.5757 37.8412 70.7428 37.0144 69.7248 37.0144C68.7067 37.0144 67.8738 37.8412 67.8738 38.865Z" fill="currentColor"/>
    <path d="M48.5 41C43.2464 41 39 45.2479 39 50.5C39 55.7386 43.2464 60 48.5 60C53.74 60 58 55.7521 58 50.5C58 45.2479 53.74 41 48.5 41Z" fill="currentColor"/>
    <path fill-rule="evenodd" clip-rule="evenodd" d="M47.623 94.2461C73.3722 94.2461 94.2461 73.3722 94.2461 47.623C94.2461 21.8738 73.3722 1 47.623 1C21.8738 1 1 21.8738 1 47.623C1 73.3722 21.8738 94.2461 47.623 94.2461Z" stroke="currentColor"/>
</svg>
