<svg viewBox="0 0 32 13" fill="none" xmlns="http://www.w3.org/2000/svg">
<path d="M29.945 1.90244C28.6201 0.674797 26.8536 0 24.9705 0C23.0873 0 21.3208 0.674797 19.996 1.90244L16.9796 4.69106L17.9545 5.60163L20.9709 2.80488C22.0374 1.82114 23.454 1.27642 24.9621 1.27642C26.4703 1.27642 27.8869 1.82114 28.9534 2.80488C31.1532 4.84553 31.1532 8.1626 28.9534 10.1951C27.8869 11.1789 26.4703 11.7236 24.9621 11.7236C23.454 11.7236 22.0374 11.1789 20.9709 10.1951L12.0051 1.90244C10.6719 0.674797 8.90538 0 7.03056 0C5.14741 0 3.38092 0.674797 2.05605 1.90244C-0.68535 4.43902 -0.68535 8.56098 2.05605 11.0976C3.38092 12.3252 5.14741 13 7.03056 13C8.91371 13 10.6802 12.3252 12.0051 11.0976L15.0131 8.30894L14.0382 7.4065L11.0218 10.1951C9.95528 11.1789 8.53875 11.7236 7.03056 11.7236C5.52238 11.7236 4.10585 11.1789 3.03929 10.1951C0.839501 8.15447 0.839501 4.8374 3.03929 2.80488C4.10585 1.82114 5.52238 1.27642 7.03056 1.27642C8.53875 1.27642 9.95528 1.82114 11.0218 2.80488L19.9876 11.0976C21.3208 12.3252 23.0873 13 24.9621 13C26.8453 13 28.6118 12.3252 29.9367 11.0976C32.6864 8.56911 32.6864 4.43902 29.945 1.90244Z" fill="#A3A3A3"/>
</svg>
