<svg xmlns="http://www.w3.org/2000/svg" viewBox="0 0 58 58"><path  fill="#A3A3A3" d="M50.95 12.187l-1.362-1.36-9.504-9.506h-.002l-.77-.77A1.867 1.867 0 0 0 37.985 0H8.963C7.776 0 6.5.916 6.5 2.926V56c0 .837.84 1.652 1.836 1.91.05.013.1.032.152.042.156.03.315.048.475.048h40.074c.16 0 .32-.017.475-.048.052-.01.1-.03.152-.043.995-.258 1.836-1.073 1.836-1.91V13.978c0-.767-.093-1.334-.55-1.79zM39.5 3.565L47.935 12H39.5V3.565zM8.963 56c-.07 0-.135-.025-.198-.05a.46.46 0 0 1-.265-.413V41h41v14.537a.46.46 0 0 1-.265.414c-.063.025-.127.05-.198.05H8.963zM8.5 39V2.926c0-.217.033-.926.463-.926h28.595a1.54 1.54 0 0 0-.058.39v11.39a2.976 2.976 0 0 0-2-.78 1 1 0 0 0 0 2 1 1 0 0 1 1 1v4c0 1.2.542 2.266 1.382 3a3.975 3.975 0 0 0-1.382 3v4a1 1 0 0 1-1 1 1 1 0 0 0 0 2c1.654 0 3-1.346 3-3v-4c0-1.103.897-2 2-2a1 1 0 0 0 0-2c-1.103 0-2-.897-2-2v-4c0-.77-.3-1.468-.78-2h11.39c.134 0 .264-.025.39-.058V39h-41z"/><path fill="#A3A3A3" d="M16.354 51.43c-.02.446-.17.764-.458.95s-.672.28-1.155.28c-.19 0-.395-.022-.614-.068s-.43-.098-.63-.157-.384-.123-.553-.19-.3-.136-.39-.2l-.697 1.108c.183.137.405.26.67.37s.54.206.827.293.565.15.834.19.504.063.704.063c.402 0 .792-.04 1.17-.117.378-.077.713-.214 1.005-.41s.524-.456.697-.78.26-.722.26-1.195V43.72h-1.668v7.71zM25.083 49.064c-.314-.228-.654-.422-1.02-.58s-.7-.324-1.01-.493-.57-.363-.78-.587-.314-.518-.314-.882c0-.145.035-.298.108-.457s.173-.303.3-.43.274-.235.44-.322.336-.138.52-.156c.327-.027.596-.032.806-.014s.378.05.506.096.226.09.294.137.13.082.185.11a11.892 11.892 0 0 0 .246-.445c.062-.124.13-.256.204-.397s.137-.27.19-.39c-.264-.172-.61-.298-1.038-.375s-.853-.116-1.27-.116c-.41 0-.8.062-1.17.19s-.692.313-.97.554a2.65 2.65 0 0 0-.912 2.072c0 .492.104.902.314 1.23s.474.613.793.854.66.45 1.025.63.704.354 1.02.532.575.376.785.595.314.483.314.793c0 .51-.147.896-.443 1.155s-.723.39-1.278.39c-.184 0-.38-.02-.59-.055s-.418-.084-.628-.144-.412-.123-.608-.19-.357-.14-.485-.213l-.288 1.176c.155.136.34.252.554.348s.44.17.677.226c.237.055.472.094.704.116s.458.034.677.034c.51 0 .966-.077 1.367-.232s.74-.362 1.013-.622.485-.56.636-.902.225-.695.225-1.06c0-.538-.104-.978-.314-1.32s-.473-.626-.787-.854zM34.872 45.072c-.378-.43-.82-.754-1.326-.978s-1.06-.335-1.66-.335-1.156.11-1.662.334-.948.55-1.326.978-.675.964-.89 1.606-.32 1.388-.32 2.235.107 1.595.32 2.242.512 1.185.89 1.613.82.752 1.326.97 1.06.33 1.66.33 1.156-.11 1.662-.33.948-.54 1.326-.97.675-.966.89-1.613.32-1.395.32-2.242-.107-1.593-.32-2.235-.512-1.177-.89-1.606zm-.677 5.626c-.137.487-.326.882-.567 1.183s-.515.52-.82.65-.627.198-.964.198c-.328 0-.64-.07-.937-.212s-.56-.364-.793-.67-.415-.7-.547-1.183-.203-1.066-.212-1.75c.01-.702.082-1.294.22-1.777.136-.483.325-.877.566-1.183s.516-.52.82-.65.628-.19.965-.19c.328 0 .64.068.937.205s.56.36.793.67.415.704.547 1.183.203 1.06.212 1.744c-.01.702-.082 1.297-.22 1.784zM44.012 50.87l-3.95-6.946h-1.67V54h1.67v-6.945L44.01 54h1.668V43.924h-1.668zM20.5 20v-4a1 1 0 0 1 1-1 1 1 0 0 0 0-2c-1.654 0-3 1.346-3 3v4c0 1.103-.897 2-2 2a1 1 0 0 0 0 2c1.103 0 2 .897 2 2v4c0 1.654 1.346 3 3 3a1 1 0 0 0 0-2 1 1 0 0 1-1-1v-4c0-1.2-.542-2.266-1.382-3a3.975 3.975 0 0 0 1.382-3z"/><circle fill="#A3A3A3" cx="28.5" cy="19.5" r="1.5"/><path fill="#A3A3A3" d="M28.5 25a1 1 0 0 0-1 1v3a1 1 0 0 0 2 0v-3a1 1 0 0 0-1-1z"/></svg>
