<svg  viewBox="0 0 13 7" fill="none" xmlns="http://www.w3.org/2000/svg">
<path d="M10.0772 0H8.29412C8.29412 0 9.25 0.619792 9.45588 1.75H10.0588H10.0772C10.7243 1.75 11.2353 2.25677 11.2353 2.89844V4.0651C11.2353 4.70677 10.7243 5.25 10.0772 5.25H5.95956C5.3125 5.25 4.76471 4.70677 4.76471 4.0651V2.91667H3V4.0651C3 4.48438 3.09191 4.88542 3.25368 5.25C3.71691 6.27812 4.75735 7 5.95956 7H10.0772C11.7022 7 13 5.67656 13 4.0651V2.89844C13 1.28698 11.7022 0 10.0772 0Z" fill="#fff"/>
<path d="M8.78824 1.75C8.38787 0.718229 7.4614 0 6.36949 0H2.6636C1.2011 0 0 1.28698 0 2.89844V4.0651C0 5.67656 1.2011 7 2.6636 7H4.23529C4.23529 7 3.38162 6.38021 3.17316 5.25H2.6636C2.08125 5.25 1.58824 4.70677 1.58824 4.0651V2.89844C1.58824 2.25677 2.08125 1.75 2.6636 1.75H6.35294H6.36949C6.95184 1.75 7.41176 2.25677 7.41176 2.89844V4.0651C7.41176 4.0724 7.41176 4.07604 7.41176 4.08333H9C9 4.07604 9 4.0724 9 4.0651V2.89844C9 2.4901 8.9239 2.1 8.78824 1.75Z" fill="#fff"/>
</svg>
