<svg viewBox="0 0 27 23" id="navicon" fill="none" xmlns="http://www.w3.org/2000/svg">
<path d="M24.8484 9H2.15156C0.963281 9 0 10.1172 0 11.5C0 12.8828 0.963281 14 2.15156 14H24.8484C26.0367 14 27 12.8828 27 11.5C27 10.1172 26.0367 9 24.8484 9Z" fill="#A3A3A3"/>
<path d="M24.8484 0H2.15156C0.963281 0 0 1.11719 0 2.5C0 3.88281 0.963281 5 2.15156 5H24.8484C26.0367 5 27 3.88281 27 2.5C27 1.11719 26.0367 0 24.8484 0Z" fill="#A3A3A3"/>
<path d="M24.8484 18H2.15156C0.963281 18 0 19.1172 0 20.5C0 21.8828 0.963281 23 2.15156 23H24.8484C26.0367 23 27 21.8828 27 20.5C27 19.1172 26.0367 18 24.8484 18Z" fill="#A3A3A3"/>
</svg>
