<svg width="34" height="22" viewBox="0 0 34 22" fill="none" xmlns="http://www.w3.org/2000/svg">
<path d="M24.0042 16.908C23.1358 16.6133 21.7169 16.5227 21.0966 16.2885C20.6624 16.1223 19.9723 15.9485 19.7552 15.6841C19.5303 15.4272 19.5303 13.5611 19.5303 13.5611C19.5303 13.5611 20.0731 13.0701 20.2979 12.5185C20.5228 11.967 20.6701 10.4712 20.6701 10.4712C20.6701 10.4712 20.7166 10.4863 20.7864 10.4863C20.9492 10.4863 21.2439 10.3805 21.3835 9.68544C21.554 8.83173 21.8797 8.38599 21.7944 7.75893C21.7324 7.33585 21.5463 7.26786 21.4377 7.26786C21.3835 7.26786 21.3447 7.28297 21.3447 7.28297C21.3447 7.28297 21.7867 6.64835 21.7867 4.48764C21.7867 2.26648 20.0266 0.0755481 16.7777 0.0679932C13.5211 0.0755481 11.7688 2.26648 11.7688 4.48764C11.7688 6.6408 12.2108 7.28297 12.2108 7.28297C12.2108 7.28297 12.172 7.26786 12.1177 7.26786C12.0014 7.26786 11.8153 7.33585 11.761 7.75893C11.6758 8.38599 11.9937 8.83928 12.172 9.68544C12.3116 10.3805 12.6062 10.4863 12.769 10.4863C12.8388 10.4863 12.8853 10.4712 12.8853 10.4712C12.8853 10.4712 13.0327 11.9746 13.2575 12.5185C13.4824 13.0701 14.0251 13.5611 14.0251 13.5611C14.0251 13.5611 14.0251 15.4272 13.8003 15.6841C13.5754 15.9409 12.8931 16.1223 12.4589 16.2885C11.8386 16.5227 10.4196 16.6133 9.55122 16.908C8.6828 17.2026 6 18.4341 6 21.8338H27.5555C27.5555 18.4341 24.8804 17.2026 24.0042 16.908Z" fill="#CCCCCC"/>
<path d="M8.71449 16.6562C9.41413 16.3047 10.0982 16.3047 10.6269 16.2344C10.6269 16.2344 10.9223 15.75 9.95053 15.5781C9.95053 15.5781 8.6212 15.2422 8.46572 15.0547C8.31025 14.8672 8.40353 13.8281 8.40353 13.8281C8.40353 13.8281 10.2615 13.7656 11 13.1094C9.79505 11.2969 10.4403 9.17969 10.1915 7.20312C9.95053 5.23438 8.77668 4 6.53004 4C6.52226 4 6.53004 4 6.4523 4C4.27562 4 3.15618 5.23438 2.90742 7.21094C2.65866 9.1875 3.37385 11.5391 2.13781 13.125C2.82968 13.7422 4.53993 13.7734 4.73428 13.7734C4.74982 13.7734 4.74982 13.7734 4.74982 13.7734L4.7576 13.7656C4.7576 13.7656 4.83534 14.875 4.67986 15.0625C4.52438 15.25 4.06572 15.4219 3.75477 15.4922C3.07067 15.6406 2.3477 15.8828 1.74912 16.0938C1.15053 16.2969 0 17.5156 0 19H6.23463C6.40565 18.375 7.57951 17.2344 8.71449 16.6562Z" fill="#CCCCCC"/>
<path d="M27.7698 19H34C34 17.5156 32.8503 16.2969 32.2521 16.0859C31.654 15.875 30.9237 15.6328 30.2479 15.4844C29.9294 15.4141 29.4788 15.2422 29.3234 15.0547C29.1681 14.8672 29.2458 13.7578 29.2458 13.7578L29.2535 13.7656C29.2535 13.7656 29.2613 13.7656 29.2691 13.7656C29.4633 13.7656 31.1801 13.7422 31.8715 13.1172C30.6363 11.5312 31.3432 9.17969 31.0946 7.20312C30.846 5.23438 29.7274 4 27.5523 4C27.4746 4 27.4746 4 27.4746 4C25.2295 4 24.0487 5.23438 23.8079 7.21094C23.5593 9.1875 24.2041 11.3047 23 13.1172C23.738 13.7734 25.5946 13.8359 25.5946 13.8359C25.5946 13.8359 25.6879 14.875 25.5325 15.0625C25.3771 15.25 24.0487 15.5859 24.0487 15.5859C23.0777 15.7578 23.3729 16.2422 23.3729 16.2422C23.9011 16.3125 24.5925 16.3125 25.2839 16.6641C26.4258 17.2344 27.5989 18.375 27.7698 19Z" fill="#CCCCCC"/>
</svg>
