<svg viewBox="0 0 52 52" fill="none" xmlns="http://www.w3.org/2000/svg">
<path fill-rule="evenodd" clip-rule="evenodd" d="M0 26C0 11.6375 11.6375 0 26 0C40.3625 0 52 11.6375 52 26C52 40.3625 40.3625 52 26 52C11.6375 52 0 40.3625 0 26ZM2.1625 26C2.1625 39.15 12.8625 49.8375 26 49.8375C39.1375 49.8375 49.8375 39.1375 49.8375 26C49.8375 12.8625 39.1375 2.1625 26 2.1625C12.8625 2.1625 2.1625 12.85 2.1625 26Z" fill="#A3A3A3"/>
<path d="M27.0125 10H24.9125V24.9875H10V27.0875H24.9125V42H27.0125V27.0875H42V24.9875H27.0125V10Z" fill="#A3A3A3"/>
</svg>
