<svg viewBox="0 0 29 22" fill="none" xmlns="http://www.w3.org/2000/svg">
<path fill-rule="evenodd" clip-rule="evenodd" d="M24.6198 0.206239C26.9367 0.206239 28.8118 2.28008 28.8118 4.85806C28.9477 6.90326 29.01 8.94273 28.9987 10.9822C29.0044 13.0274 28.942 15.0669 28.8061 17.1121C28.8061 19.6901 26.931 21.7811 24.6141 21.7811C21.3115 21.9415 17.9409 22.0102 14.4967 21.9988C11.0581 22.0045 7.67622 21.9358 4.37928 21.7811C2.06802 21.7811 0.192958 19.6901 0.192958 17.1121C0.0570021 15.0669 -0.0053112 13.0274 0.000353644 10.9879C-0.0053112 8.94846 0.0570021 6.90899 0.198623 4.86952C0.198623 2.29154 2.07369 0.206239 4.38494 0.206239C7.52327 0.0572885 10.7296 0 13.9925 0H14.5024H15.0122C18.2808 0 21.4814 0.0572885 24.6198 0.206239ZM12 5V16L20 10.4972L12 5Z" fill="#A3A3A3"/>
</svg>
