<svg viewBox="0 0 30 33" id="stopwatch" fill="none" xmlns="http://www.w3.org/2000/svg">
<path fill-rule="evenodd" clip-rule="evenodd" d="M25.9219 7.69471L26.0625 7.82957C28.5938 10.5981 30 14.2075 30 17.9834C30 26.2651 23.2734 33 15.0078 33C6.72656 33 0 26.2572 0 17.9755C0 14.1995 1.42188 10.5663 3.98438 7.78197C3.9895 7.77503 3.99499 7.76696 4.0007 7.75858C4.0211 7.72862 4.04419 7.69471 4.0625 7.69471H2.67188L2.00781 8.31346L0.25 6.50481L3.4375 3.31587L5.22656 5.07692L4.53125 5.80673V7.21875C6.95312 4.79928 10.1797 3.2524 13.5938 3.01442H13.75V0H16.25V3.03029C19.6094 3.3238 22.6328 4.66442 25.0781 6.90938L25.4688 7.28221V5.80673L24.7812 5.07692L26.5938 3.30793L29.7812 6.50481L28.0234 8.31346L27.3594 7.69471H25.9219ZM15 22.8462L15.625 21.4341C16.7188 21.1565 17.5 20.1808 17.5 19.0147C17.5 17.8644 16.6797 16.8966 15.625 16.6031V6.34615H14.375V16.6111C13.3984 16.9522 12.5 17.92 12.5 19.0147C12.5 20.1808 13.2812 21.1565 14.375 21.4341L15 22.8462Z" fill="#fff"/>
</svg>
