<svg xmlns="http://www.w3.org/2000/svg" viewBox="0 0 490 490"><path fill="#A3A3A3" d="M279.82 490V357.803l50.46 51.448L380 360.735 245 223.082l-135 137.65 49.72 48.518 50.46-51.448V490h69.64zM159.48 387.628l-27.8-27.133L245 244.95l113.32 115.544-27.8 27.133-66.013-67.314v154.374h-39.014V320.314l-66.013 67.314zM57.885 111.096c-5.63 0-11.08-1.817-14.632-3.637l-2.684 10.908c3.29 1.817 9.868 3.55 16.538 3.55 16.015 0 23.544-8.313 23.544-18.093 0-8.224-4.852-13.593-15.148-17.398-7.537-2.86-10.826-4.505-10.826-8.225 0-3.032 2.774-5.63 8.486-5.63 5.712 0 9.87 1.645 12.21 2.774l2.938-10.65c-3.462-1.56-8.307-2.943-14.886-2.943-13.765 0-22.08 7.62-22.08 17.574 0 8.482 6.326 13.85 16.016 17.227 7.013 2.51 9.787 4.587 9.787 8.225 0 3.808-3.208 6.316-9.265 6.316z"/><path fill="#A3A3A3" d="M29.877 191.533h430.245c16.47 0 29.877-13.406 29.877-29.88V29.88C490 13.407 476.593 0 460.122 0H29.877C13.407 0 0 13.406 0 29.88v131.772c0 16.475 13.406 29.88 29.877 29.88zM15.313 29.88c0-8.033 6.535-14.568 14.565-14.568h430.245c8.03 0 14.565 6.535 14.565 14.57v131.77c0 8.034-6.535 14.57-14.565 14.57H29.877c-8.03 0-14.565-6.536-14.565-14.57V29.882z"/><path fill="#A3A3A3" d="M110.71 122c15.23 0 24.32-8.567 24.32-26.572V62.706h-13.158v33.586c0 10.303-3.806 15.152-10.73 15.152-6.758 0-10.564-5.11-10.564-15.152V62.706h-13.24v32.547c0 18.613 8.65 26.748 23.37 26.748zM181.544 116.378c3.634-2.946 6.056-7.1 6.056-12.382 0-7.53-4.935-12.55-11.597-14.37v-.172c6.58-2.423 9.608-7.27 9.608-12.468 0-5.28-2.945-9.26-7.012-11.425-4.24-2.51-9.174-3.29-17.227-3.29-6.58 0-13.592.52-17.054 1.212v57.306c2.946.434 7.79.867 14.288.867 11.598.002 18.694-1.905 22.94-5.277zm-24.157-44.15c1.13-.172 2.774-.348 5.63-.348 5.974 0 9.346 2.337 9.346 6.752 0 4.33-3.716 7.185-10.647 7.185h-4.33v-13.59zm0 23.025h4.508c6.572 0 11.858 2.34 11.858 8.224 0 6.146-5.286 8.396-11.253 8.396-2.25 0-3.813 0-5.114-.172V95.254zM209.523 111.096c-5.63 0-11.08-1.817-14.632-3.637l-2.683 10.908c3.29 1.817 9.87 3.55 16.54 3.55 16.007 0 23.543-8.313 23.543-18.093 0-8.224-4.852-13.593-15.148-17.398-7.537-2.86-10.826-4.505-10.826-8.225 0-3.032 2.774-5.63 8.486-5.63 5.712 0 9.87 1.645 12.21 2.774l2.938-10.65c-3.462-1.56-8.307-2.943-14.886-2.943-13.765 0-22.08 7.62-22.08 17.574 0 8.482 6.326 13.85 16.016 17.227 7.013 2.51 9.787 4.587 9.787 8.225 0 3.808-3.208 6.316-9.264 6.316zM266.937 121.92c7.103 0 12.553-1.302 14.976-2.513l-1.99-10.303c-2.593 1.04-7.012 1.907-10.99 1.907-11.776 0-18.7-7.356-18.7-19.042 0-12.987 8.136-19.305 18.61-19.305 4.674 0 8.397 1.04 11.082 2.164l2.684-10.475c-2.34-1.215-7.53-2.598-14.37-2.598-17.66 0-31.86 11.08-31.86 30.99 0 16.62 10.392 29.175 30.557 29.175zM301.495 98.113h3.985c5.368.086 7.88 2.075 9.436 9.346 1.735 7.184 3.118 11.947 4.067 13.592h13.503c-1.122-2.25-2.938-9.87-4.755-16.45-1.472-5.364-3.723-9.26-7.79-10.904v-.262c5.017-1.817 10.296-6.924 10.296-14.37 0-5.365-1.9-9.436-5.36-12.206-4.158-3.29-10.222-4.587-18.872-4.587-7.013 0-13.34.52-17.578 1.21v57.57h13.07v-22.94zm0-25.627c.957-.172 2.774-.43 5.974-.43 6.063.086 9.696 2.77 9.696 8.135 0 5.108-3.895 8.397-10.475 8.397h-5.195v-16.1zM337.615 62.706h13.25v58.345h-13.25zM397.355 116.378c3.634-2.946 6.056-7.1 6.056-12.382 0-7.53-4.934-12.55-11.595-14.37v-.172c6.58-2.423 9.608-7.27 9.608-12.468 0-5.28-2.946-9.26-7.013-11.425-4.24-2.51-9.174-3.29-17.227-3.29-6.58 0-13.593.52-17.055 1.212v57.306c2.946.434 7.79.867 14.288.867 11.597.002 18.692-1.905 22.94-5.277zm-24.158-44.15c1.13-.172 2.774-.348 5.63-.348 5.974 0 9.346 2.337 9.346 6.752 0 4.33-3.716 7.185-10.647 7.185h-4.33v-13.59zm0 23.025h4.51c6.57 0 11.857 2.34 11.857 8.224 0 6.146-5.286 8.396-11.253 8.396-2.25 0-3.812 0-5.113-.172V95.254zM447.494 110.23h-23.978V96.377h21.466V85.645h-21.466v-12.12h22.767v-10.82h-36.016v58.346h37.227z"/></svg>
