<svg viewBox="0 0 23 14" fill="none" xmlns="http://www.w3.org/2000/svg">
<path d="M18.7953 5.89167C18.7953 5.83333 18.8056 5.775 18.8056 5.71667C18.8056 2.55694 16.1462 0 12.8656 0C10.4989 0 8.46585 1.33194 7.51094 3.25694C7.09509 3.05764 6.6279 2.94097 6.13504 2.94097C4.62054 2.94097 3.35759 4.00556 3.11629 5.39583C1.29888 5.98889 0 7.63681 0 9.57639C0 12.0167 2.05871 14 4.59487 14H9.85714V10.1111H7.38259L11.5 6.04236L15.6174 10.1062H13.1429V13.9951H18.8056C21.1261 13.9951 23 12.1722 23 9.94097C23 7.70972 21.1158 5.89653 18.7953 5.89167Z" fill="#A3A3A3"/>
</svg>
