<svg width="16" height="16" viewBox="0 0 16 16" fill="none" xmlns="http://www.w3.org/2000/svg">
<path d="M15.9965 3.47584C15.9965 4.57035 15.9931 5.66486 16 6.75628C16 6.90427 15.9585 6.96593 15.7926 6.94744C15.765 6.94435 15.7339 6.94744 15.7062 6.94744C13.5772 6.95668 11.4482 6.96593 9.31567 6.97827C8.62097 6.98135 7.92281 6.98752 7.22811 6.99985C7.05876 7.00293 7 6.95977 7 6.79945C7.00691 4.97116 7.00691 3.14287 7 1.31458C7 1.15734 7.03802 1.09259 7.23157 1.07409C8.00922 0.99085 8.77995 0.89219 9.55415 0.796613C10.6256 0.660956 11.6935 0.519133 12.7615 0.383475C13.7811 0.253984 14.8007 0.133743 15.8203 0.0042518C15.9827 -0.01733 16 0.0443323 16 0.164574C15.9965 1.26525 15.9965 2.37209 15.9965 3.47584Z" fill="#828282"/>
<path fill-rule="evenodd" clip-rule="evenodd" d="M6.99976 6.76V3.98105V1.24947C6.99976 1.23146 6.99936 1.2138 6.99896 1.19626C6.99817 1.16153 6.99739 1.12725 6.99976 1.09158C7.00332 1.02211 6.96771 1 6.89295 1C6.7945 1 6.69776 1.0166 6.60154 1.0331C6.55857 1.04048 6.51569 1.04783 6.47282 1.05368C6.18296 1.08973 5.89278 1.12607 5.60237 1.16243C4.92609 1.24711 4.24859 1.33194 3.57109 1.41368C3.3765 1.4367 3.18133 1.45867 2.98605 1.48066C2.69896 1.51299 2.41163 1.54534 2.12556 1.58105C1.87491 1.61263 1.62426 1.64522 1.37361 1.67781C0.997628 1.72669 0.621648 1.77558 0.245668 1.82105C0.235114 1.82243 0.225013 1.82373 0.215347 1.82497C0.00325676 1.85224 0 1.85266 0 2.06105V6.7821C0 6.88723 0 6.94165 0.0271918 6.96981C0.0571757 7.00087 0.120222 7 0.252789 7C1.99 6.98737 3.72722 6.9779 5.46443 6.96842L5.46522 6.96842C5.68241 6.96684 5.8987 6.96605 6.115 6.96526C6.33129 6.96447 6.54759 6.96368 6.76477 6.9621C6.88816 6.9621 6.94676 6.9621 6.97459 6.93284C6.99976 6.90638 6.99976 6.85598 6.99976 6.76ZM6.88894 3.28452C6.88916 3.51051 6.88938 3.73641 6.88938 3.9621C6.88938 4.84631 6.88938 5.72737 6.88582 6.61158C6.88582 6.86421 6.87158 6.87368 6.59743 6.87368C6.44006 6.87421 6.28259 6.87482 6.12506 6.87543C5.33454 6.8785 4.54236 6.88158 3.75267 6.87368C3.19638 6.8675 2.63925 6.87949 2.08209 6.89148C1.5017 6.90398 0.921285 6.91647 0.341799 6.90842C0.110373 6.90526 0.0854497 6.88947 0.0854497 6.68421V2.14C0.0854497 1.94421 0.113933 1.90947 0.327557 1.91895C0.461333 1.92403 0.585877 1.89454 0.709998 1.86516C0.817118 1.83979 0.923924 1.8145 1.03608 1.81158C1.24504 1.80471 1.45214 1.7763 1.65872 1.74795C1.73724 1.73717 1.81569 1.72641 1.89414 1.71684C1.98965 1.70537 2.08545 1.69562 2.18122 1.68588C2.42813 1.66076 2.67482 1.63566 2.91597 1.58105C2.93218 1.57756 2.9487 1.57377 2.9655 1.56993C3.08531 1.54251 3.2192 1.51187 3.35034 1.55895C3.39663 1.57474 3.44291 1.56211 3.4892 1.54632C3.67884 1.47679 3.87926 1.45824 4.07898 1.43974C4.16047 1.4322 4.24185 1.42467 4.32233 1.41368C4.62615 1.37158 4.93314 1.33509 5.24013 1.2986C5.39362 1.28035 5.54711 1.26211 5.70021 1.24316C5.76571 1.23524 5.83094 1.22658 5.89604 1.21793C6.06449 1.19557 6.23212 1.17332 6.40161 1.16421C6.4568 1.16105 6.50575 1.14526 6.55471 1.12947C6.60366 1.11368 6.65262 1.09789 6.7078 1.09474C6.83954 1.08842 6.89294 1.11684 6.89294 1.24947C6.8876 1.92693 6.88827 2.60617 6.88894 3.28452Z" fill="#828282"/>
<path fill-rule="evenodd" clip-rule="evenodd" d="M6.99576 12.7324C6.99599 12.4997 6.99621 12.267 6.99621 12.0343C6.99621 11.7984 6.99599 11.5626 6.99576 11.327C6.9951 10.6205 6.99443 9.9148 6.99976 9.20738C7.00332 9.08118 6.96775 9.03701 6.81481 9.03701C5.39684 9.0328 3.97886 9.02579 2.56089 9.01878C1.8519 9.01527 1.14292 9.01177 0.433928 9.00861C0.411488 9.00861 0.389047 9.00913 0.366691 9.00965C0.311091 9.01093 0.256009 9.01221 0.202737 9.00546C0.0391247 8.98022 0 9.04332 0 9.17898C0.00355679 10.7849 0.00355679 12.3877 0 13.9905C0 14.1198 0.0497951 14.1608 0.192067 14.1734C0.590427 14.2113 0.988788 14.2618 1.38715 14.3123C1.77509 14.3607 2.1621 14.4117 2.54865 14.4626C2.91699 14.5111 3.28491 14.5595 3.65282 14.6057C3.94923 14.6443 4.24563 14.6779 4.54203 14.7116C4.77915 14.7386 5.01626 14.7655 5.25338 14.795L5.25345 14.795C5.76916 14.8581 6.28487 14.9212 6.79703 14.9938C6.96775 15.019 6.99976 14.9685 6.99976 14.8265C6.99443 14.1285 6.9951 13.4304 6.99576 12.7324ZM6.88479 11.2801C6.88537 11.5325 6.88595 11.785 6.88595 12.0375C6.88595 12.4847 6.88506 12.9327 6.88417 13.3815C6.88328 13.8319 6.88239 14.2831 6.88239 14.735C6.88239 14.8865 6.81481 14.9243 6.67254 14.896C6.23876 14.8115 5.79798 14.7673 5.36061 14.7235L5.34941 14.7224C5.0044 14.6909 4.65584 14.653 4.31794 14.6025C4.20494 14.5864 4.09146 14.5736 3.97785 14.5609C3.78037 14.5386 3.5825 14.5164 3.38606 14.4763C3.24456 14.4455 3.09549 14.432 2.94576 14.4186C2.86592 14.4114 2.78589 14.4042 2.70672 14.3943C2.58286 14.3791 2.45901 14.3649 2.33523 14.3508C2.02181 14.3149 1.7089 14.2791 1.39782 14.2271C1.08114 14.1721 0.758462 14.1463 0.435294 14.1205C0.406387 14.1181 0.377476 14.1158 0.348565 14.1135C0.120931 14.0946 0.085363 14.0756 0.085363 13.8706V9.31465C0.085363 9.11904 0.110261 9.0938 0.327225 9.0938C0.483593 9.0938 0.639605 9.0919 0.795373 9.09001C1.1321 9.08593 1.4677 9.08185 1.80329 9.09695C2.53817 9.12901 3.27305 9.12588 4.00793 9.12275C4.57484 9.12033 5.14174 9.11792 5.70865 9.13166C5.88589 9.13545 6.06057 9.13241 6.235 9.12938C6.35109 9.12736 6.46707 9.12535 6.58362 9.12535C6.77569 9.12535 6.89306 9.16005 6.8895 9.39037C6.88188 10.0191 6.88333 10.6494 6.88479 11.2801Z" fill="#828282"/>
<path fill-rule="evenodd" clip-rule="evenodd" d="M16 15.7793V12.5308V9.21795C16 9.10763 15.9758 9.05553 15.8309 9.05553C15.1936 9.0528 14.5564 9.05068 13.9191 9.04857C11.6887 9.04115 9.45821 9.03373 7.22776 9.00036C7.0069 8.9973 7 9.00956 7 9.1965V11.7401V14.7281C7 14.8262 7.00345 14.8844 7.15184 14.9089C7.42483 14.9535 7.70015 14.9835 7.97509 15.0135C8.17283 15.0351 8.37038 15.0567 8.56672 15.0836C9.41219 15.197 10.2611 15.3043 11.1066 15.4085C11.6502 15.4777 12.1951 15.5435 12.7405 15.6094C13.0884 15.6514 13.4365 15.6934 13.7845 15.7364C14.2074 15.7883 14.6289 15.8429 15.0508 15.8975C15.2761 15.9266 15.5015 15.9558 15.7274 15.9846C16 16.0183 16 16.0152 16 15.7793ZM15.9413 9.98717V12.5001V15.6781C15.9413 15.8743 15.8551 15.9233 15.6549 15.8467C15.6465 15.8435 15.6377 15.8388 15.6288 15.8341C15.612 15.8252 15.5948 15.816 15.579 15.816C15.3342 15.8275 15.0952 15.7928 14.8548 15.7579C14.7732 15.7461 14.6915 15.7342 14.6093 15.7241C14.4898 15.71 14.3704 15.6981 14.2509 15.6862C14.0598 15.6672 13.8687 15.6482 13.6775 15.6199C13.424 15.583 13.1691 15.5548 12.9145 15.5265C12.7672 15.5102 12.6199 15.4939 12.4732 15.4759C12.3562 15.461 12.2396 15.4429 12.123 15.4247C11.9026 15.3904 11.6821 15.3561 11.4586 15.3441C11.2913 15.3357 11.1269 15.31 10.9625 15.2843C10.7673 15.2537 10.5719 15.2232 10.3715 15.2215C10.1589 15.2195 9.94774 15.184 9.73612 15.1484C9.62147 15.1292 9.50669 15.1099 9.39149 15.0959C9.35752 15.0921 9.32355 15.0883 9.28958 15.0845C9.04743 15.0572 8.80495 15.03 8.55982 15.0192C8.41974 15.0133 8.28369 14.9895 8.14816 14.9658C8.00323 14.9404 7.8589 14.9152 7.71089 14.912C7.619 14.9103 7.52818 14.8992 7.43724 14.888C7.36424 14.8791 7.29117 14.8701 7.21741 14.866C7.11388 14.8599 7.06902 14.8292 7.07247 14.7373C7.07477 14.6556 7.074 14.5739 7.07324 14.4921C7.07285 14.4513 7.07247 14.4104 7.07247 14.3695V9.28231C7.07247 9.18324 7.07247 9.13127 7.09842 9.104C7.12706 9.07391 7.18731 9.07391 7.31403 9.07391C7.759 9.07391 8.20397 9.07209 8.64885 9.07026C9.72898 9.06583 10.8086 9.0614 11.8865 9.08311C12.5332 9.09631 13.1798 9.09707 13.8265 9.09783C14.3807 9.09849 14.935 9.09914 15.4893 9.10763C15.5562 9.10932 15.6221 9.11573 15.6881 9.12215C15.7412 9.12731 15.7943 9.13247 15.8482 9.13521C15.9441 9.1407 15.9429 9.19304 15.9416 9.24799C15.9415 9.25431 15.9413 9.26066 15.9413 9.26698V9.98717Z" fill="#828282"/>
<path d="M5.99372 3.95876C5.99372 4.87092 5.99372 5.78307 5.99372 6.69196C5.99372 6.95258 5.98431 6.96235 5.73954 6.96235C4.90481 6.96235 4.06695 6.97212 3.23222 6.96235C2.22803 6.94932 1.22699 7.01122 0.225941 6.99819C0.0219665 6.99493 0 6.97538 0 6.76689C0 5.2032 0 3.64277 0 2.07908C0 1.8771 0.0251046 1.84127 0.213389 1.85104C0.429916 1.86407 0.624477 1.74679 0.837866 1.74028C1.09205 1.73376 1.3431 1.67838 1.59414 1.64255C1.89226 1.6002 2.19665 1.58391 2.49477 1.50247C2.61088 1.46989 2.74582 1.42428 2.87761 1.47966C2.91841 1.49595 2.9592 1.48292 3 1.46663C3.23536 1.36564 3.48954 1.3689 3.73431 1.32981C4.13912 1.26465 4.54393 1.20927 4.94874 1.15389C5.15272 1.12457 5.35983 1.08548 5.56695 1.07245C5.66423 1.06594 5.74268 1.0073 5.83682 1.00078C5.95607 0.994266 6 1.02684 6 1.16041C5.99372 2.09211 5.99372 3.02381 5.99372 3.95876Z" fill="#828282"/>
<path d="M5.99052 12.0466C5.99052 12.9738 5.98739 13.9011 5.99366 14.8251C5.99366 14.9813 5.93407 15.0203 5.80861 14.991C5.42283 14.9032 5.03078 14.8544 4.64187 14.8121C4.33764 14.7763 4.03027 14.7372 3.73231 14.6884C3.45945 14.6429 3.18344 14.6234 2.91058 14.5583C2.71926 14.5128 2.51226 14.503 2.31153 14.4737C1.92575 14.4184 1.53997 14.3761 1.15733 14.3013C0.8531 14.2395 0.542597 14.2134 0.232093 14.1841C0.0282276 14.1646 0 14.1484 0 13.9336C0 12.3687 0 10.8005 0 9.23553C0 9.03056 0.0219548 9.00779 0.213275 9.00779C0.646098 9.00779 1.08206 8.98827 1.51488 9.01104C2.6628 9.0696 3.81072 9.01104 4.95865 9.04683C5.21583 9.05334 5.47302 9.04358 5.7302 9.04032C5.89957 9.04032 6.00307 9.07611 5.99993 9.31362C5.98425 10.2246 5.99052 11.1356 5.99052 12.0466Z" fill="#828282"/>
<path d="M15.9994 12.5175C15.9994 13.6099 15.9994 14.6991 15.9994 15.7915C15.9994 15.9929 15.9119 16.0433 15.7088 15.9646C15.6808 15.9552 15.6562 15.9331 15.6317 15.9331C15.2991 15.9489 14.9734 15.8796 14.6477 15.8387C14.3326 15.8009 14.0174 15.7789 13.7023 15.7317C13.2961 15.6687 12.8864 15.6341 12.4802 15.5837C12.137 15.5396 11.7938 15.4672 11.4507 15.4483C11.0795 15.4263 10.7258 15.3256 10.3476 15.3224C10.015 15.3193 9.68582 15.2343 9.35315 15.1933C9.07302 15.1587 8.78938 15.1272 8.50924 15.1146C8.2186 15.1021 7.94196 15.0108 7.64782 15.0045C7.47974 15.0013 7.31515 14.9667 7.14707 14.9572C7.04552 14.9509 7 14.9163 7 14.825C7.0035 14.6991 7 14.5732 7 14.4473C7 12.7064 7 10.9656 7 9.22156C7 9.0075 7 9.0075 7.24512 9.0075C8.79288 9.0075 10.3371 8.98546 11.8849 9.01694C13.1035 9.04213 14.3221 9.02324 15.5407 9.04213C15.6632 9.04527 15.7823 9.06416 15.9049 9.07046C16.0134 9.07361 15.9994 9.14286 15.9994 9.20582C15.9994 9.45137 15.9994 9.70006 15.9994 9.94561C15.9994 10.7987 15.9994 11.6581 15.9994 12.5175Z" fill="#828282"/>
</svg>
