<svg viewBox="0 0 16 16" fill="none" xmlns="http://www.w3.org/2000/svg"><mask id="ea" maskUnits="userSpaceOnUse" x="2" y="2" width="12" height="12"><path fill-rule="evenodd" clip-rule="evenodd" d="M8 2.667c-2.934 0-5.333 2.4-5.333 5.333 0 2.933 2.4 5.333 5.333 5.333 2.933 0 5.333-2.4 5.333-5.333 0-2.933-2.4-5.333-5.333-5.333zm-.667 8V7.333h1.333v3.334H7.333zm0-4.667c0 .4.267.667.667.667S8.667 6.4 8.667 6 8.4 5.333 8 5.333 7.333 5.6 7.333 6z" fill="#fff"/></mask><path opacity=".5" fill="#0C0033" d="M0 0h16v16H0z" mask="url(#ea)"/></svg>