<svg xmlns="http://www.w3.org/2000/svg" viewBox="0 0 1423.8533 546.32001"><g transform="matrix(.13333 0 0 -.13333 0 546.32)" fill="#fff"><path d="M3386.06 1813.82c-40.26-39.91-86.92-59.32-142.63-59.32-4 0-8.04.1-12.13.31-57.53 1.84-104.6 22.81-144.23 64.13-39.63 41.3-58.58 88.02-57.93 142.88.63 55.3 21.25 101.3 63.01 140.63 41.35 38.94 89.43 57.87 146.97 57.87l2.63-.02c57.37 0 104.53-18.99 144.41-58.07 39.87-39.07 59.88-84.76 61.19-139.65 1.93-57.36-18.12-105.96-61.29-148.76m-146.25-152.58c-3.66 0-7.36.06-11.07.18 4.59-.15 9.12-.15 13.64-.12-.86 0-1.7-.06-2.57-.06m-4.74 592.66c3.65 0 7.32-.06 10.99-.18-4.57.15-9.09.15-13.59.12.88 0 1.72.06 2.6.06m312.51 204.36h-100.24v-258.44c-56.21 46.19-123.47 71-200.53 73.89-4.02.13-7.9.19-11.74.19-86.64 0-162.72-30.44-226.14-90.48-66.37-62.85-100.03-139.35-100.03-227.33 0-84.55 31.3-158.42 93.03-219.58 61.54-61 137.69-92.99 226.34-95.09 3.78-.11 7.67-.18 11.54-.18 86.75 0 163.6 30.39 228.44 90.31 68.09 62.94 101.51 138.91 99.33 225.78v500.93M3712.3 1655.15h-80.063v564.313h80.063zm0 631.62h-80.063v131.672h80.063zM4035.71 2155.1c-37.24-1.33-67.42-10.89-90.6-28.71-23.18-17.81-38.98-33.33-47.41-46.52-13.35-21.79-20.01-50.83-20.01-87.12v-337.6h-84.27v564.31h74.79v-80.2c16.86 30.35 41.78 53.79 74.79 70.29 30.19 15.18 61.11 22.1 92.71 20.79M4556.13 1980.86c-11.24 52.79-37.58 95.54-79.01 128.2-41.45 32.68-90.96 49.34-148.54 50-57.6.65-107.98-15.51-151.17-48.51-43.19-33.01-70.42-76.23-81.65-129.69zm79.01-69.3h-539.38c6.32-56.77 31.95-103.62 76.9-140.58 44.94-36.97 97.98-55.11 159.08-54.45 94.81 1.31 162.58 42.57 203.33 123.75h85.32c-22.48-60.73-60.41-108.9-113.77-144.54-53.38-35.64-112.73-53.8-178.04-54.45-82.18-1.33-154.86 26.88-218.08 84.65-63.2 57.74-95.51 126.54-96.91 206.41-2.11 84.48 29.66 157.24 95.34 218.3 65.66 61.04 143.09 89.25 232.29 84.64 80.07-4.63 149.6-35.64 208.59-93.06 56.89-56.77 85.33-120.13 85.33-190.08M5329.38 1821.47l-8.43-16.84c-63.21-109.56-160.84-163.68-292.87-162.34-87.09.64-162.24 29.35-225.44 86.11-63.21 56.76-95.17 125.74-95.87 206.92-1.39 81.82 29.66 151.97 93.23 210.38 63.56 58.41 139.59 88.26 228.08 89.59 63.21.64 122.21-14.86 176.98-46.52 51.98-30.38 89.19-68.66 111.67-114.86l11.6-24.73h-90.79c-45.04 73.22-114 110.84-206.87 112.86-61.92 1.32-117.53-19.86-166.78-63.5-51.38-45-77.06-98.25-77.06-159.75 0-61.52 23.93-114.27 71.78-158.27 47.84-43.98 104.5-65.64 169.95-64.98 93.57 1.32 163.58 36.62 210.04 105.93M5590.63 1643.27c-146.08 0-219.12 58.41-219.12 175.22v598.96h80.06v-197.01h139.06v-70.29h-139.06v-318.78c0-83.82 46.35-125.73 139.06-125.73M6436.86 2180.96c-54.16 49.8-119.03 75.04-192.77 75.04-4.89 0-9.8-.1-14.77-.33-60.17-2.77-112.39-22.95-155.85-60.11v250.63h-120.23v-804.95h120.23v355.35c0 42.71 15.07 76.95 46.05 104.64 31.71 28.35 69.75 42.42 116.3 43.03 1.94.05 3.6.07 5.25.07 43.31 0 80.26-14.68 112.99-44.87 33.64-31.06 49.99-66.66 49.99-108.83v-349.39h120.24v341.45c0 78.25-29.41 144.96-87.43 198.27M7143.73 1980.86c-11.24 52.79-37.58 95.54-79.01 128.2-41.45 32.68-90.96 49.34-148.54 50-57.6.65-107.98-15.51-151.17-48.51-43.19-33.01-70.42-76.23-81.65-129.69zm79.01-69.3h-539.38c6.32-56.77 31.95-103.62 76.9-140.58 44.94-36.97 97.98-55.11 159.08-54.45 94.81 1.31 162.58 42.57 203.33 123.75h85.32c-22.48-60.73-60.41-108.9-113.77-144.54-53.38-35.64-112.73-53.8-178.04-54.45-82.18-1.33-154.86 26.88-218.08 84.65-63.2 57.74-95.51 126.54-96.91 206.41-2.11 84.48 29.66 157.24 95.34 218.3 65.66 61.04 143.09 89.25 232.29 84.64 80.07-4.63 149.6-35.64 208.59-93.06 56.89-56.77 85.33-120.13 85.33-190.08M7530.34 2155.1c-37.24-1.33-67.42-10.89-90.6-28.71-23.18-17.81-38.98-33.33-47.41-46.52-13.35-21.79-20.01-50.83-20.01-87.12v-337.6h-84.27v564.31h74.79v-80.2c16.86 30.35 41.78 53.79 74.79 70.29 30.19 15.18 61.11 22.1 92.71 20.79M8046.54 1943.27c-2.11 59.65-24.82 110.69-68.12 153.13-43.29 42.43-95.55 63.65-156.78 63.65-64.06.65-118.64-20.4-163.68-63.16-45.06-42.75-67.94-94.29-68.64-154.63-1.41-59.65 19.37-111.86 62.31-156.62 42.93-44.74 95.37-68.12 157.33-70.1 66.17-3.31 122.65 18.24 169.46 64.64 46.82 46.41 69.52 100.77 68.12 163.09m80.06-5.97c0-81.18-31.44-151.32-94.29-210.38-62.86-59.07-137.47-87.28-223.86-84.64-83.59 1.98-154.33 31.68-212.27 89.1-57.95 57.42-86.92 125.73-86.92 204.93 0 82.5 31.24 153.28 93.76 212.35 62.5 59.06 136.96 87.28 223.34 84.65 83.57-2.65 154.5-32.84 212.81-90.59 58.28-57.76 87.43-126.22 87.43-205.42M8750.25 1980.86c-11.24 52.79-37.58 95.54-79.01 128.2-41.45 32.68-90.96 49.34-148.54 50-57.6.65-107.98-15.51-151.17-48.51-43.19-33.01-70.42-76.23-81.65-129.69zm79.01-69.3h-539.38c6.32-56.77 31.95-103.62 76.9-140.58 44.94-36.97 97.98-55.11 159.08-54.45 94.81 1.31 162.58 42.57 203.33 123.75h85.32c-22.48-60.73-60.41-108.9-113.77-144.54-53.38-35.64-112.73-53.8-178.04-54.45-82.18-1.33-154.86 26.88-218.08 84.65-63.2 57.74-95.51 126.54-96.91 206.41-2.11 84.48 29.66 157.24 95.34 218.3 65.66 61.04 143.09 89.25 232.29 84.64 80.07-4.63 149.6-35.64 208.59-93.06 56.89-56.77 85.33-120.13 85.33-190.08M9249.59 1823.45c4.22-50.83-14.75-94.88-56.88-132.16-42.14-37.29-90.61-54.3-145.39-50.98-50.56 3.29-92.89 22.43-126.94 57.42-34.07 34.97-51.09 76.55-51.09 124.73h83.22v-18.98c0-19.32 11.23-39.31 33.71-59.94 22.47-20.65 46.36-30.65 71.64-29.97 33.71.64 60.39 10.25 80.06 28.8 17.55 17.19 26.69 39.72 27.39 67.54.7 48.32-28.49 81.42-87.57 99.3l-70.48 21.06c-73.72 21.77-112.35 68.98-115.85 141.61-2.1 43.57 13.56 80.89 47.03 111.92 33.44 31.03 73.79 47.53 121 49.51 40.85 1.99 79.06-10.39 114.64-37.13 35.58-26.72 54.77-59.89 57.6-99.49v-16.82h-84.28v13.01c0 20.05-8.95 36.25-26.86 48.63-17.91 12.36-38.45 18.54-61.62 18.54-22.49-.66-41.99-8.29-58.48-22.89-16.5-14.6-25.12-32.84-25.81-54.75-2.81-40.47 22.82-69.34 76.9-86.58l69.53-21.9c80.07-25.73 122.91-75.9 128.53-150.48M1733.27 1764.32c-98.92 0-179.38 80.48-179.38 179.39 0 98.92 80.46 179.39 179.38 179.39s179.38-80.47 179.38-179.39c0-98.91-80.46-179.39-179.38-179.39m483.96 490.07c-56.94 0-112.5-15.86-160.72-45.88l-18.67-11.63V2445.73h-121.11v-257.86l-18.83 12.11c-49.07 31.61-106 48.31-164.63 48.31-167.94 0-304.57-136.65-304.57-304.58 0-167.93 136.63-304.57 304.57-304.57s304.57 136.64 304.57 304.57v20.83l.59-.15c7.44 92.13 84.79 164.81 178.8 164.81 98.89 0 179.34-80.43 179.38-179.31l3.93-310.75h121.27v310.68c0 167.95-136.64 304.57-304.58 304.57"/></g></svg>