<svg viewBox="0 0 22 22" fill="none" xmlns="http://www.w3.org/2000/svg" ><mask id="aa" maskUnits="userSpaceOnUse" x="3" y="3" width="16" height="16"><path fill-rule="evenodd" clip-rule="evenodd" d="M16.413 7.164a1.833 1.833 0 0 0 1.127 2.72c.555.14.793.502.793.915v.4c0 .413-.236.776-.793.915a1.833 1.833 0 0 0-1.127 2.72c.294.493.205.916-.086 1.208l-.285.284c-.292.292-.715.38-1.206.086a1.833 1.833 0 0 0-2.72 1.127c-.14.557-.503.793-.915.793h-.4c-.413 0-.777-.236-.915-.793a1.833 1.833 0 0 0-2.72-1.127c-.49.294-.915.206-1.208-.086l-.284-.284c-.292-.292-.38-.715-.086-1.207a1.833 1.833 0 0 0-1.128-2.72c-.557-.14-.794-.503-.794-.915v-.4c0-.414.24-.776.793-.915a1.833 1.833 0 0 0 1.127-2.72c-.295-.493-.206-.917.085-1.208l.285-.285c.29-.29.715-.38 1.207-.085a1.833 1.833 0 0 0 2.72-1.127c.14-.557.503-.793.915-.793h.4c.413 0 .776.236.915.793a1.833 1.833 0 0 0 2.72 1.127c.493-.294.916-.205 1.207.086l.285.284c.292.292.38.715.086 1.207zM8.25 11a2.75 2.75 0 1 0 5.5 0 2.75 2.75 0 0 0-5.5 0z" fill="#fff"/></mask><path fill="#fff" d="M0 0h22v22H0z" mask="url(#aa)"/></svg>