<svg width="50" height="50" viewBox="0 0 24 24" xmlns="http://www.w3.org/2000/svg" id="icon"><title>directory_plus [#1662]</title><path d="M9.07 18H6v-3a1 1 0 0 0-2 0v3H1a1 1 0 0 0 0 2h3v3a1 1 0 0 0 2 0v-3h3.07a1 1 0 0 0 0-2M24 6v12c0 1.104-.91 2-2.015 2h-9a1 1 0 0 1 0-2h8c.553 0 1.015-.447 1.015-1V6.577A.59.59 0 0 0 21.41 6h-6.815a2 2 0 0 1-1.797-1.12l-1.135-2.32a1 1 0 0 0-.898-.56h-3.78A.988.988 0 0 0 6 3v8a1 1 0 0 1-2 0V2.426A2.42 2.42 0 0 1 6.41 0h4.763a2 2 0 0 1 1.79 1.105l.894 1.79A1.998 1.998 0 0 0 15.647 4h6.338C23.09 4 24 4.897 24 6" fill="#000" fill-rule="evenodd"/></svg>