<?xml version="1.0" standalone="no"?>
<!DOCTYPE svg PUBLIC "-//W3C//DTD SVG 1.1//EN" "http://www.w3.org/Graphics/SVG/1.1/DTD/svg11.dtd" >
<svg>
<metadata>
Created by FontForge 20110222 at Tue May  3 14:34:59 2011
 By www-data
(c)1988 KaiBuskirk.com
</metadata>
<defs>
<font id="AbeatbyKai" horiz-adv-x="561" >
  <font-face 
    font-family="abeatbyKai"
    font-weight="400"
    font-stretch="normal"
    units-per-em="1000"
    panose-1="0 0 4 0 0 0 0 0 0 0"
    ascent="800"
    descent="-200"
    x-height="589"
    cap-height="789"
    bbox="-17 -200.26 4624 800.039"
    underline-thickness="20"
    underline-position="-123"
    unicode-range="U+0020-2122"
  />
    <missing-glyph />
    <glyph glyph-name="space" unicode=" " horiz-adv-x="500" 
 />
    <glyph glyph-name="exclam" unicode="!" horiz-adv-x="162" 
d="M78 790v-603h-77v603h77zM78 114v-95h-77v95h77z" />
    <glyph glyph-name="quotedbl" unicode="&#x22;" horiz-adv-x="256" 
d="M169 790v-236h-57v236h57zM55 790v-236h-55v236h55z" />
    <glyph glyph-name="numbersign" unicode="#" horiz-adv-x="646" 
d="M353 249l-73 -240h-45l71 240h-98l-72 -240h-45l71 240h-162l19 65h161l38 132h-162l18 67h164l83 285h46l-82 -285h96l84 285h45l-80 -285h163l-19 -67h-163l-40 -131h164l-19 -66h-163zM224 315h100l40 131h-99z" />
    <glyph glyph-name="dollar" unicode="$" horiz-adv-x="487" 
d="M244 38v-29h-67v29c-31 3 -59 12 -84 27c-59 35 -93 99 -93 158v16h73v-13c0 -35 14 -64 43 -89c29 -24 60 -37 94 -38c37 -1 69 11 96 38s41 60 41 97c1 65 -38 110 -115 137l-76 26c-85 28 -134 97 -134 181c1 45 15 84 43 117c29 34 66 55 111 63v40h68v-40
c41 -5 77 -21 107 -49c17 -15 31 -34 43 -58c11 -21 16 -38 16 -51l1 -34h-71l-5 33c-8 57 -62 92 -125 92c-64 0 -112 -54 -113 -118c-2 -57 29 -96 92 -115l97 -30c42 -13 76 -40 102 -81c24 -38 35 -77 34 -117c-3 -55 -20 -100 -51 -135s-68 -53 -113 -56z" />
    <glyph glyph-name="percent" unicode="%" horiz-adv-x="818" 
d="M311 490c-35 -35 -77 -54 -126 -55c-51 -1 -94 17 -131 54s-55 82 -54 133c1 49 19 91 56 126s80 53 129 52s90 -19 125 -54s52 -78 53 -127c0 -50 -17 -93 -52 -129zM591 798l-343 -791h-76l345 791h74zM458 62c-36 37 -54 81 -53 132c1 50 20 92 56 127s79 52 128 51
s90 -19 125 -54s53 -77 53 -126c1 -49 -17 -92 -52 -128s-77 -54 -126 -55c-51 -1 -94 16 -131 53zM108 695c-21 -20 -32 -44 -33 -73c-1 -31 10 -57 31 -80c21 -22 47 -33 77 -32c30 0 55 11 76 34s30 49 29 79c-3 56 -48 101 -105 101c-29 1 -54 -9 -75 -29zM588 82
c30 1 55 12 76 34c21 23 30 49 29 79c-3 57 -48 102 -105 103c-29 1 -54 -9 -75 -30c-21 -20 -32 -45 -33 -74c-1 -30 9 -56 30 -79c22 -23 48 -34 78 -33z" />
    <glyph glyph-name="ampersand" unicode="&#x26;" horiz-adv-x="754" 
d="M699 63l-51 -52l-176 169l-22 -39c-50 -88 -121 -132 -212 -132c-63 0 -119 23 -167 69c-47 47 -71 102 -71 166c0 22 3 44 10 66c5 18 20 41 43 68c26 30 53 54 82 73l36 22l-23 26c-39 43 -58 88 -56 134c2 47 21 87 56 119c36 32 78 48 126 47c49 -1 93 -19 130 -54
c38 -35 56 -76 54 -125c-3 -69 -41 -122 -114 -158l-36 -17l144 -141l111 216h85l-139 -270zM254 502l69 35c39 20 58 51 57 92c0 27 -11 50 -32 69s-45 28 -74 28c-28 0 -53 -10 -75 -30c-21 -20 -32 -42 -33 -67c0 -29 17 -60 50 -92zM378 170l37 66l-184 176l-57 -29
c-63 -33 -95 -81 -95 -146c0 -42 15 -78 44 -109c30 -30 67 -45 111 -45c64 0 112 29 144 87z" />
    <glyph glyph-name="quotesingle" unicode="'" horiz-adv-x="153" 
d="M65 790v-235h-66v235h66z" />
    <glyph glyph-name="parenleft" unicode="(" horiz-adv-x="268" 
d="M204 -14v-80l-38 13c-12 4 -30 15 -54 33c-28 22 -50 44 -65 66c-31 46 -47 97 -47 153v357c0 64 19 121 57 170c32 41 69 70 111 87l36 15v-79l-19 -9c-31 -15 -57 -39 -78 -70c-22 -34 -33 -75 -33 -124v-348c0 -30 11 -66 32 -107c13 -26 34 -46 62 -60z" />
    <glyph glyph-name="parenright" unicode=")" horiz-adv-x="284" 
d="M38 -81l-38 -13v80l36 17c29 14 50 34 63 60c21 41 31 76 31 107v348c0 49 -11 90 -34 124c-20 30 -46 53 -78 70l-18 9v79l37 -15c42 -17 79 -46 110 -87c38 -50 57 -107 57 -170v-357c0 -56 -16 -107 -47 -153c-15 -22 -37 -44 -65 -66c-23 -18 -41 -29 -54 -33z" />
    <glyph glyph-name="asterisk" unicode="*" horiz-adv-x="381" 
d="M204 613l55 -92l-48 -29l-56 93l-53 -93l-50 29l56 90h-108v56h107l-55 93l49 30l54 -95l56 95l48 -30l-55 -93h104v-54h-104z" />
    <glyph glyph-name="plus" unicode="+" 
d="M296 363v-227h-77v227h-219v79h219v223h77v-223h218v-79h-218z" />
    <glyph glyph-name="comma" unicode="," horiz-adv-x="250" 
d="M173 148l-86 -202h-78l87 202h77z" />
    <glyph glyph-name="hyphen" unicode="&#xad;" horiz-adv-x="4606" 
d="M4582 305h40c-29 -73 -97 -112 -204 -118c-61 0 -114 22 -158 66s-66 97 -66 159c0 61 21 114 64 157s96 65 157 65c55 0 103 -16 144 -49c43 -34 65 -77 65 -128c0 -45 -14 -86 -43 -122c-29 -35 -63 -53 -102 -53c-8 1 -15 3 -21 6c-14 9 -22 23 -24 44l-18 -21
c-15 -17 -35 -26 -58 -26c-48 -1 -82 44 -82 95c0 37 16 70 47 98c29 25 58 38 88 38c25 0 40 -9 47 -28l6 -17l12 38l53 1l-48 -174c-7 -25 -3 -37 10 -37c25 0 48 16 69 49s32 68 32 104c0 47 -18 84 -55 112c-33 25 -74 38 -122 38c-52 0 -96 -18 -133 -55
s-55 -81 -55 -133c0 -53 19 -99 56 -138s83 -58 136 -58c26 1 49 5 70 11c49 15 80 40 93 76zM3957 664v-131h-77v131h77zM3957 263v-131h-77v131h77zM3666 142v-133h-77v133h77zM2752 692c0 -56 -46 -101 -101 -101c-56 0 -102 43 -102 98s45 101 100 101
c56 0 103 -43 103 -98zM3357 148l-86 -202h-78l88 202h76zM2505 790v-109h-20v86l-22 -86h-21l-21 86v-86h-21v109h33l20 -74l20 74h32zM2354 771v-90h-22v90h-32v19h87v-19h-33zM2870 120c0 -27 -10 -51 -30 -71s-44 -30 -71 -30c-55 0 -102 43 -102 98s45 101 101 101
c55 0 102 -43 102 -98zM2242 692c0 -56 -45 -101 -101 -101c-55 0 -101 43 -101 98s44 101 100 101c55 0 102 -43 102 -98zM2475 128v-109h-21v85l-21 -85h-22l-21 85v-85h-20v109h32l20 -75l20 75h33zM2324 109v-90h-22v90h-33v19h87v-19h-32zM2152 49
c-19 -20 -43 -30 -71 -30c-55 0 -101 43 -101 98s45 101 100 101c56 0 102 -43 102 -98c0 -27 -10 -51 -30 -71zM1365 401l-56 -58c-48 -49 -74 -101 -77 -156h-84l4 33c3 31 13 60 28 87c14 25 46 62 95 111l36 36c28 28 42 64 43 107c1 44 -16 81 -50 112
c-33 31 -73 47 -118 48c-48 1 -89 -16 -123 -51c-34 -34 -51 -75 -51 -123v-15h-79v18c0 69 25 127 75 176s110 73 179 74c68 1 126 -23 175 -70s73 -104 72 -172c0 -59 -23 -111 -69 -157zM1231 114v-95h-82v95h82zM618 800v-1000h-26v1000h26zM280 439v-73h-280v73h280z
M4372 302c20 0 39 18 57 55c16 33 24 63 24 90c0 35 -12 53 -36 53c-20 0 -40 -17 -59 -50s-28 -66 -28 -97c0 -34 14 -51 42 -51zM2708 633c17 16 25 35 25 58c-1 44 -39 80 -84 80c-44 0 -81 -37 -81 -81s37 -80 82 -81c23 0 42 8 58 24zM2826 61c17 16 25 35 25 58
c-1 45 -39 80 -83 80c-45 0 -82 -36 -82 -81c0 -44 37 -80 82 -80c23 -1 42 7 58 23zM2083 633c16 -15 35 -23 57 -24c45 0 83 37 83 82c0 44 -38 80 -83 80c-44 0 -81 -37 -81 -81c0 -22 8 -41 24 -57zM2138 61c17 16 25 35 25 58c0 45 -38 80 -83 80
c-44 0 -81 -36 -81 -81c0 -44 37 -80 81 -80c23 -1 42 7 58 23zM2681 673l26 -8c-8 -28 -26 -42 -54 -42c-37 0 -59 27 -59 66c0 45 20 68 61 68c27 0 45 -13 52 -38l-26 -6c-3 15 -13 22 -28 22c-21 0 -32 -15 -32 -44c0 -31 11 -46 32 -46c15 0 24 9 28 28zM2800 101
l25 -8c-7 -28 -25 -42 -54 -42c-37 0 -59 29 -59 66c0 46 20 69 61 69c27 0 45 -13 52 -38l-26 -7c-3 15 -13 22 -28 22c-21 0 -32 -15 -32 -44c0 -30 11 -45 32 -45c15 0 24 9 29 27zM2176 657l14 -21h-27l-15 23c-4 6 -10 13 -19 21c-2 1 -6 1 -11 1h-4v-45h-22v109h46
c20 0 33 -5 38 -14c3 -5 5 -10 5 -17c0 -17 -10 -27 -29 -30c8 -5 16 -14 24 -27zM2117 85l13 -21h-26l-16 24c-4 6 -10 13 -18 20c-3 1 -7 1 -12 1h-4v-45h-22v109h46c20 0 33 -5 38 -14c3 -5 5 -10 5 -17c0 -17 -10 -27 -29 -30c8 -5 16 -14 25 -27zM2114 699h16
c19 0 28 5 28 14c0 7 -4 12 -11 13h-16h-17v-27zM2054 127h16c19 0 28 5 28 14c0 7 -4 12 -11 13h-16h-17v-27z" />
    <glyph glyph-name="hyphen" unicode="&#x2212;" horiz-adv-x="4606" 
d="M4582 305h40c-29 -73 -97 -112 -204 -118c-61 0 -114 22 -158 66s-66 97 -66 159c0 61 21 114 64 157s96 65 157 65c55 0 103 -16 144 -49c43 -34 65 -77 65 -128c0 -45 -14 -86 -43 -122c-29 -35 -63 -53 -102 -53c-8 1 -15 3 -21 6c-14 9 -22 23 -24 44l-18 -21
c-15 -17 -35 -26 -58 -26c-48 -1 -82 44 -82 95c0 37 16 70 47 98c29 25 58 38 88 38c25 0 40 -9 47 -28l6 -17l12 38l53 1l-48 -174c-7 -25 -3 -37 10 -37c25 0 48 16 69 49s32 68 32 104c0 47 -18 84 -55 112c-33 25 -74 38 -122 38c-52 0 -96 -18 -133 -55
s-55 -81 -55 -133c0 -53 19 -99 56 -138s83 -58 136 -58c26 1 49 5 70 11c49 15 80 40 93 76zM3957 664v-131h-77v131h77zM3957 263v-131h-77v131h77zM3666 142v-133h-77v133h77zM2752 692c0 -56 -46 -101 -101 -101c-56 0 -102 43 -102 98s45 101 100 101
c56 0 103 -43 103 -98zM3357 148l-86 -202h-78l88 202h76zM2505 790v-109h-20v86l-22 -86h-21l-21 86v-86h-21v109h33l20 -74l20 74h32zM2354 771v-90h-22v90h-32v19h87v-19h-33zM2870 120c0 -27 -10 -51 -30 -71s-44 -30 -71 -30c-55 0 -102 43 -102 98s45 101 101 101
c55 0 102 -43 102 -98zM2242 692c0 -56 -45 -101 -101 -101c-55 0 -101 43 -101 98s44 101 100 101c55 0 102 -43 102 -98zM2475 128v-109h-21v85l-21 -85h-22l-21 85v-85h-20v109h32l20 -75l20 75h33zM2324 109v-90h-22v90h-33v19h87v-19h-32zM2152 49
c-19 -20 -43 -30 -71 -30c-55 0 -101 43 -101 98s45 101 100 101c56 0 102 -43 102 -98c0 -27 -10 -51 -30 -71zM1365 401l-56 -58c-48 -49 -74 -101 -77 -156h-84l4 33c3 31 13 60 28 87c14 25 46 62 95 111l36 36c28 28 42 64 43 107c1 44 -16 81 -50 112
c-33 31 -73 47 -118 48c-48 1 -89 -16 -123 -51c-34 -34 -51 -75 -51 -123v-15h-79v18c0 69 25 127 75 176s110 73 179 74c68 1 126 -23 175 -70s73 -104 72 -172c0 -59 -23 -111 -69 -157zM1231 114v-95h-82v95h82zM618 800v-1000h-26v1000h26zM280 439v-73h-280v73h280z
M4372 302c20 0 39 18 57 55c16 33 24 63 24 90c0 35 -12 53 -36 53c-20 0 -40 -17 -59 -50s-28 -66 -28 -97c0 -34 14 -51 42 -51zM2708 633c17 16 25 35 25 58c-1 44 -39 80 -84 80c-44 0 -81 -37 -81 -81s37 -80 82 -81c23 0 42 8 58 24zM2826 61c17 16 25 35 25 58
c-1 45 -39 80 -83 80c-45 0 -82 -36 -82 -81c0 -44 37 -80 82 -80c23 -1 42 7 58 23zM2083 633c16 -15 35 -23 57 -24c45 0 83 37 83 82c0 44 -38 80 -83 80c-44 0 -81 -37 -81 -81c0 -22 8 -41 24 -57zM2138 61c17 16 25 35 25 58c0 45 -38 80 -83 80
c-44 0 -81 -36 -81 -81c0 -44 37 -80 81 -80c23 -1 42 7 58 23zM2681 673l26 -8c-8 -28 -26 -42 -54 -42c-37 0 -59 27 -59 66c0 45 20 68 61 68c27 0 45 -13 52 -38l-26 -6c-3 15 -13 22 -28 22c-21 0 -32 -15 -32 -44c0 -31 11 -46 32 -46c15 0 24 9 28 28zM2800 101
l25 -8c-7 -28 -25 -42 -54 -42c-37 0 -59 29 -59 66c0 46 20 69 61 69c27 0 45 -13 52 -38l-26 -7c-3 15 -13 22 -28 22c-21 0 -32 -15 -32 -44c0 -30 11 -45 32 -45c15 0 24 9 29 27zM2176 657l14 -21h-27l-15 23c-4 6 -10 13 -19 21c-2 1 -6 1 -11 1h-4v-45h-22v109h46
c20 0 33 -5 38 -14c3 -5 5 -10 5 -17c0 -17 -10 -27 -29 -30c8 -5 16 -14 24 -27zM2117 85l13 -21h-26l-16 24c-4 6 -10 13 -18 20c-3 1 -7 1 -12 1h-4v-45h-22v109h46c20 0 33 -5 38 -14c3 -5 5 -10 5 -17c0 -17 -10 -27 -29 -30c8 -5 16 -14 25 -27zM2114 699h16
c19 0 28 5 28 14c0 7 -4 12 -11 13h-16h-17v-27zM2054 127h16c19 0 28 5 28 14c0 7 -4 12 -11 13h-16h-17v-27z" />
    <glyph glyph-name="period" unicode="." horiz-adv-x="158" 
d="M76 142v-133h-76v133h76z" />
    <glyph glyph-name="slash" unicode="/" horiz-adv-x="449" 
d="M397 790l-325 -771h-72l324 771h73z" />
    <glyph glyph-name="zero" unicode="0" horiz-adv-x="882" 
d="M689 123c-79 -79 -173 -119 -284 -119c-109 0 -204 38 -285 114c-80 77 -120 169 -120 277c0 111 39 205 117 284c79 79 173 119 283 119c111 0 206 -37 286 -112c81 -77 122 -169 122 -277c0 -111 -40 -207 -119 -286zM637 173c65 64 97 141 96 231
c-1 89 -34 165 -99 227s-142 93 -232 93c-89 0 -165 -32 -229 -96c-63 -63 -95 -139 -95 -227s32 -164 96 -227s140 -95 229 -96c91 -1 169 31 234 95z" />
    <glyph glyph-name="one" unicode="1" horiz-adv-x="301" 
d="M219 596v-578h-76v592c0 27 -13 53 -39 79c-17 17 -45 26 -84 28l-20 1v68h20c116 0 199 -67 199 -190z" />
    <glyph glyph-name="two" unicode="2" horiz-adv-x="553" 
d="M477 89v-71h-477v72l352 338c45 43 65 90 62 140c-3 44 -20 81 -51 111s-69 45 -113 46c-45 0 -85 -16 -119 -48c-33 -31 -50 -69 -50 -114v-26h-76v26c0 66 24 122 73 168s107 69 173 68c63 -1 116 -21 160 -62c45 -40 70 -91 77 -152c1 -11 1 -21 1 -31
c0 -64 -27 -122 -80 -174l-304 -291h372z" />
    <glyph glyph-name="three" unicode="3" horiz-adv-x="559" 
d="M77 260v-15c0 -45 16 -84 49 -116s71 -48 116 -48c47 0 87 17 120 51c33 35 49 75 47 122c-2 53 -21 94 -57 125c-34 29 -77 43 -128 43h-31v68l29 -2c38 -3 71 7 98 30c28 23 41 55 40 95c-3 61 -47 109 -107 113c-33 2 -62 -9 -87 -33s-37 -53 -37 -86v-12h-77v7
c0 55 19 101 58 140s85 59 138 58s98 -20 135 -58c38 -38 56 -83 54 -135c-1 -62 -28 -111 -81 -147c83 -42 127 -110 131 -205c2 -68 -22 -127 -71 -177c-49 -49 -108 -74 -177 -73c-66 1 -122 26 -169 73c-47 48 -70 105 -70 171v11h77z" />
    <glyph glyph-name="four" unicode="4" horiz-adv-x="607" 
d="M466 159v-141h-80v141h-386v70l370 557h95v-557h69v-70h-68zM91 229h295v449z" />
    <glyph glyph-name="five" unicode="5" horiz-adv-x="584" 
d="M0 261h75c0 -47 18 -90 55 -127s81 -56 131 -55c51 0 94 19 129 58c36 39 54 84 54 137s-19 99 -57 138c-37 39 -82 58 -134 55c-31 -2 -62 -11 -91 -28c-27 -15 -47 -33 -61 -52l-60 22l68 378h347v-69h-285l-39 -213c41 25 86 37 135 37c71 0 131 -26 180 -79
c49 -52 74 -114 75 -185c1 -72 -22 -135 -69 -188s-106 -82 -176 -86c-73 -5 -138 19 -193 70s-83 114 -84 187z" />
    <glyph glyph-name="six" unicode="6" horiz-adv-x="661" 
d="M364 786h105l-190 -190c85 5 157 -20 217 -76c61 -56 91 -126 91 -210s-30 -155 -89 -214s-129 -88 -211 -88c-77 0 -143 26 -198 78c-59 57 -89 127 -89 211c0 83 30 155 90 215zM301 524c-60 0 -112 -21 -157 -63c-47 -45 -70 -101 -70 -166c0 -63 22 -114 67 -155
c40 -37 88 -55 144 -55c65 0 119 23 164 69c42 43 63 95 63 156s-21 112 -63 154c-41 40 -90 60 -148 60z" />
    <glyph glyph-name="seven" unicode="7" horiz-adv-x="499" 
d="M287 374l-162 -357h-82l162 357h-119v72h153l121 267h-360v71h442v-71l-121 -267h22v-72h-56z" />
    <glyph glyph-name="eight" unicode="8" 
d="M423 503c-11 -17 -33 -36 -65 -56c83 -41 126 -109 130 -202c3 -67 -23 -125 -76 -174c-53 -48 -115 -70 -184 -65c-64 4 -118 29 -163 74s-66 99 -65 162c2 96 45 165 129 206c-59 39 -88 92 -86 159c2 54 23 100 62 137c40 38 87 57 141 56c56 -1 104 -21 145 -61
s59 -86 56 -138c-2 -43 -10 -76 -24 -98zM335 689c-23 23 -52 36 -86 37c-35 1 -65 -11 -91 -34s-39 -52 -40 -87s12 -64 37 -89s55 -37 90 -37s65 12 90 37s38 55 37 90c-1 33 -13 60 -37 83zM124 357c-31 -32 -47 -71 -47 -116c1 -44 16 -82 47 -113s69 -48 114 -49
c47 -1 87 15 121 48c35 33 52 73 51 118s-18 84 -52 115c-33 32 -73 48 -118 47s-84 -18 -116 -50z" />
    <glyph glyph-name="nine" unicode="9" horiz-adv-x="651" 
d="M500 292l-275 -275h-105l191 191c-85 -6 -158 20 -219 77c-59 55 -89 125 -89 209s29 155 88 213c59 59 129 88 211 88c77 0 143 -26 198 -78c60 -56 90 -126 90 -211c0 -83 -30 -155 -90 -214zM445 343c47 45 70 100 70 165c0 63 -22 115 -67 156c-40 37 -88 55 -144 55
c-65 0 -119 -23 -164 -70c-42 -43 -63 -95 -63 -155c0 -61 21 -112 64 -154c40 -40 89 -60 147 -60c61 0 113 21 157 63z" />
    <glyph glyph-name="colon" unicode=":" horiz-adv-x="158" 
d="M77 664v-131h-77v131h77zM77 263v-131h-77v131h77z" />
    <glyph glyph-name="semicolon" unicode=";" horiz-adv-x="228" 
d="M164 551v-131h-77v131h77zM164 150l-87 -202h-77l87 202h77z" />
    <glyph glyph-name="equal" unicode="=" horiz-adv-x="573" 
d="M525 544v-79h-525v79h525zM525 342v-79h-525v79h525z" />
    <glyph glyph-name="question" unicode="?" 
d="M432 401l-56 -58c-48 -49 -74 -101 -78 -156h-83l4 33c3 31 13 60 28 87c14 25 46 62 95 111l36 36c28 28 42 64 43 107c0 44 -17 81 -50 112s-73 47 -118 48c-48 1 -89 -16 -124 -51c-34 -34 -51 -75 -51 -123v-15h-78v18c0 69 25 127 75 176s110 73 179 74
c68 1 126 -23 174 -70c49 -47 73 -104 73 -172c0 -59 -23 -111 -69 -157zM297 114v-95h-81v95h81z" />
    <glyph glyph-name="at" unicode="@" horiz-adv-x="509" 
d="M388 305h40c-29 -73 -97 -112 -204 -118c-62 0 -115 22 -159 66c-43 44 -65 97 -65 159c0 61 21 114 64 157s96 65 157 65c55 0 103 -16 144 -49c43 -34 65 -77 65 -128c0 -45 -15 -86 -44 -122c-29 -35 -62 -53 -101 -53c-8 1 -15 3 -21 6c-14 9 -22 23 -24 44l-18 -21
c-16 -17 -35 -26 -58 -26c-48 -1 -82 44 -82 95c0 37 16 70 47 98c29 25 58 38 88 38c25 0 40 -9 47 -28l6 -17l12 38l53 1l-48 -174c-7 -25 -3 -37 10 -37c25 0 48 16 69 49s32 68 32 104c0 47 -18 84 -55 112c-33 25 -74 38 -122 38c-52 0 -96 -18 -133 -55
s-55 -81 -55 -133c0 -53 19 -99 56 -138s83 -58 136 -58c26 1 49 5 70 11c49 15 80 40 93 76zM178 302c20 0 39 18 57 55c16 33 24 63 24 90c0 35 -12 53 -36 53c-20 0 -40 -17 -59 -50s-28 -66 -28 -97c0 -34 14 -51 42 -51z" />
    <glyph glyph-name="A" unicode="A" horiz-adv-x="833" 
d="M454 789l327 -770h-85l-109 260h-357l-108 -260h-98l344 770h86zM263 348h297l-147 352z" />
    <glyph glyph-name="B" unicode="B" horiz-adv-x="557" 
d="M245 19h-245v770h218c61 0 114 -18 159 -54c47 -38 71 -86 71 -144c0 -69 -29 -122 -88 -160c79 -37 121 -102 124 -193c2 -61 -21 -113 -70 -156c-48 -42 -104 -63 -169 -63zM80 460h140c40 0 75 12 105 35c31 24 46 55 46 92c0 41 -16 74 -48 97c-29 22 -64 33 -107 33
h-136v-257zM80 92h140c119 0 190 61 185 153c-3 49 -22 86 -58 111c-33 23 -76 34 -131 34h-136v-298z" />
    <glyph glyph-name="C" unicode="C" horiz-adv-x="757" 
d="M659 217h86c-71 -133 -196 -210 -349 -213c-109 -1 -202 38 -280 117c-77 79 -116 174 -116 284c0 113 39 208 117 283c76 75 169 112 279 111c77 -1 146 -20 209 -59c60 -38 107 -89 140 -153h-87c-64 93 -153 138 -268 137c-85 0 -159 -31 -221 -93
c-61 -61 -93 -135 -95 -222c-2 -90 29 -168 92 -234c64 -65 141 -98 230 -98c52 0 103 14 152 41c47 26 84 59 111 99z" />
    <glyph glyph-name="D" unicode="D" horiz-adv-x="714" 
d="M261 19h-261v769h223c123 0 224 -37 303 -110s119 -165 119 -275c0 -105 -38 -196 -114 -271c-75 -75 -165 -113 -270 -113zM74 91h183c87 0 161 32 222 96s91 140 88 227c-2 85 -36 157 -101 215s-142 87 -231 87h-161v-625z" />
    <glyph glyph-name="E" unicode="E" horiz-adv-x="460" 
d="M420 91v-72h-221c-116 0 -199 68 -199 189v391c0 121 83 189 199 189h221v-72h-221c-40 0 -68 -8 -84 -24c-25 -27 -38 -53 -38 -80v-166h257v-73h-257v-178c0 -27 13 -53 38 -80c16 -16 44 -24 84 -24h221z" />
    <glyph glyph-name="F" unicode="F" horiz-adv-x="450" 
d="M77 373v-354h-77v580c0 121 83 189 199 189h221v-72h-221c-40 0 -68 -8 -84 -24c-25 -27 -38 -53 -38 -80v-166h257v-73h-257z" />
    <glyph glyph-name="G" unicode="G" horiz-adv-x="850" 
d="M295 374l524 -1c-12 -120 -64 -214 -156 -283c-77 -57 -160 -86 -251 -85c-111 1 -208 40 -290 118s-123 172 -122 281c1 112 40 206 118 282c79 76 175 114 289 114c83 0 153 -16 210 -48c61 -35 112 -91 154 -170h-86c-68 99 -162 147 -282 146
c-87 -1 -162 -32 -226 -93c-66 -63 -100 -138 -103 -227c-2 -89 30 -165 95 -228c63 -61 143 -95 238 -101c65 -5 128 15 191 60s106 100 128 165l-431 1v69z" />
    <glyph glyph-name="H" unicode="H" horiz-adv-x="627" 
d="M541 788v-769h-74v354h-392v-354h-75v769h75v-342h392v342h74z" />
    <glyph glyph-name="I" unicode="I" horiz-adv-x="163" 
d="M77 789v-770h-77v770h77z" />
    <glyph glyph-name="J" unicode="J" horiz-adv-x="493" 
d="M409 789v-596c0 -53 -20 -98 -61 -135c-41 -36 -89 -54 -145 -54c-54 0 -101 19 -141 57c-39 39 -60 85 -62 139h76c1 -33 14 -61 39 -84c25 -22 55 -34 90 -36c33 -2 62 8 87 31c26 23 39 50 39 83v595h78z" />
    <glyph glyph-name="K" unicode="K" horiz-adv-x="586" 
d="M227 414l304 -395h-93l-262 334l-99 -125v-209h-77v770h81v-438l352 438h98z" />
    <glyph glyph-name="L" unicode="L" horiz-adv-x="447" 
d="M421 92v-73h-221c-117 0 -200 67 -200 190v580h77v-594c0 -27 13 -53 38 -79c16 -16 44 -24 85 -24h221z" />
    <glyph glyph-name="M" unicode="M" horiz-adv-x="888" 
d="M803 789v-770h-78v680l-293 -680h-65l-290 679l2 -679h-79v770h120l278 -664l287 664h118z" />
    <glyph glyph-name="N" unicode="N" horiz-adv-x="693" 
d="M608 789v-770h-86l-442 670v-670h-80v770h104l425 -646v646h79z" />
    <glyph glyph-name="O" unicode="O" horiz-adv-x="883" 
d="M690 123c-79 -79 -173 -119 -284 -119c-110 0 -205 38 -286 115c-80 77 -120 169 -120 277c0 111 39 206 117 285c79 79 173 119 284 119s206 -38 287 -114c81 -75 121 -167 121 -276c0 -111 -40 -207 -119 -287zM638 174c65 64 98 141 97 231c-1 89 -35 165 -100 227
s-142 93 -232 93c-89 0 -165 -32 -229 -95s-96 -139 -96 -228c0 -88 32 -164 96 -227s141 -95 230 -96c91 -1 169 31 234 95z" />
    <glyph glyph-name="P" unicode="P" horiz-adv-x="555" 
d="M80 325v-306h-80v769h247c76 0 139 -23 190 -69c51 -45 75 -103 74 -172c-1 -63 -25 -115 -72 -158s-103 -64 -168 -64h-191zM80 395h176c49 0 91 15 125 46c37 32 54 73 51 124c-2 44 -21 80 -57 108c-35 29 -77 43 -124 43h-171v-321z" />
    <glyph glyph-name="Q" unicode="Q" horiz-adv-x="869" 
d="M797 68v-68h-20c-68 0 -121 22 -160 66c-67 -43 -139 -65 -218 -65c-110 0 -204 39 -282 117s-117 172 -117 282s39 204 117 282s172 117 282 117s204 -39 281 -117c78 -78 117 -172 117 -282c0 -112 -40 -207 -120 -285c27 -35 45 -43 100 -46zM628 173
c64 63 96 140 96 230s-32 167 -96 230c-63 64 -140 96 -230 96s-167 -32 -231 -96c-63 -63 -95 -140 -95 -230s32 -167 95 -230c64 -63 141 -95 231 -95s167 32 230 95z" />
    <glyph glyph-name="R" unicode="R" horiz-adv-x="596" 
d="M295 306l213 -287h-95l-260 348h75c67 0 121 17 160 52s58 78 55 131c-2 48 -19 87 -52 117c-35 33 -82 49 -140 49h-172v-697h-79v769h246c85 0 153 -24 204 -71s75 -107 74 -180c-1 -60 -22 -112 -61 -156c-39 -43 -88 -68 -146 -73z" />
    <glyph glyph-name="S" unicode="S" horiz-adv-x="525" 
d="M0 236h81c-1 -42 14 -78 43 -109s65 -46 106 -47c43 -1 80 14 111 44s46 67 45 110c-2 71 -49 121 -142 150l-82 25c-87 27 -137 96 -138 188c-1 57 20 105 63 144c43 40 93 60 151 59c57 -1 106 -22 146 -63s60 -90 60 -147h-81c1 36 -11 67 -36 93
c-24 26 -54 40 -89 42c-37 2 -70 -10 -99 -37c-28 -26 -41 -57 -40 -94c1 -60 31 -99 89 -117l93 -29c119 -37 179 -109 180 -216c1 -63 -22 -116 -67 -161c-45 -44 -99 -66 -163 -66s-118 22 -163 66s-67 99 -68 165z" />
    <glyph glyph-name="T" unicode="T" horiz-adv-x="479" 
d="M251 716v-697h-77v697h-174v72h426v-72h-175z" />
    <glyph glyph-name="U" unicode="U" horiz-adv-x="603" 
d="M521 790v-521c0 -75 -26 -139 -78 -190c-51 -51 -114 -75 -187 -74c-72 1 -133 26 -182 77s-74 115 -74 190v518h76v-504c0 -58 17 -107 52 -147c35 -39 79 -59 132 -59c51 0 95 18 130 55c36 37 54 82 54 136v519h77z" />
    <glyph glyph-name="V" unicode="V" horiz-adv-x="761" 
d="M708 790l-316 -771h-76l-316 771h82l272 -676l273 676h81z" />
    <glyph glyph-name="W" unicode="W" horiz-adv-x="1040" 
d="M978 790l-218 -771h-106l-169 632l-163 -632h-106l-216 771h79l189 -668l182 668h71l188 -665l183 665h86z" />
    <glyph glyph-name="X" unicode="X" horiz-adv-x="679" 
d="M353 415l269 -396h-90l-223 332l-219 -332h-90l260 395l-251 376h93l206 -308l201 308h88z" />
    <glyph glyph-name="Y" unicode="Y" horiz-adv-x="650" 
d="M338 278v-259h-78v260l-260 511h80l218 -434l218 434h85z" />
    <glyph glyph-name="Z" unicode="Z" horiz-adv-x="514" 
d="M463 92v-73h-475v66l376 632h-364v73h449v-70l-371 -628h385z" />
    <glyph glyph-name="backslash" unicode="\" horiz-adv-x="450" 
d="M73 790l324 -771h-72l-325 771h73z" />
    <glyph glyph-name="underscore" unicode="_" horiz-adv-x="631" 
d="M676 -24v-64h-676v64h676z" />
    <glyph glyph-name="grave" unicode="`" horiz-adv-x="255" 
d="M76 790l88 -202h-78l-86 202h76z" />
    <glyph glyph-name="a" unicode="a" horiz-adv-x="665" 
d="M585 301v-282h-74v89c-62 -71 -138 -105 -228 -102c-79 3 -146 33 -201 91s-83 127 -83 207c0 83 30 155 89 214c59 60 130 88 213 85c80 -3 148 -33 204 -92c56 -58 83 -127 80 -206v-4zM141 465c-43 -43 -64 -94 -65 -155c-1 -60 18 -113 59 -158s91 -68 149 -71
c63 -3 116 19 160 65c45 47 66 102 65 165c-1 60 -23 111 -64 154s-91 64 -149 64c-61 0 -112 -21 -155 -64z" />
    <glyph glyph-name="b" unicode="b" horiz-adv-x="651" 
d="M-2 305v4v481h75v-288c56 65 126 98 210 101c82 3 153 -25 212 -85c60 -60 90 -131 90 -214c0 -80 -28 -149 -83 -207s-123 -88 -202 -91c-82 -3 -153 26 -214 86s-90 131 -88 213zM299 81c59 3 108 26 149 71s61 97 60 158c-1 60 -23 111 -66 154c-42 43 -93 65 -154 65
c-58 0 -108 -21 -149 -64s-63 -94 -64 -154c-2 -63 19 -118 64 -165c45 -46 98 -68 160 -65z" />
    <glyph glyph-name="c" unicode="c" horiz-adv-x="631" 
d="M591 187l-8 -17c-60 -111 -153 -165 -278 -164c-83 1 -154 30 -214 87s-90 127 -91 209c-1 83 28 153 88 212c61 59 133 90 217 91c60 1 116 -15 168 -47c49 -31 85 -69 106 -116l11 -25h-86c-43 73 -108 111 -196 113c-59 1 -111 -20 -158 -64c-49 -45 -73 -99 -73 -161
s23 -115 68 -160c45 -44 99 -66 161 -65c89 1 155 37 199 107h86z" />
    <glyph glyph-name="d" unicode="d" horiz-adv-x="678" 
d="M597 786v-485c2 -82 -27 -153 -88 -213c-61 -59 -132 -88 -214 -85c-79 2 -147 32 -202 90s-82 127 -82 207c0 83 30 155 89 214c59 60 130 89 212 86c84 -3 154 -37 210 -101v287h75zM147 148c41 -45 90 -68 149 -70c63 -3 116 18 160 65c45 47 66 101 64 164
c-1 60 -23 111 -64 154s-90 64 -149 64c-60 1 -112 -21 -155 -64s-64 -94 -65 -155c-1 -60 19 -113 60 -158z" />
    <glyph glyph-name="e" unicode="e" horiz-adv-x="658" 
d="M495 206h81c-21 -61 -57 -110 -108 -146s-107 -54 -169 -55c-78 -1 -147 27 -207 85c-60 59 -91 128 -92 209c-2 85 28 159 90 220c63 62 136 91 221 86c76 -5 142 -36 198 -94c54 -57 81 -121 81 -192v-41h-512c6 -57 30 -105 73 -142s93 -56 151 -55
c90 1 154 43 193 125zM78 348h437c-11 53 -36 96 -75 129s-86 50 -141 51s-103 -16 -144 -49s-66 -77 -77 -131z" />
    <glyph glyph-name="f" unicode="f" horiz-adv-x="283" 
d="M77 519v-500h-77v581c0 121 83 190 200 190h20v-68l-20 -1c-40 -2 -68 -11 -85 -28c-25 -27 -38 -53 -38 -80v-24h143v-70h-143z" />
    <glyph glyph-name="g" unicode="g" horiz-adv-x="666" 
d="M586 309v-263c0 -72 -30 -132 -89 -179s-126 -70 -202 -67c-68 3 -127 23 -176 62c-47 37 -78 85 -94 143h74c11 -39 37 -73 76 -101c39 -29 82 -43 129 -43c56 1 104 20 145 59c41 38 62 84 62 137v54c-56 -64 -126 -98 -210 -101c-82 -3 -153 26 -212 85
c-59 60 -89 132 -89 215c0 80 27 149 82 207s123 88 202 91c82 2 153 -27 213 -87c61 -59 90 -130 89 -212zM296 85c59 0 108 21 149 64s63 94 64 154c2 63 -19 117 -64 164c-44 47 -97 69 -160 66c-59 -3 -108 -27 -149 -72s-61 -97 -60 -157c1 -61 23 -112 66 -155
s94 -64 154 -64z" />
    <glyph glyph-name="h" unicode="h" horiz-adv-x="575" 
d="M502 343v-324h-76v332c0 48 -18 89 -53 124s-77 52 -124 51c-48 -1 -89 -17 -122 -49c-33 -31 -49 -71 -49 -120v-338h-79v771h77v-282c43 57 99 87 167 90c71 3 131 -20 182 -70s77 -112 77 -185z" />
    <glyph glyph-name="i" unicode="i" horiz-adv-x="159" 
d="M75 790v-133h-75v133h75zM75 589v-570h-75v570h75z" />
    <glyph glyph-name="j" unicode="j" horiz-adv-x="227" 
d="M144 790v-135h-79v135h79zM22 -156l-21 -4v76c24 2 42 12 53 31c7 12 11 36 11 72v571h77v-585c0 -53 -9 -90 -28 -111c-22 -26 -53 -43 -92 -50z" />
    <glyph glyph-name="k" unicode="k" horiz-adv-x="512" 
d="M221 302l236 -283h-99l-185 224l-91 -115v-109h-82v771h79v-543l264 342h95z" />
    <glyph glyph-name="l" unicode="l" horiz-adv-x="162" 
d="M76 790v-771h-76v771h76z" />
    <glyph glyph-name="m" unicode="m" horiz-adv-x="902" 
d="M820 360v-341h-79v350c0 44 -13 82 -38 113s-59 47 -100 47c-42 0 -78 -14 -109 -41c-30 -27 -45 -61 -45 -102v-367h-80v367c0 41 -15 75 -46 102c-30 27 -66 41 -108 41c-41 0 -74 -16 -99 -47s-37 -68 -37 -113v-350h-79v341c0 71 20 129 61 172c38 41 88 64 150 69
c83 7 149 -29 198 -106c49 77 115 113 198 106c62 -5 112 -28 151 -69c41 -43 62 -101 62 -172z" />
    <glyph glyph-name="n" unicode="n" horiz-adv-x="583" 
d="M503 344v-325h-77v333c0 48 -18 89 -53 124s-75 52 -122 52s-89 -17 -124 -52s-52 -76 -52 -124v-333h-77v325c0 74 24 135 72 184s108 74 181 74c72 0 132 -25 180 -74s72 -110 72 -184z" />
    <glyph glyph-name="o" unicode="o" horiz-adv-x="663" 
d="M586 304c0 -82 -30 -153 -90 -213c-59 -59 -130 -88 -212 -85c-79 2 -147 32 -202 90s-82 127 -82 207c0 83 30 155 89 214c59 60 130 89 212 86c79 -3 147 -33 202 -92c55 -58 83 -127 83 -207zM136 151c41 -45 90 -68 149 -70c63 -3 116 18 160 65c45 47 66 101 65 164
c-2 60 -24 111 -65 154s-90 64 -148 64c-61 1 -112 -21 -155 -64s-64 -94 -65 -155c-1 -60 18 -113 59 -158z" />
    <glyph glyph-name="p" unicode="p" horiz-adv-x="661" 
d="M75 106v-287h-74v481v4c0 82 30 153 89 212c60 60 131 89 213 86c79 -2 146 -32 201 -90s83 -127 83 -207c0 -83 -30 -155 -89 -215c-59 -59 -130 -88 -212 -85c-84 3 -154 37 -211 101zM451 456c-41 45 -90 69 -149 71c-63 3 -116 -18 -161 -65
c-44 -47 -65 -101 -64 -164c1 -60 23 -111 64 -154s91 -64 150 -64c60 0 111 21 154 64s65 94 66 155c1 60 -19 112 -60 157z" />
    <glyph glyph-name="q" unicode="q" horiz-adv-x="665" 
d="M586 300v-481h-75v287c-57 -64 -127 -98 -210 -101s-154 26 -213 85c-59 60 -89 132 -89 215c0 80 27 149 82 207s123 88 202 90c83 3 154 -26 215 -86s90 -131 88 -212v-4zM135 456c-41 -45 -60 -97 -59 -157c1 -61 22 -112 65 -155s94 -64 155 -64c58 0 108 21 149 64
s63 94 64 154c1 63 -20 117 -65 164c-44 47 -97 68 -160 65c-58 -2 -108 -26 -149 -71z" />
    <glyph glyph-name="r" unicode="r" horiz-adv-x="283" 
d="M74 360v-341h-80v570h71v-81c16 31 40 54 71 71c29 15 58 22 88 21v-76c-35 -1 -64 -11 -86 -29s-37 -34 -45 -47c-13 -22 -19 -51 -19 -88z" />
    <glyph glyph-name="s" unicode="s" horiz-adv-x="435" 
d="M79 188v-19c0 -19 11 -39 32 -60s44 -31 68 -30c32 1 57 10 76 29c17 17 25 40 26 68c1 49 -27 82 -83 100l-67 21c-70 22 -107 70 -110 143c-2 44 13 82 44 113c32 31 70 48 115 50c39 2 75 -11 108 -38c34 -27 52 -60 55 -100l1 -17h-80v13c0 40 -40 67 -84 67
c-43 -1 -79 -34 -80 -78c-3 -41 22 -70 73 -87l66 -22c76 -26 117 -77 122 -152c4 -51 -14 -96 -54 -134c-40 -37 -86 -54 -138 -51c-48 3 -88 23 -121 58c-32 35 -48 77 -48 126h79z" />
    <glyph glyph-name="t" unicode="t" horiz-adv-x="275" 
d="M208 70v-63c-139 0 -208 59 -208 177v605h77v-199h131v-71h-131v-322c0 -85 44 -127 131 -127z" />
    <glyph glyph-name="u" unicode="u" horiz-adv-x="589" 
d="M504 589v-325c0 -74 -24 -136 -72 -185c-47 -49 -107 -74 -180 -74s-133 25 -181 74c-47 49 -71 111 -71 185v325h77v-334c0 -48 17 -89 52 -124c35 -34 76 -51 123 -51s87 17 122 51c35 35 53 76 53 124v334h77z" />
    <glyph glyph-name="v" unicode="v" horiz-adv-x="615" 
d="M551 589l-238 -570h-79l-234 570h80l194 -470l193 470h84z" />
    <glyph glyph-name="w" unicode="w" horiz-adv-x="914" 
d="M847 589l-214 -570h-89l-124 377l-117 -377h-87l-216 570h81l177 -475l132 406h65l130 -403l180 472h82z" />
    <glyph glyph-name="x" unicode="x" horiz-adv-x="562" 
d="M285 308l200 -289h-95l-150 228l-149 -228h-90l192 291l-194 279h87l154 -217l149 217h94z" />
    <glyph glyph-name="y" unicode="y" horiz-adv-x="600" 
d="M537 589l-323 -769h-82l86 217l-218 552h83l182 -452l192 452h80z" />
    <glyph glyph-name="z" unicode="z" horiz-adv-x="465" 
d="M404 90v-71h-421v71l305 428h-294v71h387v-72l-302 -427h325z" />
    <glyph glyph-name="bar" unicode="|" horiz-adv-x="139" 
d="M53 800l1 -1000h-54v1000h53z" />
    <glyph glyph-name="asciitilde" unicode="~" horiz-adv-x="499" 
d="M423 443l-31 -46c-5 -8 -15 -16 -29 -25c-17 -10 -33 -16 -48 -19c-20 -3 -48 3 -83 18l-62 26c-26 11 -45 15 -56 13c-24 -3 -44 -18 -60 -43l-19 -32l-35 38l14 24c27 45 58 70 91 75c21 3 45 -1 74 -12l86 -35c17 -7 31 -10 43 -9c27 3 47 14 59 35l20 34z" />
    <glyph glyph-name="udieresis" unicode="&#xfc;" horiz-adv-x="505" 
d="M423 689c0 -32 -25 -57 -57 -57c-31 0 -57 25 -57 57s26 57 57 57c32 0 57 -25 57 -57zM195 689c0 -32 -26 -57 -57 -57c-32 0 -57 25 -57 57s25 57 57 57c31 0 57 -25 57 -57z" />
    <glyph glyph-name="dagger" unicode="&#x2020;" horiz-adv-x="764" 
d="M553 653l-5 -56l-9 8l4 47l-12 -2l-19 -24l-8 7l51 63l8 -7l-25 -30h1c4 1 7 2 10 2l38 8l10 -8zM662 575l5 -10l-71 -38l-5 10zM636 616l-47 -71l-7 9l15 22l-18 23l-25 -9l-7 8l81 28zM511 664l-4 -7l-9 4l-10 -19l-9 5l10 19l-33 16l4 6l53 29l10 -5l-22 -43zM456 697
l-3 -7l-28 9l2 7zM361 684l4 8c5 -4 11 -6 17 -7c11 -2 18 2 19 12c1 11 -5 17 -18 19h-5l1 8l5 -1c12 -1 18 2 19 11c1 8 -3 12 -12 13c-5 1 -11 1 -16 -2l-1 7c6 3 13 5 21 4c15 -2 21 -9 19 -22c0 -5 -16 -11 -17 -16c11 -4 16 -11 15 -22c-2 -15 -12 -22 -31 -20
c-8 1 -15 4 -20 8zM310 676l-1 9c21 -1 32 10 33 31c-4 -6 -10 -9 -18 -10c-15 -1 -23 7 -24 22c-1 19 7 29 24 30s27 -9 28 -31c2 -28 -9 -44 -32 -49c-4 -1 -7 -2 -10 -2zM294 684l3 -8l-48 -14l-2 7l6 10c13 23 19 39 17 47c-3 9 -9 13 -19 10c-6 -1 -11 -5 -14 -11l-6 7
c7 9 16 14 27 14s18 -5 21 -16s-1 -27 -14 -48l-4 -7zM672 229l-4 -8l-38 14c-17 7 -23 18 -18 34c3 9 10 15 21 18c-7 9 -8 17 -4 26c3 7 8 11 15 14s14 3 22 0l38 -15l-4 -9l-39 15c-5 2 -9 2 -14 1c-11 -3 -15 -11 -10 -23c2 -5 5 -8 10 -9l41 -16l-4 -9l-41 16
c-11 4 -18 0 -22 -11s0 -18 12 -23zM228 692l3 -7l-26 -12l-4 7zM153 699l44 -64l-8 -6l-39 56l-7 -14l-6 6l8 17zM632 171c-6 -7 -14 -11 -24 -12c-23 -2 -36 9 -39 32c-3 19 11 37 31 38c23 2 36 -9 39 -32c1 -9 -1 -18 -7 -26zM455 403c0 -29 -10 -54 -31 -75
s-45 -31 -74 -31c-59 0 -106 47 -106 106s47 106 106 106c29 0 53 -10 74 -31s31 -46 31 -75zM168 571v-169c0 -50 18 -93 53 -128s78 -53 128 -53s93 18 128 53s53 78 53 128s-18 93 -53 128s-78 53 -128 53c-39 0 -74 -11 -105 -34v77c33 15 67 22 102 22
c68 0 127 -23 177 -70s75 -104 75 -171c0 -69 -24 -128 -73 -177s-107 -73 -176 -73c-68 0 -127 24 -177 71c-49 47 -74 104 -74 171c0 66 23 123 70 172zM127 577l-4 8c5 1 10 4 15 9c9 9 9 17 0 25c-8 8 -17 6 -27 -5c-3 -2 -5 -5 -7 -8l-24 30l26 26l6 -6l-20 -21l12 -16
c5 7 12 12 19 14c16 5 30 -9 30 -24c0 -17 -9 -27 -26 -32zM583 149l1 -2c5 -24 -17 -46 -41 -43c-20 1 -34 20 -31 40c3 19 14 30 33 32c7 1 14 -1 19 -4l2 -1l-8 -6c-16 7 -34 -4 -37 -21c-3 -19 5 -29 23 -31c17 -3 32 13 31 30zM103 531l-7 5c6 8 8 16 6 25
c-1 7 -5 14 -12 20c3 -7 2 -14 -3 -20c-8 -13 -19 -16 -32 -7c-9 5 -13 13 -13 23c0 17 8 25 24 25c7 0 14 -2 21 -7c13 -8 21 -18 24 -30c3 -11 0 -23 -8 -34zM526 89c2 -5 1 -8 -3 -10c-4 -3 -7 -2 -10 3s-2 8 3 10c4 2 7 1 10 -3zM459 91l38 -22l-11 -4l-30 17l-6 -16
l5 -13l-9 -3l-32 87l9 3l22 -61l16 49l10 4zM378 132l2 -16l-9 -1l-2 16zM404 84l8 -40l-9 -2l-14 67l9 1l2 -9c2 8 7 13 16 14l2 -8c-12 -3 -17 -11 -14 -23zM381 108l7 -68l-9 -1l-7 68zM338 72l28 -34h-12l-22 27l-11 -13v-13h-10l2 92h9l-1 -65l32 40h12zM302 95l-1 -2
l-9 2v1c1 5 -1 9 -8 10c-6 1 -10 -1 -11 -7c-1 -5 1 -9 6 -12l7 -4c9 -5 12 -12 11 -21c-1 -12 -15 -21 -27 -17c-13 3 -18 12 -15 25l9 -2l-1 -2c-1 -7 2 -12 10 -13s13 2 14 9c1 6 -1 11 -7 14l-7 4c-8 5 -11 11 -10 19c2 13 10 18 23 16s18 -9 16 -20zM148 219l6 -7
l-11 -11l-7 7zM79 280l4 -10l-42 11l-20 -39l-5 11l17 30l-17 5l-12 -5l-4 9l85 35l4 -8l-60 -25zM257 120l-15 -36c-5 -13 -15 -20 -28 -20c-14 0 -23 6 -28 19c-3 8 -3 16 0 24l16 36l8 -4l-15 -37c-6 -13 -2 -22 11 -27s22 -2 27 11l16 37zM162 202l-20 -28
c20 5 38 -8 41 -28c4 -23 -6 -37 -29 -41c-20 -4 -37 9 -40 29c-2 9 0 18 7 27l34 46zM96 187l-27 -20l-6 8l9 6c-21 3 -35 20 -31 41c5 23 19 32 42 28c20 -3 32 -21 28 -41c-1 -9 -6 -16 -15 -22zM131 202l6 -7l-49 -47l-6 6zM587 602l15 -19l13 20l9 13l-14 -6zM470 685
l22 -12l12 23l6 11c-3 -1 -6 -4 -11 -7zM326 714c11 1 17 5 16 14c-1 15 -7 23 -18 22c-10 -1 -15 -7 -14 -20c1 -11 6 -17 16 -16zM607 168c18 1 26 11 23 28c-3 18 -13 26 -30 24c-17 -1 -24 -11 -22 -28s12 -25 29 -24zM60 563c9 -6 17 -5 22 4c4 6 4 12 1 17l-3 3
c-13 8 -23 8 -28 -1s-3 -16 8 -23zM71 190c18 -3 28 5 31 22s-4 27 -21 30s-27 -5 -30 -22c-4 -17 3 -27 20 -30zM145 166c-17 -3 -25 -13 -23 -31c3 -17 13 -24 31 -21c17 3 24 13 22 30c-3 17 -13 25 -30 22z" />
    <glyph glyph-name="registered" unicode="&#xae;" horiz-adv-x="280" 
d="M203 692c0 -56 -46 -101 -101 -101c-56 0 -102 43 -102 98s45 101 100 101c56 0 103 -43 103 -98zM159 633c17 16 25 35 24 58c0 44 -38 80 -83 80c-44 0 -81 -37 -81 -81s37 -80 82 -81c23 0 42 8 58 24zM137 657l13 -21h-26l-16 23c-3 6 -9 13 -18 21c-3 1 -6 1 -11 1
h-5v-45h-22v109h47c19 0 32 -5 38 -14c3 -5 4 -10 4 -17c0 -17 -9 -27 -28 -30c7 -5 15 -14 24 -27zM74 699h17c19 0 28 5 28 14c0 7 -4 12 -12 13h-16h-17v-27z" />
    <glyph glyph-name="copyright" unicode="&#xa9;" horiz-adv-x="280" 
d="M203 692c0 -56 -46 -101 -101 -101c-56 0 -102 43 -102 98s45 101 100 101c56 0 103 -43 103 -98zM159 633c17 16 25 35 24 58c0 44 -38 80 -83 80c-44 0 -81 -37 -81 -81s37 -80 82 -81c23 0 42 8 58 24zM132 673l26 -8c-8 -28 -26 -42 -54 -42c-37 0 -59 27 -59 66
c0 45 20 68 60 68c28 0 45 -13 52 -38l-25 -6c-3 15 -13 22 -28 22c-21 0 -32 -15 -32 -44c0 -31 11 -46 32 -46c15 0 24 9 28 28z" />
    <glyph glyph-name="trademark" unicode="&#x2122;" horiz-adv-x="296" 
d="M205 790v-109h-20v86l-22 -86h-21l-21 86v-86h-21v109h33l20 -74l19 74h33zM54 771v-90h-22v90h-32v19h86v-19h-32z" />
    <glyph glyph-name="twosuperior" unicode="&#xb2;" horiz-adv-x="292" 
 />
  </font>
</defs>
</svg>
