<svg version="1.1" xmlns="http://www.w3.org/2000/svg" xmlns:xlink="http://www.w3.org/1999/xlink" x="0px" y="0px"
	 width="67.738px" height="67.738px" viewBox="0 0 67.738 67.738" style="enable-background:new 0 0 67.738 67.738;"
	 xml:space="preserve">
	<path fill="#CCCCCC" d="M58.615,67.738H16.955L9.123,62.8V25.857h30.719V8.974H9.123V0h46.506v1.881v0.78v0.78v3.87V62.8H16.955h-3.206
		l4.362,2.692h38.367L58.615,67.738z M12.928,22.541h-1.065h-1.075V12.294h1.068h3.218c1.168,0,2.055,0.271,2.666,0.82
		c0.607,0.544,0.913,1.343,0.913,2.384c0,1.107-0.306,1.946-0.913,2.519c-0.61,0.575-1.498,0.862-2.666,0.862
		c-0.827-0.005-1.542,0-2.146,0.014V22.541z M12.928,17.117h1.784c0.601,0,1.049-0.133,1.35-0.397
		c0.299-0.265,0.446-0.664,0.446-1.201c0-0.488-0.147-0.854-0.446-1.099c-0.301-0.243-0.749-0.366-1.35-0.366h-1.784V17.117z
		 M24.521,22.541h-3.147h-1.067V12.294h1.067h3.319c1.411,0,2.481,0.415,3.208,1.237c0.731,0.827,1.103,2.037,1.103,3.635
		c0,1.756-0.381,3.087-1.139,4.005C27.102,22.085,25.987,22.541,24.521,22.541z M24.254,20.779c0.869,0,1.519-0.296,1.956-0.885
		c0.437-0.589,0.651-1.467,0.651-2.645c0-1.062-0.203-1.861-0.607-2.389c-0.407-0.533-1.016-0.799-1.827-0.799h-1.983v6.72h1.81
		V20.779z M37.907,14.115v-0.918v-0.903h-7.291v10.247h1.072h1.067v-4.333h4.492V17.32v-0.878h-4.492v-2.327H37.907L37.907,14.115z"
		/>
</svg>
