<svg  viewBox="0 0 13 13" fill="none" xmlns="http://www.w3.org/2000/svg">
<path d="M6.64175 7.71264C6.78247 7.88689 6.99355 8 7.23522 8C7.65738 8 8 7.65761 8 7.23573C8 7.01257 7.90211 6.81386 7.74915 6.67323C7.7308 6.65184 7.70938 6.62738 7.68185 6.60598C7.68185 6.60598 4.08127 3.93105 4.00173 4.00136C3.92219 4.07167 6.61116 7.67595 6.61116 7.67595C6.61728 7.68818 6.63257 7.70041 6.64175 7.71264Z" fill="#A9A9A9" stroke="#979797"/>
<path d="M6.50529 1H6.5V3.96154H6.92308V1.45745C9.50913 1.67692 11.5584 3.85048 11.5584 6.49471C11.5584 9.28438 9.29231 11.5558 6.50264 11.5558C3.71298 11.5558 1.44423 9.28702 1.44423 6.49736C1.44423 5.1012 2.01274 3.83726 2.92764 2.92236L2.61298 2.61034C1.61611 3.60721 1 4.98221 1 6.5C1 9.53822 3.46178 12 6.5 12C9.53822 12 12 9.53822 12 6.5C12 3.46178 9.54086 1 6.50529 1Z" fill="#A9A9A9" stroke="#979797"/>
</svg>
