<svg width="12" height="13" viewBox="0 0 12 13" fill="none" xmlns="http://www.w3.org/2000/svg">
<path fill-rule="evenodd" clip-rule="evenodd" d="M8.89773 2.16667V1.1849C8.89773 0.538281 8.40341 0 7.72159 0H4.275C3.59659 0 3.10227 0.538281 3.10227 1.1849V2.16667H0V3.25H0.313636C0.313636 3.25 0.497727 3.27031 0.593182 3.3651C0.688636 3.4599 0.726136 3.66979 0.726136 3.66979L1.37386 11.8523L1.37487 11.872C1.42505 12.8497 1.43277 13 2.60114 13H9.39886C10.5674 13 10.575 12.853 10.6252 11.8749L10.6261 11.8557L11.2739 3.67656C11.2739 3.67656 11.3114 3.46328 11.4068 3.36849C11.5023 3.2737 11.6864 3.25339 11.6864 3.25339H12V2.17005H8.89773V2.16667ZM3.81818 1.1849C3.81818 0.859896 4.08409 0.677083 4.42159 0.677083H7.54773C7.88523 0.677083 8.18182 0.863281 8.18182 1.1849V2.16667H3.81818V1.1849ZM3.17727 4.33333L3.52841 10.8333H4.22727L3.86932 4.33333H3.17727ZM6.37841 10.8333H5.62841V4.33333H6.37841V10.8333ZM7.78295 10.8333H8.47841L8.83295 4.33333H8.14091L7.78295 10.8333Z" fill="#A3A3A3"/>
</svg>
