<svg width="50" height="50" viewBox="0 0 20 20" xmlns="http://www.w3.org/2000/svg" id="icon"><title>instagram [#167]</title><path d="M5.87.123C4.242.196 2.83.593 1.69 1.73.55 2.87.156 4.285.083 5.896c-.046 1.005-.314 8.6.462 10.593a5.04 5.04 0 0 0 2.91 2.903c.634.246 1.356.412 2.416.46 8.86.402 12.145.184 13.53-3.363.246-.63.415-1.353.462-2.41.405-8.883-.066-10.81-1.61-12.35C17.027.506 15.586-.326 5.87.122m.08 17.944c-.97-.043-1.495-.205-1.847-.34a3.255 3.255 0 0 1-1.888-1.884c-.59-1.514-.395-8.703-.342-9.866.05-1.14.282-2.18 1.086-2.985.994-.992 2.28-1.48 11.033-1.084 1.142.052 2.186.282 2.992 1.084.995.993 1.49 2.288 1.087 11.008-.044.968-.206 1.493-.342 1.843-.9 2.308-2.973 2.628-11.78 2.224M14.09 4.69c0 .657.534 1.19 1.194 1.19.66 0 1.195-.533 1.195-1.19a1.194 1.194 0 0 0-2.39 0M4.863 9.988a5.103 5.103 0 0 0 5.11 5.097 5.103 5.103 0 0 0 5.11-5.097 5.102 5.102 0 0 0-5.11-5.096 5.102 5.102 0 0 0-5.11 5.096m1.793 0A3.313 3.313 0 0 1 9.972 6.68a3.313 3.313 0 0 1 3.317 3.308 3.313 3.313 0 0 1-3.318 3.31 3.313 3.313 0 0 1-3.316-3.31" fill="#000" fill-rule="evenodd"/></svg>