<svg width="50" height="50" viewBox="0 0 20 20" xmlns="http://www.w3.org/2000/svg" id="icon"><title>link_round [#1110]</title><path d="M18.24 1.76a6.014 6.014 0 0 0-8.506 0L7.166 4.33l1.417 1.417 2.57-2.568a4.008 4.008 0 0 1 5.67 0 4.015 4.015 0 0 1 0 5.668l-2.57 2.57 1.417 1.417 2.57-2.57a6.014 6.014 0 0 0 0-8.504zM8.847 16.82a3.98 3.98 0 0 1-2.834 1.175A3.98 3.98 0 0 1 3.18 16.82a4.012 4.012 0 0 1 0-5.668l2.568-2.57L4.33 7.166l-2.57 2.57a6.015 6.015 0 0 0 8.507 8.504l2.568-2.57-1.418-1.418-2.57 2.57zm3.415-10.5l1.417 1.417-5.958 5.96-1.417-1.42 5.958-5.957z" fill="#000" fill-rule="evenodd"/></svg>