<svg width="50" height="50" viewBox="0 0 21 10" xmlns="http://www.w3.org/2000/svg" id="icon"><title>list [#1508]</title><path d="M1.575 8H.525A.513.513 0 0 0 0 8.5v1c0 .276.235.5.525.5h1.05c.29 0 .525-.224.525-.5v-1c0-.276-.235-.5-.525-.5m0-7.994H.525a.513.513 0 0 0-.525.5v1c0 .276.235.5.525.5h1.05c.29 0 .525-.224.525-.5v-1c0-.276-.235-.5-.525-.5m0 3.994H.525A.513.513 0 0 0 0 4.5v1c0 .276.235.5.525.5h1.05c.29 0 .525-.224.525-.5v-1c0-.276-.235-.5-.525-.5m18.9 4H4.725a.513.513 0 0 0-.525.5v1c0 .276.235.5.525.5h15.75c.29 0 .525-.224.525-.5v-1c0-.276-.235-.5-.525-.5m0-8H4.725A.513.513 0 0 0 4.2.5v1c0 .276.235.5.525.5h15.75c.29 0 .525-.224.525-.5v-1c0-.276-.235-.5-.525-.5M21 4.5v1c0 .276-.235.5-.525.5H4.725a.513.513 0 0 1-.525-.5v-1c0-.276.235-.5.525-.5h15.75c.29 0 .525.224.525.5" fill="#000" fill-rule="evenodd"/></svg>