<svg width="20" height="18" viewBox="0 0 20 18" fill="none" xmlns="http://www.w3.org/2000/svg">
<path d="M18.25 0.8125V2.1875V7.12891C19.1667 7.47266 19.625 8.11719 19.625 9.0625C19.625 10.0078 19.1667 10.6523 18.25 10.9961V15.9375V17.3125L17.1328 16.4961C16.2161 15.8372 15.099 15.1641 13.7812 14.4766C11.1745 13.1589 8.9401 12.5 7.07812 12.5H4.75781L5.875 16.4531L6.08984 17.3125H5.1875H2.4375H1.92188L1.75 16.7969L0.375 11.9844V11.8984V11.8125V6.3125V5.625H1.0625H7.07812C8.9974 5.625 11.2461 4.96615 13.8242 3.64844C14.3971 3.36198 14.9557 3.04688 15.5 2.70312C16.0729 2.35938 16.4883 2.10156 16.7461 1.92969L17.1328 1.62891L18.25 0.8125ZM16.875 3.39062C16.0156 3.96354 15.2135 4.45052 14.4688 4.85156C11.7474 6.25521 9.34115 6.97135 7.25 7V11.125C9.34115 11.1536 11.7331 11.8698 14.4258 13.2734C15.1992 13.6458 16.0156 14.1328 16.875 14.7344V11.125V10.4375V7.6875V7V3.39062ZM1.75 7V11.125H5.875V7H1.75ZM2.00781 12.5L2.95312 15.9375H4.24219L3.29688 12.5H2.00781Z" fill="currentColor"/>
</svg>
