<svg width="18" height="4" viewBox="0 0 18 4" fill="none" xmlns="http://www.w3.org/2000/svg">
<path d="M1.13672 0.804688C1.42318 0.518229 1.7526 0.375 2.125 0.375C2.4974 0.375 2.8125 0.518229 3.07031 0.804688C3.35677 1.0625 3.5 1.3776 3.5 1.75C3.5 2.1224 3.35677 2.45182 3.07031 2.73828C2.8125 2.99609 2.4974 3.125 2.125 3.125C1.7526 3.125 1.42318 2.99609 1.13672 2.73828C0.878906 2.45182 0.75 2.1224 0.75 1.75C0.75 1.3776 0.878906 1.0625 1.13672 0.804688ZM8.01172 0.804688C8.29818 0.518229 8.6276 0.375 9 0.375C9.3724 0.375 9.6875 0.518229 9.94531 0.804688C10.2318 1.0625 10.375 1.3776 10.375 1.75C10.375 2.1224 10.2318 2.45182 9.94531 2.73828C9.6875 2.99609 9.3724 3.125 9 3.125C8.6276 3.125 8.29818 2.99609 8.01172 2.73828C7.75391 2.45182 7.625 2.1224 7.625 1.75C7.625 1.3776 7.75391 1.0625 8.01172 0.804688ZM14.8867 0.804688C15.1732 0.518229 15.5026 0.375 15.875 0.375C16.2474 0.375 16.5625 0.518229 16.8203 0.804688C17.1068 1.0625 17.25 1.3776 17.25 1.75C17.25 2.1224 17.1068 2.45182 16.8203 2.73828C16.5625 2.99609 16.2474 3.125 15.875 3.125C15.5026 3.125 15.1732 2.99609 14.8867 2.73828C14.6289 2.45182 14.5 2.1224 14.5 1.75C14.5 1.3776 14.6289 1.0625 14.8867 0.804688Z" fill="#778CA2"/>
</svg>
