<svg width="398" height="320" viewBox="0 0 398 320" fill="none" xmlns="http://www.w3.org/2000/svg">
<path opacity="0.1" fill-rule="evenodd" clip-rule="evenodd" d="M230.992 36.5237C205.504 35.79 181.229 28.9367 158.065 21.438C134.9 13.9393 111.905 5.64546 87.027 1.67331C71.027 -0.881311 52.7298 -1.24242 39.8376 5.899C27.4294 12.7715 23.4227 24.638 21.2676 35.6517C19.6426 43.9341 18.6899 52.6543 23.1346 60.4066C26.2078 65.7847 31.6974 70.3139 35.4851 75.4692C48.6616 93.413 39.3497 115.536 25.0669 133.054C18.3672 141.271 10.5958 149.111 5.42509 157.859C0.254377 166.606 -2.12738 176.636 2.38643 185.548C6.8695 194.384 17.5528 201.034 29.1274 205.709C52.6337 215.197 80.3351 217.913 107.345 219.454C167.135 222.857 227.247 221.375 287.198 219.907C309.383 219.362 331.668 218.808 353.495 215.95C365.615 214.364 378.127 211.848 386.917 205.77C398.088 198.057 400.854 184.991 393.37 175.318C380.816 159.092 346.119 155.062 337.326 137.648C332.494 128.064 337.457 117.384 344.475 108.495C359.534 89.4255 384.777 72.6956 386.106 50.8988C387.016 35.9168 374.885 20.9348 356.123 13.851C336.458 6.42529 309.187 7.35879 294.658 19.6517C279.749 32.3057 253.496 37.1883 230.992 36.5237Z" fill="#9E4CF9"/>
<path opacity="0.041569" fill-rule="evenodd" clip-rule="evenodd" d="M167.277 319.468C228.963 319.468 278.969 314.426 278.969 308.205C278.969 301.984 228.963 296.942 167.277 296.942C105.591 296.942 55.584 301.984 55.584 308.205C55.584 314.426 105.591 319.468 167.277 319.468Z" fill="#4D7CFE"/>
<path d="M65.0995 306.983C65.0995 306.983 60.1439 278.905 41.7507 264.991C34.033 259.152 28.386 251.212 25.9197 242.169C24.759 237.884 24.0154 233.497 23.6993 229.069" stroke="#535461" stroke-width="2"/>
<path fill-rule="evenodd" clip-rule="evenodd" d="M12.167 220.234C13.7036 223.242 23.972 229.33 23.972 229.33C23.972 229.33 25.2628 217.956 23.7147 214.944C22.1665 211.932 18.3365 210.676 15.1403 212.136C11.9442 213.595 10.6189 217.222 12.167 220.234Z" fill="#9E4CF9"/>
<path fill-rule="evenodd" clip-rule="evenodd" d="M11.1874 241.281C14.2222 243.014 26.3384 242.86 26.3384 242.86C26.3384 242.86 20.8719 232.649 17.8486 230.917C14.8253 229.184 10.8724 230.099 9.03612 232.961C7.19987 235.823 8.15641 239.549 11.1874 241.281Z" fill="#9E4CF9"/>
<path fill-rule="evenodd" clip-rule="evenodd" d="M26.25 269.601C29.7919 269.651 40.1679 263.743 40.1679 263.743C40.1679 263.743 29.9917 257.535 26.446 257.481C22.9002 257.427 19.9845 260.101 19.9154 263.447C19.8462 266.793 22.7043 269.54 26.25 269.601Z" fill="#9E4CF9"/>
<path fill-rule="evenodd" clip-rule="evenodd" d="M42.7533 288.59C46.2337 289.208 57.5202 285.037 57.5202 285.037C57.5202 285.037 48.6001 277.284 45.1235 276.677C41.6469 276.07 38.2856 278.214 37.6325 281.518C36.9795 284.821 39.269 287.975 42.7533 288.59Z" fill="#9E4CF9"/>
<path fill-rule="evenodd" clip-rule="evenodd" d="M38.7619 237.889C37.5519 241.036 28.0056 248.089 28.0056 248.089C28.0056 248.089 25.4779 236.902 26.688 233.756C27.8981 230.61 31.5821 228.985 34.9127 230.126C38.2433 231.267 39.972 234.747 38.7619 237.889Z" fill="#9E4CF9"/>
<path fill-rule="evenodd" clip-rule="evenodd" d="M57.766 260.339C55.6148 263.002 44.2745 267.035 44.2745 267.035C44.2745 267.035 45.427 255.645 47.5629 252.987C49.8006 250.312 53.7201 249.81 56.5598 251.834C57.9036 252.76 58.7985 254.206 59.0277 255.822C59.2569 257.438 58.7993 259.076 57.766 260.339Z" fill="#9E4CF9"/>
<path fill-rule="evenodd" clip-rule="evenodd" d="M73.063 284.553C71.4188 287.518 60.966 293.304 60.966 293.304C60.966 293.304 60.0479 281.898 61.6921 278.932C63.3362 275.967 67.2124 274.822 70.3547 276.374C73.4971 277.926 74.7033 281.587 73.063 284.553Z" fill="#9E4CF9"/>
<path opacity="0.25" fill-rule="evenodd" clip-rule="evenodd" d="M12.167 220.234C13.7036 223.242 23.972 229.33 23.972 229.33C23.972 229.33 25.2628 217.956 23.7146 214.944C22.1665 211.932 18.3365 210.676 15.1403 212.136C11.9442 213.595 10.6188 217.222 12.167 220.234Z" fill="black"/>
<path opacity="0.25" fill-rule="evenodd" clip-rule="evenodd" d="M11.1874 241.281C14.2222 243.014 26.3384 242.86 26.3384 242.86C26.3384 242.86 20.8719 232.649 17.8486 230.917C14.8253 229.184 10.8724 230.099 9.03612 232.961C7.19987 235.823 8.15641 239.549 11.1874 241.281Z" fill="black"/>
<path opacity="0.25" fill-rule="evenodd" clip-rule="evenodd" d="M26.2501 269.601C29.792 269.651 40.1679 263.743 40.1679 263.743C40.1679 263.743 29.9917 257.535 26.446 257.481C22.9002 257.427 19.9845 260.101 19.9154 263.447C19.8462 266.793 22.7043 269.54 26.2501 269.601Z" fill="black"/>
<path opacity="0.25" fill-rule="evenodd" clip-rule="evenodd" d="M42.7533 288.59C46.2337 289.208 57.5202 285.037 57.5202 285.037C57.5202 285.037 48.6001 277.284 45.1235 276.677C41.6469 276.07 38.2856 278.214 37.6325 281.518C36.9795 284.821 39.269 287.975 42.7533 288.59Z" fill="black"/>
<path opacity="0.25" fill-rule="evenodd" clip-rule="evenodd" d="M38.7619 237.889C37.5519 241.036 28.0056 248.089 28.0056 248.089C28.0056 248.089 25.4779 236.902 26.688 233.756C27.8981 230.61 31.5821 228.985 34.9127 230.126C38.2433 231.267 39.972 234.747 38.7619 237.889Z" fill="black"/>
<path opacity="0.25" fill-rule="evenodd" clip-rule="evenodd" d="M57.766 260.339C55.6148 263.002 44.2745 267.035 44.2745 267.035C44.2745 267.035 45.427 255.645 47.5629 252.987C49.8006 250.312 53.7201 249.81 56.5598 251.834C57.9036 252.76 58.7985 254.206 59.0277 255.822C59.2569 257.438 58.7993 259.076 57.766 260.339Z" fill="black"/>
<path opacity="0.25" fill-rule="evenodd" clip-rule="evenodd" d="M73.063 284.553C71.4188 287.518 60.966 293.304 60.966 293.304C60.966 293.304 60.0479 281.898 61.6921 278.932C63.3362 275.967 67.2124 274.822 70.3547 276.374C73.4971 277.926 74.7033 281.587 73.063 284.553Z" fill="black"/>
<path d="M64.4772 306.246C64.4772 306.246 71.9951 278.679 61.1543 258.918C56.6059 250.628 54.8503 241.209 56.4791 231.997C57.2611 227.617 58.4639 223.322 60.0709 219.173" stroke="#535461" stroke-width="2"/>
<path fill-rule="evenodd" clip-rule="evenodd" d="M53.3175 206.685C53.4405 210.027 60.2054 219.519 60.2054 219.519C60.2054 219.519 66.2673 209.612 66.1444 206.266C66.0215 202.92 63.052 200.304 59.5101 200.419C55.9682 200.534 53.1908 203.339 53.3175 206.685Z" fill="#9E4CF9"/>
<path fill-rule="evenodd" clip-rule="evenodd" d="M43.391 225.554C45.4193 228.297 56.5598 232.792 56.5598 232.792C56.5598 232.792 55.9451 221.367 53.9168 218.62C51.7889 215.861 47.8946 215.206 44.9814 217.118C43.6015 217.985 42.6456 219.388 42.3437 220.989C42.0418 222.59 42.4214 224.245 43.391 225.554Z" fill="#9E4CF9"/>
<path fill-rule="evenodd" clip-rule="evenodd" d="M45.0044 257.197C48.2236 258.599 60.2477 257.17 60.2477 257.17C60.2477 257.17 53.6056 247.597 50.3864 246.195C47.1672 244.793 43.3564 246.118 41.8697 249.157C40.3831 252.195 41.7891 255.795 45.0044 257.197Z" fill="#9E4CF9"/>
<path fill-rule="evenodd" clip-rule="evenodd" d="M51.9384 280.88C54.8618 282.778 66.9665 283.281 66.9665 283.281C66.9665 283.281 62.1339 272.79 59.2143 270.896C56.2957 268.995 52.405 269.665 50.2904 272.432C49.3221 273.75 48.9493 275.413 49.2624 277.018C49.5755 278.622 50.5459 280.023 51.9384 280.88Z" fill="#9E4CF9"/>
<path fill-rule="evenodd" clip-rule="evenodd" d="M70.0551 233.003C67.5965 235.416 55.8414 238.216 55.8414 238.216C55.8414 238.216 58.3346 227.018 60.7893 224.605C63.3084 222.191 67.2597 222.118 69.8669 224.436C71.0884 225.513 71.8038 227.051 71.8396 228.678C71.8754 230.306 71.2282 231.874 70.0551 233.003Z" fill="#9E4CF9"/>
<path fill-rule="evenodd" clip-rule="evenodd" d="M77.7766 260.796C74.6688 262.406 62.5718 261.757 62.5718 261.757C62.5718 261.757 68.4993 251.769 71.6071 250.171C74.7149 248.573 78.6179 249.637 80.3197 252.572C82.0215 255.507 80.8997 259.187 77.7766 260.796Z" fill="#9E4CF9"/>
<path fill-rule="evenodd" clip-rule="evenodd" d="M81.3838 288.786C78.6064 290.868 66.567 292.159 66.567 292.159C66.567 292.159 70.6236 281.376 73.4011 279.293C76.2012 277.216 80.1287 277.642 82.4172 280.273C83.472 281.514 83.9602 283.139 83.764 284.756C83.5677 286.372 82.7048 287.833 81.3838 288.786Z" fill="#9E4CF9"/>
<path fill-rule="evenodd" clip-rule="evenodd" d="M379.983 141.764C380.472 142.877 381.324 144.82 381.158 145.274C381.065 145.528 381.348 146.127 381.675 146.821C382.159 147.847 382.741 149.08 382.349 149.711C381.826 150.634 381.363 151.59 380.962 152.573C380.962 152.573 378.25 157.724 376.867 158.7C375.484 159.676 369.142 167.862 369.142 167.862C369.142 167.862 362.338 175.653 362.338 178.058C362.338 178.058 361.954 177.42 361.32 176.463L362.335 193.635C362.335 193.635 359.972 195.636 359.453 195.867C357.033 197.526 352.938 194.895 352.304 194.376C351.97 194.1 349.704 194.173 347.694 194.3C348.14 203.592 346.254 205.375 346.254 205.375L346.027 213.442C346.027 213.442 346.319 225.758 345.451 227.702C344.583 229.645 344.583 237.494 344.583 237.494C344.583 237.494 345.159 241.212 344.525 242.015C343.891 242.818 344.356 245.803 344.817 247.34C345.278 248.876 344.871 252.718 344.871 252.718L344.756 274.365C344.756 274.365 344.126 279.973 343.315 280.78C342.842 281.261 342.665 281.961 342.854 282.609C342.854 282.609 342.163 285.813 342.336 286.389C342.508 286.965 342.858 288.279 341.529 288.909C340.2 289.539 340.545 291.544 340.545 291.544C340.405 291.511 340.262 291.486 340.119 291.467C340.157 291.702 340.203 291.944 340.257 292.174C340.323 292.603 340.481 293.013 340.718 293.377C341.298 294.007 341.644 296.811 341.644 296.811C341.644 296.811 343.718 300.933 343.488 301.851C343.319 302.535 343.112 303.764 343.015 304.344C342.969 304.54 342.969 304.659 342.969 304.659C342.969 304.659 341.817 307.179 335.417 308.094C329.017 309.008 329.017 305.973 329.017 305.973C329.017 305.973 329.04 305.646 329.082 305.159C329.101 304.96 329.122 304.735 329.144 304.493C329.272 303.103 329.449 301.171 329.593 300.706C329.804 299.961 329.42 296.696 329.42 296.696L329.351 293.284V292.604C328.756 292.724 328.398 292.804 328.398 292.804C327.425 290.81 326.577 288.757 325.859 286.658C325.548 285.799 325.623 284.847 326.064 284.047C326.506 283.247 327.271 282.677 328.164 282.482C329.378 282.298 327.3 280.177 327.3 280.177C327.3 280.177 327.53 279.889 326.954 277.83C326.395 275.833 327.029 270.814 327.225 269.259L327.242 269.125C327.415 267.75 328.279 261.108 328.279 261.108C328.279 261.108 327.818 252.687 328.164 252.345C328.51 252.003 329.67 248.68 329.09 247.593C328.51 246.506 327.588 239.349 327.588 238.946C327.588 238.542 326.839 229.265 326.839 229.265C326.839 229.265 326.155 222.831 326.328 221.455C326.501 220.08 325.867 214.982 325.867 214.982C325.867 210.73 323.389 206.147 323.389 206.147L323.328 206.312L317.949 220.295C317.949 220.295 317.104 224.532 316.336 226.937C315.857 228.579 315.476 230.248 315.195 231.935L315.145 232.239C315.138 232.28 315.13 232.319 315.122 232.356C315.106 232.436 315.091 232.505 315.091 232.565L315.057 232.792C315.057 232.792 315.46 235.83 314.826 236.802C314.192 237.774 313.501 240.694 313.501 241.497C313.501 242.3 313.555 245.392 313.555 245.392C313.555 245.392 313.808 251.519 313.171 252.207C312.533 252.894 312.879 253.467 312.879 253.467C312.879 253.467 313.893 258.077 313.432 259.279C312.971 260.482 313.317 263.286 313.317 263.286C313.317 263.286 312.398 272.164 312.279 272.621C312.16 273.078 311.523 276.635 312.218 276.919C312.913 277.204 314.235 278.921 314.235 278.921C314.235 278.921 314.527 286.416 313.489 286.988C312.452 287.561 313.025 290.484 313.025 290.484L312.583 290.565L312.594 290.623C312.633 290.817 312.675 291.023 312.71 291.229C312.873 291.903 312.942 292.596 312.913 293.288C312.841 293.8 312.987 294.319 313.317 294.717L313.574 297.057L313.662 297.871C313.662 297.871 308.822 301.017 306.398 300.56C303.974 300.103 301.492 301.363 301.492 301.363C299.821 303.175 297.718 304.535 295.38 305.316C291.458 306.622 285.984 306.115 282.869 305.086C281.393 304.598 281.278 303.96 281.989 303.192C282.737 302.37 284.405 301.386 286.365 300.229C286.468 300.168 286.571 300.107 286.676 300.046C290.655 297.698 294.919 293.058 294.919 293.058C294.919 293.058 294.992 291.913 295.688 291.398C296.109 291.033 296.494 290.629 296.84 290.192L297.174 289.808L296.79 289.75L297.366 287.868C297.332 287.933 296.952 288.544 296.675 286.201C296.391 283.738 298.811 284.941 298.811 284.941C298.811 284.941 300.712 285.405 297.658 282.424C294.604 279.443 296.083 276.409 296.276 276.409C296.468 276.409 296.852 272.002 296.852 272.002C296.852 272.002 297.366 269.367 296.967 267.304C296.567 265.241 296.222 258.83 296.222 258.83C296.222 258.83 296.506 253.966 295.987 252.188C295.512 250.558 296.198 247.732 296.449 246.697C296.472 246.602 296.491 246.522 296.506 246.46C296.679 245.715 295.987 238.9 295.987 238.9C295.987 238.9 296.567 235.7 296.222 233.349C295.876 230.998 296.567 222.35 296.567 222.35L297.639 212.416C297.639 212.416 298.388 209.324 298.273 208.064C298.158 206.804 299.137 202.394 299.137 202.394C299.08 201.455 299.238 200.515 299.598 199.647C299.831 199.076 299.987 198.476 300.063 197.864C298.4 196.631 297.409 194.434 297.409 194.434C297.281 194.216 297.164 193.992 297.059 193.762L297.981 189.87C297.981 189.87 298.039 184.484 298.615 183.455C299.191 182.425 299.537 179.448 299.537 179.448C299.537 179.448 300.597 172.887 300.782 171.473C300.58 171.437 300.373 171.437 300.171 171.473C300.171 171.473 300.225 171.204 300.317 170.755C300.152 170.743 299.987 170.753 299.825 170.785C299.825 170.785 302.307 158.347 303.632 155.55C304.957 152.753 304.727 145.07 304.727 145.07C304.727 145.07 302.13 145.873 302.015 146.561C301.9 147.248 298.557 151.885 298.557 151.885C298.557 151.885 297.793 154.693 294.332 156.526C290.87 158.358 287.067 156.18 286.491 155.439C285.972 154.766 275.888 150.345 273.868 149.465L273.514 149.311L273.537 149.192V149.131L273.153 148.969L273.537 149.088C273.591 148.843 273.699 148.401 273.86 147.825C273.878 147.804 273.879 147.792 273.88 147.773C273.882 147.76 273.883 147.743 273.891 147.717C273.9 147.689 273.905 147.668 273.911 147.645C273.919 147.616 273.928 147.583 273.945 147.529C273.953 147.501 273.962 147.474 273.971 147.445C273.994 147.37 274.018 147.292 274.041 147.214L274.075 147.099C274.088 147.058 274.102 147.018 274.115 146.977C274.138 146.909 274.161 146.84 274.183 146.768C274.202 146.753 274.202 146.718 274.202 146.718C274.375 146.188 274.586 145.608 274.836 145.009L273.353 143.088L273.176 142.957L266.281 136.515C265.053 135.371 264.36 133.766 264.368 132.088C264.376 130.41 265.085 128.812 266.323 127.68C266.977 127.077 267.268 127.863 267.366 128.126C267.379 128.16 267.388 128.186 267.395 128.198C271.72 128.728 279.085 135.643 279.085 135.643L279.991 136.65L280.329 137.034C280.404 136.725 280.372 136.4 280.237 136.112C280.03 135.804 281.474 137.149 282.158 137.794C282.157 137.787 282.157 137.779 282.158 137.771C282.165 137.787 282.174 137.803 282.185 137.817L282.504 138.117C283.541 139.949 288.097 140.979 288.097 140.979L290.056 139.777C290.229 137.545 293.402 134.909 293.402 134.909C293.402 134.909 294.339 133.876 294.843 131.644C295.346 129.412 297.267 129.696 297.267 129.696L297.497 126.435C297.497 126.435 299.207 125.513 299.034 123.684C298.861 121.856 300.878 118.306 300.878 118.306C300.878 118.306 301.784 117.964 301.972 114.353C302.161 110.742 303.893 110.512 303.893 110.512L308.795 110.227C309.198 108.852 319.694 107.193 319.694 107.193C319.694 107.193 321.537 106.501 322.517 105.015C323.497 103.528 324.538 104.043 324.538 104.043L324.691 104.192C324.686 104.142 324.68 104.098 324.674 104.051C324.668 104.002 324.661 103.95 324.653 103.881C324.647 103.831 324.639 103.781 324.63 103.732C324.616 103.652 324.603 103.574 324.603 103.497C319.976 101.199 317.047 96.4817 317.039 91.3156V91.1197V90.7701C316.668 90.9446 316.282 91.0873 315.887 91.1965C315.791 91.2234 315.691 91.2465 315.595 91.2657C315.208 91.3477 314.813 91.3787 314.419 91.3579C314.378 91.3547 314.338 91.349 314.298 91.3434C314.241 91.3352 314.184 91.3271 314.127 91.3271C313.957 91.3033 313.788 91.266 313.624 91.2157L313.543 91.1965C313.601 91.0121 313.666 90.8354 313.731 90.6587C314.299 89.1037 315.185 87.6841 316.332 86.4906C316.599 86.2566 316.817 85.972 316.974 85.6532C317.078 85.3715 317.095 85.0651 317.024 84.7735C316.894 84.3125 316.715 83.8669 316.49 83.4443L316.444 83.3367L316.386 83.2061C316.378 83.1866 316.371 83.1673 316.363 83.148C316.336 83.0802 316.31 83.0137 316.286 82.9449C316.284 82.9296 316.284 82.9141 316.286 82.8988C316.281 82.8848 316.276 82.8693 316.271 82.8531C316.245 82.7759 316.213 82.6828 316.213 82.6606V82.58C316.191 82.485 316.174 82.3888 316.163 82.2918C316.155 82.1895 316.155 82.0868 316.163 81.9845C316.163 81.9718 316.162 81.9609 316.161 81.9497C316.16 81.9271 316.158 81.904 316.163 81.8654C316.171 81.8078 316.182 81.7425 316.194 81.6926C316.203 81.6523 316.215 81.6095 316.225 81.5723C316.228 81.5633 316.23 81.5547 316.232 81.5466C316.237 81.5308 316.243 81.5156 316.249 81.5005C316.26 81.4751 316.271 81.4501 316.271 81.4236C316.49 80.8527 316.858 80.3503 317.335 79.9677C317.633 79.7202 317.955 79.5059 318.276 79.2918C318.688 79.0174 319.099 78.7434 319.459 78.4004C320.188 77.7082 320.672 76.7816 321.154 75.8575C321.687 74.8378 322.218 73.8212 323.074 73.1259C324.492 71.9735 326.443 71.9927 328.206 72.2385C328.455 72.2731 328.704 72.311 328.954 72.3489C330.48 72.5802 332.031 72.8153 333.496 72.3499C334.169 72.1345 334.79 71.7793 335.412 71.4237C335.965 71.1071 336.519 70.7902 337.111 70.5713C339.739 69.5917 342.935 70.894 344.291 73.4986C344.749 74.3838 345.003 75.3524 345.258 76.3213C345.454 77.0678 345.65 77.8145 345.939 78.5233C346.156 79.0572 346.424 79.5646 346.691 80.0717C346.963 80.5864 347.234 81.1009 347.452 81.6426C347.953 82.926 348.149 84.3081 348.025 85.6801C348.006 85.9221 347.971 86.1603 347.933 86.3984C347.928 86.428 347.921 86.4575 347.914 86.4871C347.902 86.5344 347.89 86.5816 347.89 86.6289C347.856 86.8018 347.817 86.9747 347.775 87.1437L347.718 87.3588C347.652 87.5932 347.572 87.8429 347.491 88.0541C347.41 88.2654 347.322 88.4767 347.226 88.6803C347.014 89.1378 346.775 89.5844 346.537 90.0303C346.026 90.9846 345.518 91.9355 345.282 92.9828C345.201 93.3827 345.14 93.7867 345.101 94.1929C345.097 94.2246 345.091 94.2564 345.086 94.2882C345.073 94.3643 345.059 94.4409 345.059 94.5194C345.059 94.5347 345.06 94.5457 345.062 94.5568C345.064 94.5794 345.067 94.6024 345.059 94.6616C345.048 94.7499 345.028 94.8767 345.021 94.9228C345.017 94.9438 345.015 94.9576 345.011 94.9748C345.007 94.9953 345.002 95.0206 344.994 95.0688C344.99 95.0919 344.986 95.1178 344.982 95.1444C344.971 95.2194 344.96 95.2988 344.94 95.33C344.913 95.3723 344.913 95.4184 344.913 95.4606C344.882 95.5951 344.844 95.7218 344.802 95.8448C344.601 96.4747 344.161 97.0004 343.576 97.3084C343.56 97.3148 343.543 97.3233 343.526 97.3319C343.493 97.349 343.46 97.366 343.427 97.366C343.302 97.4046 343.173 97.4253 343.042 97.4275C343.034 97.4455 343.025 97.4636 343.016 97.4818C342.971 97.5761 342.925 97.6722 342.873 97.7655C342.294 98.8393 341.573 99.8303 340.73 100.712C340.865 101.227 341.04 101.73 341.252 102.218L341.275 102.26C341.29 102.284 341.312 102.32 341.341 102.367C341.665 102.898 342.806 104.765 343.446 105.253L345.92 107.143C345.92 107.143 348.401 108.295 349.266 108.295C350.13 108.295 354.801 109.498 355.381 110.128C355.658 110.348 356.004 110.463 356.357 110.45C356.764 110.424 357.17 110.374 357.571 110.3L357.802 110.373C358.074 110.335 358.263 110.3 358.263 110.3C358.263 110.3 360.16 110.946 361.835 111.33C363.51 111.714 364.317 114.469 363.971 115.556C363.69 116.656 363.996 117.824 364.782 118.644C365.473 119.332 365.819 121.564 365.819 121.564C366.666 121.84 367.371 122.437 367.782 123.227C368.181 124.095 368.208 125.686 368.208 126.577C368.185 126.973 368.185 127.234 368.185 127.234C368.193 127.234 371.646 127.295 371.992 130.157C372.338 133.019 375.507 134.337 375.507 134.337C375.507 134.337 377.874 136.684 377.874 137.771C377.874 138.549 378.787 139.766 379.307 140.459C379.515 140.736 379.66 140.93 379.66 140.979C379.66 141.027 379.794 141.334 379.983 141.764ZM360.856 156.276C360.898 155.408 364.547 151.455 366.276 151.282C366.276 151.282 366.553 148.954 365.803 148.896C365.054 148.839 364.421 147.006 364.421 147.006C364.421 147.006 360.798 142.769 359.645 139.177L359.584 139.266C359.584 139.266 359.703 143.902 359.354 144.932C359.154 145.531 359.596 151.697 360.003 156.756C360.018 156.958 360.034 157.158 360.05 157.356C360.063 157.509 360.076 157.662 360.087 157.813C360.445 157.336 360.829 156.729 360.856 156.276Z" fill="url(#paint0_linear)"/>
<path fill-rule="evenodd" clip-rule="evenodd" d="M273.826 149.98C273.826 149.98 275.927 138.954 282.692 138.897L287.636 149.069L284.34 151.343C284.34 151.343 277.179 151.57 273.826 149.98Z" fill="#65617D"/>
<path opacity="0.1" fill-rule="evenodd" clip-rule="evenodd" d="M287.636 149.069L284.34 151.343C284.34 151.343 279.3 151.505 275.696 150.617C275.054 150.465 274.427 150.251 273.826 149.98C273.826 149.98 273.826 149.918 273.864 149.803C273.864 149.803 273.864 149.776 273.864 149.761C274.174 148.377 274.602 147.022 275.143 145.712C275.354 145.216 275.589 144.705 275.842 144.194C276.833 142.274 278.224 140.422 280.13 139.496C280.834 139.15 281.601 138.95 282.385 138.908H282.584H282.684L282.792 139.135L284.463 142.569L287.636 149.069Z" fill="black"/>
<path fill-rule="evenodd" clip-rule="evenodd" d="M343.784 194.876C343.784 194.876 350.891 194.196 351.513 194.707C352.135 195.218 356.173 197.83 358.562 196.182C360.952 194.534 359.357 188.795 359.357 188.568C359.357 188.341 359.131 180.213 359.131 180.213L354.867 174.473L349.527 164.416L338.617 163.333L338.901 179.306L338.844 187.488L343.784 194.876Z" fill="#65617D"/>
<path opacity="0.1" fill-rule="evenodd" clip-rule="evenodd" d="M343.784 194.876C343.784 194.876 350.891 194.196 351.513 194.707C352.135 195.218 356.173 197.83 358.562 196.182C360.952 194.534 359.357 188.795 359.357 188.568C359.357 188.341 359.131 180.213 359.131 180.213L354.867 174.473L349.527 164.416L338.617 163.333L338.901 179.306L338.844 187.488L343.784 194.876Z" fill="black"/>
<path fill-rule="evenodd" clip-rule="evenodd" d="M281.27 138.605C281.27 138.605 280.702 145.539 276.384 145.65C276.384 145.65 275.159 144.913 273.511 143.683C269.715 140.845 263.695 135.386 265.359 130.307C267.744 123.035 279.338 136.454 279.338 136.454L280.226 137.452L281.27 138.605Z" fill="#FBBEBE"/>
<path opacity="0.1" fill-rule="evenodd" clip-rule="evenodd" d="M281.27 138.605C281.27 138.605 280.702 145.539 276.384 145.65C276.384 145.65 275.159 144.913 273.511 143.683L273.146 143.211C273.879 143.593 274.686 143.811 275.512 143.849C276.842 143.902 278.065 143.126 278.585 141.901C279.039 141.009 279.438 140.091 279.78 139.15C279.99 138.602 280.14 138.033 280.226 137.452L281.27 138.605Z" fill="black"/>
<path fill-rule="evenodd" clip-rule="evenodd" d="M279.396 151.174L278.424 149.922L275.151 145.696L273.484 143.541C274.216 143.925 275.024 144.143 275.85 144.179C276.937 144.206 278.155 143.795 278.923 142.235C279.377 141.342 279.776 140.422 280.118 139.481C280.656 137.944 280.648 137.176 280.456 136.895C280.264 136.615 281.662 137.925 282.335 138.563L282.358 138.586L282.673 138.881L282.788 139.112L284.436 142.404C284.436 142.404 284.436 142.45 284.436 142.542C284.597 143.599 285.154 150.233 279.396 151.174Z" fill="#E7EFFD"/>
<path fill-rule="evenodd" clip-rule="evenodd" d="M313.439 297.456C313.439 297.456 308.664 300.583 306.279 300.145C303.893 299.707 301.446 300.944 301.446 300.944C299.801 302.741 297.727 304.09 295.419 304.867C291.577 306.173 286.161 305.658 283.091 304.636C281.639 304.152 281.52 303.53 282.219 302.758C282.988 301.897 284.778 300.864 286.829 299.634C290.751 297.306 294.954 292.72 294.954 292.72C294.954 292.72 295.012 291.567 295.695 291.075C296.116 290.713 296.502 290.312 296.848 289.877C297.459 289.155 298.031 288.402 298.031 288.402L312.076 288.809C312.076 288.809 312.314 289.819 312.502 290.853C312.662 291.523 312.728 292.212 312.698 292.9C312.625 293.405 312.764 293.918 313.082 294.318L313.336 296.623L313.439 297.456Z" fill="#65617D"/>
<path fill-rule="evenodd" clip-rule="evenodd" d="M342.82 301.379C342.651 302.058 342.435 303.276 342.355 303.849L342.305 304.164C342.305 304.164 341.152 306.664 334.864 307.575C328.575 308.485 328.556 305.47 328.556 305.47C328.556 305.47 328.579 305.147 328.617 304.659C328.729 303.33 328.955 300.783 329.124 300.241C329.347 299.504 328.952 296.262 328.952 296.262L328.886 292.877L328.836 290.526L339.297 289.443C339.361 290.225 339.474 291.003 339.635 291.771C339.699 292.198 339.855 292.605 340.092 292.966C340.661 293.592 340.999 296.377 340.999 296.377C340.999 296.377 343.046 300.468 342.82 301.379Z" fill="#65617D"/>
<path opacity="0.1" fill-rule="evenodd" clip-rule="evenodd" d="M312.076 288.809C312.076 288.809 312.314 289.819 312.502 290.853C310.985 291.133 304.354 292.282 302.699 291.479C300.82 290.568 296.786 290.057 296.786 290.057L296.852 289.827C297.463 289.105 298.035 288.352 298.035 288.352L312.076 288.809Z" fill="black"/>
<path opacity="0.1" fill-rule="evenodd" clip-rule="evenodd" d="M339.635 291.771C336.984 291.321 331.184 292.409 328.879 292.877L328.829 290.526L339.289 289.443C339.356 290.225 339.472 291.003 339.635 291.771Z" fill="black"/>
<path fill-rule="evenodd" clip-rule="evenodd" d="M345.532 205.617L345.305 213.63C345.305 213.63 345.589 225.85 344.736 227.782C343.884 229.715 343.884 237.501 343.884 237.501C343.884 237.501 344.452 241.193 343.826 241.988C343.2 242.783 343.657 245.738 344.11 247.274C344.564 248.811 344.168 252.618 344.168 252.618L344.053 274.1C344.053 274.1 343.43 279.666 342.631 280.465C342.165 280.945 341.992 281.639 342.178 282.282C342.178 282.282 341.498 285.463 341.667 286.035C341.836 286.608 342.178 287.91 340.872 288.532C339.566 289.155 339.904 291.148 339.904 291.148C336.781 290.407 327.914 292.401 327.914 292.401C326.956 290.426 326.121 288.394 325.414 286.316C325.105 285.465 325.177 284.522 325.612 283.729C326.048 282.935 326.804 282.367 327.688 282.171C328.879 281.998 326.835 279.897 326.835 279.897C326.835 279.897 327.062 279.612 326.493 277.569C325.924 275.525 326.604 270.27 326.777 268.925C326.95 267.581 327.799 260.969 327.799 260.969C327.799 260.969 327.346 252.618 327.688 252.276C328.03 251.934 329.163 248.638 328.598 247.559C328.033 246.479 327.115 239.376 327.115 238.977C327.115 238.577 326.382 229.373 326.382 229.373C326.382 229.373 325.698 222.95 325.871 221.586C326.044 220.222 325.414 215.167 325.414 215.167C325.414 210.941 322.97 206.412 322.97 206.412L322.909 206.577L317.642 220.453C317.642 220.453 316.789 224.655 316.052 227.041C315.585 228.663 315.215 230.311 314.942 231.977L314.892 232.281C314.892 232.407 314.853 232.515 314.842 232.6L314.807 232.83C314.807 232.83 315.191 235.842 314.577 236.81C313.962 237.778 313.27 240.674 313.27 241.47C313.27 242.265 313.328 245.334 313.328 245.334C313.328 245.334 313.555 251.415 312.944 252.099C312.333 252.783 312.656 253.348 312.656 253.348C312.656 253.348 313.678 257.958 313.224 259.145C312.771 260.332 313.113 263.121 313.113 263.121C313.113 263.121 312.202 271.933 312.091 272.386C311.98 272.84 311.35 276.366 312.033 276.65C312.717 276.935 314.02 278.637 314.02 278.637C314.02 278.637 314.308 286.085 313.282 286.65C312.256 287.215 312.825 290.107 312.825 290.107C312.825 290.107 304.589 291.698 302.714 290.787C300.839 289.877 296.802 289.366 296.802 289.366L297.366 287.499C297.332 287.564 296.955 288.171 296.687 285.843C296.406 283.4 298.792 284.591 298.792 284.591C298.792 284.591 300.666 285.048 297.639 282.094C294.612 279.14 296.103 276.124 296.275 276.124C296.448 276.124 296.848 271.753 296.848 271.753C296.848 271.753 297.359 269.136 296.959 267.089C296.56 265.041 296.222 258.676 296.222 258.676C296.222 258.676 296.506 253.847 295.995 252.088C295.484 250.328 296.333 247.14 296.506 246.402C296.679 245.665 295.976 238.919 295.976 238.919C295.976 238.919 296.544 235.738 296.203 233.41C295.861 231.082 296.544 222.496 296.544 222.496L297.566 212.608C297.566 212.608 298.304 209.535 298.192 208.286C298.081 207.038 299.049 202.662 299.049 202.662C298.991 201.731 299.146 200.798 299.502 199.935C300.071 198.783 300.298 195.049 300.298 195.049L305.756 182.544L308.445 171.519L344.529 171.177C344.529 171.177 344.663 172.134 344.882 173.866C345.101 175.599 345.409 178.173 345.751 181.35C346.066 184.235 346.411 187.627 346.746 191.403C347.837 203.458 345.532 205.617 345.532 205.617Z" fill="#3F3D56"/>
<path fill-rule="evenodd" clip-rule="evenodd" d="M342.193 106.105L333.78 115.087C333.78 115.087 322.986 110.765 324.123 109.29C324.561 108.718 324.507 106.912 324.238 104.922C323.854 101.772 322.986 98.1496 322.986 98.1496C322.986 98.1496 341.851 95.0764 340.273 98.261C339.693 99.4135 339.792 100.781 340.154 102.037C340.611 103.494 341.299 104.868 342.193 106.105Z" fill="#FBBEBE"/>
<path opacity="0.1" fill-rule="evenodd" clip-rule="evenodd" d="M340.261 98.2688C339.681 99.4212 339.404 99.5442 339.766 100.8C337.299 103.439 334.161 106.336 330.258 106.336C328.169 106.339 326.108 105.857 324.238 104.926C323.854 101.776 322.986 98.1535 322.986 98.1535C322.986 98.1535 341.851 95.0803 340.261 98.2688Z" fill="black"/>
<path fill-rule="evenodd" clip-rule="evenodd" d="M343.788 92.4642C343.663 99.8467 337.643 105.766 330.26 105.766C322.876 105.766 316.856 99.8467 316.732 92.4642C316.732 92.3989 316.732 92.3336 316.732 92.2722C316.785 84.8019 322.884 78.7891 330.354 78.8421C337.824 78.8952 343.837 84.994 343.784 92.4642H343.788Z" fill="#FBBEBE"/>
<path opacity="0.1" fill-rule="evenodd" clip-rule="evenodd" d="M345.743 181.699C343.953 181.699 337.987 181.765 331.318 181.868H331.237L329.036 181.907H328.967C321.061 182.033 313.267 180.489 310.143 180.781C303.498 181.403 312.533 174.635 312.533 174.635C317.488 175.839 322.584 176.356 327.68 176.171L329.601 176.071C335.64 175.73 341.713 175.161 344.886 174.208C345.098 175.968 345.401 178.522 345.743 181.699Z" fill="black"/>
<path fill-rule="evenodd" clip-rule="evenodd" d="M345.743 181.357C343.953 181.357 337.987 181.423 331.318 181.526H331.237L329.036 181.565H328.967C321.061 181.692 313.267 180.147 310.143 180.439C303.498 181.065 312.533 174.293 312.533 174.293C317.488 175.497 322.584 176.014 327.68 175.829L329.601 175.73C335.64 175.388 341.713 174.819 344.886 173.87C345.098 175.63 345.401 178.173 345.743 181.357Z" fill="#5F5D7E"/>
<path opacity="0.1" fill-rule="evenodd" clip-rule="evenodd" d="M326.624 109.855L316.167 114.745L308.1 177.143C308.1 177.143 312.871 174.984 315.602 176.348C318.334 177.712 326.743 176.463 326.743 176.463C326.743 176.463 332.889 176.121 333.792 176.805C334.695 177.489 345.378 173.947 345.378 173.947C345.378 173.947 347.299 169.629 345.831 168.953C344.364 168.277 346.3 161.573 346.3 161.573L345.378 116.562L343.557 110.765L338.671 107.811L333.677 111.787L331.291 112.129L326.624 109.855Z" fill="black"/>
<path fill-rule="evenodd" clip-rule="evenodd" d="M326.624 109.175L316.167 114.061L308.1 176.463C308.1 176.463 312.871 174.304 315.602 175.668C318.334 177.032 326.743 175.779 326.743 175.779C326.743 175.779 332.889 175.441 333.792 176.121C334.695 176.801 345.386 173.279 345.386 173.279C345.386 173.279 347.306 168.961 345.839 168.285C344.372 167.608 346.3 160.886 346.3 160.886L345.378 115.878L343.557 110.085L338.671 107.127L333.677 111.107L331.291 111.449L326.624 109.175Z" fill="#E7EFFD"/>
<path opacity="0.1" fill-rule="evenodd" clip-rule="evenodd" d="M326.451 112.071C326.451 112.071 329.463 115.652 329.409 116.393C329.355 117.135 329.236 118.894 329.236 118.894L326.962 123.504C326.962 123.504 325.713 129.243 325.713 130.438C325.713 131.633 323.723 141.962 323.723 141.962L321.33 157.878L318.318 178.737L321.391 184.02L325.026 180.946L329.858 143.776L330.88 136.446C330.88 136.446 331.96 123.262 331.96 121.898C331.96 120.534 331.337 116.954 331.337 116.954C331.337 116.954 332.075 113.543 335.144 112.728C338.214 111.914 334.918 112.555 334.918 112.555L333.154 111.138L331.618 111.76C331.618 111.76 327.361 110.481 326.451 112.071Z" fill="black"/>
<path fill-rule="evenodd" clip-rule="evenodd" d="M326.109 111.733C326.109 111.733 329.124 115.314 329.067 116.051C329.009 116.789 328.894 118.552 328.894 118.552L326.624 123.162C326.624 123.162 325.371 128.901 325.371 130.096C325.371 131.291 323.381 141.62 323.381 141.62L320.996 157.532L317.984 178.392L321.057 183.678L324.695 180.604L329.524 143.438L330.55 136.112C330.55 136.112 331.629 122.928 331.629 121.564C331.629 120.2 331.007 116.62 331.007 116.62C331.007 116.62 331.744 113.208 334.814 112.413C337.883 111.618 334.587 112.244 334.587 112.244L332.824 110.823L331.287 111.449C331.287 111.449 327.019 110.139 326.109 111.733Z" fill="#9E4CF9"/>
<path opacity="0.1" fill-rule="evenodd" clip-rule="evenodd" d="M324.123 105.764C324.123 105.764 323.666 106.105 323.554 108.38C323.443 110.654 321.849 115.767 321.849 115.767C321.849 115.767 327.761 111.676 330.715 112.129L324.123 105.764Z" fill="black"/>
<path fill-rule="evenodd" clip-rule="evenodd" d="M324.123 105.084C324.123 105.084 323.666 105.422 323.554 107.696C323.443 109.97 321.849 115.083 321.849 115.083C321.849 115.083 327.761 110.992 330.715 111.449L324.123 105.084Z" fill="#E7EFFD"/>
<path opacity="0.1" fill-rule="evenodd" clip-rule="evenodd" d="M340.261 103.947L330.934 112.129C330.934 112.129 338.778 116.789 339.8 117.926C340.822 119.063 341.844 106.785 341.844 106.785L340.261 103.947Z" fill="black"/>
<path fill-rule="evenodd" clip-rule="evenodd" d="M340.603 103.263L331.283 111.449C331.283 111.449 339.124 116.109 340.154 117.246C341.183 118.383 342.197 106.105 342.197 106.105L340.603 103.263Z" fill="#E7EFFD"/>
<path opacity="0.1" fill-rule="evenodd" clip-rule="evenodd" d="M324.461 105.764C324.461 105.764 323.439 105.253 322.475 106.732C321.765 107.696 320.8 108.443 319.69 108.891C319.69 108.891 309.344 110.539 308.933 111.902L304.101 112.187C304.101 112.187 302.395 112.413 302.226 115.994C302.057 119.574 301.147 119.916 301.147 119.916C301.147 119.916 299.157 123.438 299.33 125.255C299.502 127.073 297.793 127.987 297.793 127.987L304.896 146.457C304.896 146.457 305.126 154.071 303.816 156.856C302.506 159.641 300.067 171.972 300.067 171.972C300.067 171.972 301.089 171.746 301.031 172.426C300.974 173.106 299.817 180.554 299.817 180.554C299.817 180.554 299.475 183.509 298.907 184.534C298.338 185.56 298.281 190.896 298.281 190.896L297.374 194.76C297.374 194.76 299.533 199.593 302.829 198.909C306.125 198.225 312.091 185.329 312.091 185.329L315.902 171.404L318.856 157.651L319.709 148.332L321.073 127.703L323.063 114.061C323.063 114.061 325.26 106.72 324.461 105.764Z" fill="black"/>
<path fill-rule="evenodd" clip-rule="evenodd" d="M324.123 105.084C324.123 105.084 323.097 104.573 322.133 106.048C321.424 107.013 320.459 107.761 319.348 108.207C319.348 108.207 309.006 109.855 308.591 111.219L303.759 111.503C303.759 111.503 302.057 111.733 301.884 115.314C301.711 118.894 300.805 119.232 300.805 119.232C300.805 119.232 298.815 122.759 298.988 124.576C299.16 126.393 297.451 127.303 297.451 127.303L304.558 145.773C304.558 145.773 304.785 153.387 303.478 156.172C302.172 158.957 299.725 171.292 299.725 171.292C299.725 171.292 300.747 171.062 300.693 171.746C300.639 172.43 299.441 179.871 299.441 179.871C299.441 179.871 299.099 182.829 298.53 183.85C297.962 184.872 297.908 190.216 297.908 190.216L296.998 194.08C296.998 194.08 299.157 198.909 302.453 198.229C305.749 197.549 311.726 184.646 311.726 184.646L315.533 170.724L318.487 156.971L319.34 147.648L320.704 127.019L322.694 113.381C322.694 113.381 324.918 106.048 324.123 105.084Z" fill="#65617D"/>
<path opacity="0.1" fill-rule="evenodd" clip-rule="evenodd" d="M287.636 149.069L284.34 151.343C284.34 151.343 279.3 151.505 275.696 150.617L273.864 149.803L273.48 149.642L273.864 149.761C275.766 150.325 277.252 150.314 278.416 149.922C283.08 148.351 282.565 140.649 282.384 138.908C282.384 138.732 282.354 138.62 282.346 138.578C282.345 138.57 282.345 138.563 282.346 138.555L282.373 138.601C282.437 138.706 282.509 138.806 282.588 138.901C282.653 138.974 282.723 139.05 282.796 139.123L284.444 142.416C284.444 142.416 284.444 142.462 284.444 142.554L287.636 149.069Z" fill="black"/>
<path fill-rule="evenodd" clip-rule="evenodd" d="M299.049 126.85L297.455 127.303L297.228 130.541C297.228 130.541 295.354 130.257 294.843 132.462C294.332 134.667 293.421 135.704 293.421 135.704C293.421 135.704 290.294 138.317 290.125 140.533L288.204 141.728C288.204 141.728 283.714 140.702 282.692 138.885C282.692 138.885 284.739 153.548 273.826 149.968C273.826 149.968 286.045 155.308 286.614 156.049C287.183 156.791 290.932 158.946 294.343 157.129C297.754 155.312 298.492 152.519 298.492 152.519C298.492 152.519 301.788 147.909 301.9 147.233C302.011 146.557 304.589 145.754 304.589 145.754L309.475 133.934L299.049 126.85Z" fill="#65617D"/>
<path opacity="0.1" fill-rule="evenodd" clip-rule="evenodd" d="M338.955 110.765L340.603 103.263C340.603 103.263 341.341 105.706 342.082 106.274L344.525 108.153C344.525 108.153 346.968 109.286 347.821 109.286C348.674 109.286 353.276 110.481 353.845 111.107C354.413 111.733 356.687 111.276 356.687 111.276C356.687 111.276 358.562 111.902 360.21 112.298C361.858 112.694 362.653 115.425 362.312 116.524C362.03 117.617 362.33 118.778 363.107 119.597C363.79 120.281 364.132 122.497 364.132 122.497C364.965 122.772 365.655 123.364 366.053 124.145C366.622 125.394 366.437 128.121 366.437 128.121L357.986 140.057C357.986 140.057 358.097 144.667 357.759 145.685C357.421 146.703 358.95 164.097 358.95 164.097L360.713 193.988C360.713 193.988 358.382 195.978 357.871 196.205C357.36 196.431 356.849 185.637 356.849 185.237C356.849 184.838 343.722 165.572 343.722 165.572C343.722 165.572 341.959 162.734 341.959 162.115C341.959 161.497 340.311 155.75 340.311 155.75L337.81 144.667L338.955 110.765Z" fill="black"/>
<path fill-rule="evenodd" clip-rule="evenodd" d="M367.163 127.464C367.163 127.849 367.163 128.117 367.163 128.117L358.712 140.026C358.712 140.026 358.827 144.636 358.489 145.65C358.289 146.246 358.724 152.361 359.127 157.386C359.411 161.009 359.68 164.063 359.68 164.063L360.429 176.74L361.439 193.95C361.439 193.95 359.111 195.94 358.601 196.166C358.09 196.393 357.579 185.598 357.579 185.199C357.579 184.799 344.448 165.538 344.448 165.538C344.448 165.538 342.685 162.691 342.685 162.08C342.685 161.47 341.037 155.715 341.037 155.715L338.54 144.632L339.673 110.761L340.603 103.263C340.603 103.263 342.024 105.71 342.762 106.274L345.205 108.149C345.205 108.149 347.648 109.302 348.501 109.302C349.354 109.302 353.96 110.492 354.529 111.119C355.097 111.745 357.367 111.288 357.367 111.288C357.367 111.288 359.242 111.914 360.89 112.31C362.538 112.705 363.337 115.437 362.995 116.535C362.712 117.628 363.012 118.79 363.79 119.608C364.47 120.288 364.812 122.505 364.812 122.505C365.645 122.782 366.334 123.375 366.733 124.157C367.14 124.983 367.179 126.562 367.163 127.464Z" fill="#65617D"/>
<path opacity="0.1" fill-rule="evenodd" clip-rule="evenodd" d="M297.697 278.875C297.977 278.875 309.913 279.328 309.686 281.26C309.46 283.193 297.697 278.875 297.697 278.875Z" fill="black"/>
<path opacity="0.1" fill-rule="evenodd" clip-rule="evenodd" d="M300.367 282.113C300.367 282.113 308.38 283.419 306.275 284.614C304.17 285.809 300.367 282.113 300.367 282.113Z" fill="black"/>
<path opacity="0.1" fill-rule="evenodd" clip-rule="evenodd" d="M330.166 277.622C330.166 277.622 343.465 278.775 341.475 280.239C339.485 281.702 334.768 281.94 334.56 281.998C334.353 282.056 330.166 277.622 330.166 277.622Z" fill="black"/>
<path opacity="0.1" fill-rule="evenodd" clip-rule="evenodd" d="M328.556 283.477C328.556 283.477 335.943 284.725 336.17 286.166C336.396 287.607 328.556 283.477 328.556 283.477Z" fill="black"/>
<path opacity="0.1" fill-rule="evenodd" clip-rule="evenodd" d="M332.647 249.264C332.647 249.264 339.408 250.855 339.808 251.953L332.647 249.264Z" fill="black"/>
<path opacity="0.1" fill-rule="evenodd" clip-rule="evenodd" d="M306.559 254.151C306.559 254.151 303.037 255.172 306.448 257.224C309.859 259.275 306.559 254.151 306.559 254.151Z" fill="black"/>
<path opacity="0.1" fill-rule="evenodd" clip-rule="evenodd" d="M322.19 199.535C322.575 199.535 328.783 197.492 330.942 198.383C332.487 198.963 334.12 199.274 335.77 199.301L322.19 199.535Z" fill="black"/>
<path opacity="0.1" fill-rule="evenodd" clip-rule="evenodd" d="M322.986 206.012L322.924 206.577L317.642 220.453C317.642 220.453 316.789 224.655 316.052 227.041C315.585 228.663 315.215 230.311 314.942 231.977L319.632 202.889L322.986 206.012Z" fill="black"/>
<path fill-rule="evenodd" clip-rule="evenodd" d="M331.237 181.526L329.036 181.565H328.967L327.676 175.837L329.597 175.733L331.237 181.526Z" fill="#3F3D56"/>
<path fill-rule="evenodd" clip-rule="evenodd" d="M358.051 174.589L356.634 175.741L351.912 179.633C351.912 179.633 339.124 186.455 335.601 179.974C332.497 174.266 346.995 170.19 350.487 169.303C350.96 169.184 351.229 169.122 351.229 169.122L358.051 174.589Z" fill="#FBBEBE"/>
<path opacity="0.1" fill-rule="evenodd" clip-rule="evenodd" d="M303.436 118.721C303.436 118.721 305.937 119.874 306.509 121.449C307.082 123.024 303.436 118.721 303.436 118.721Z" fill="black"/>
<path opacity="0.1" fill-rule="evenodd" clip-rule="evenodd" d="M295.707 135.77C295.707 135.77 292.069 140.203 293.548 141.916C295.027 143.63 295.707 135.77 295.707 135.77Z" fill="black"/>
<path opacity="0.1" fill-rule="evenodd" clip-rule="evenodd" d="M360.721 121.222C360.721 121.222 357.31 121.564 357.198 124.518L360.721 121.222Z" fill="black"/>
<path opacity="0.1" fill-rule="evenodd" clip-rule="evenodd" d="M329.124 167.824C329.463 167.482 337.307 155.888 339.112 156.914L329.124 167.824Z" fill="black"/>
<path opacity="0.1" fill-rule="evenodd" clip-rule="evenodd" d="M343.788 92.4642C343.791 94.6923 343.24 96.8863 342.186 98.8489L342.086 98.8297C341.229 98.6491 340.784 97.6503 340.127 97.028C339.3 96.2406 338.064 96.0675 337.053 96.5977C336.04 97.2064 335.457 98.3349 335.548 99.5135C335.113 97.6926 335.252 95.7603 334.829 93.9355C334.407 92.1108 333.135 90.2669 331.391 90.2361C330.623 90.2361 329.766 90.5089 329.22 89.948C328.894 89.61 328.836 89.076 328.583 88.6611C327.338 86.6481 323.547 87.6662 321.998 88.6995C320.45 89.7329 318.656 91.3886 316.732 92.2722C316.785 84.8019 322.884 78.7891 330.354 78.8421C337.824 78.8952 343.837 84.994 343.784 92.4642H343.788Z" fill="black"/>
<path fill-rule="evenodd" clip-rule="evenodd" d="M328.587 88.323C328.833 88.734 328.898 89.268 329.224 89.6061C329.766 90.1708 330.646 89.8788 331.395 89.8942C333.139 89.9249 334.41 91.7689 334.833 93.5936C335.256 95.4183 335.117 97.3506 335.551 99.1715C335.46 97.9917 336.045 96.8621 337.061 96.2558C338.072 95.7256 339.308 95.8986 340.134 96.686C340.791 97.3083 341.237 98.3071 342.094 98.4877C342.95 98.6682 343.776 97.8462 344.087 96.9511C344.398 96.056 344.375 95.0572 344.579 94.1199C344.963 92.3489 346.116 90.893 346.761 89.2065C347.522 87.1559 347.502 84.8968 346.703 82.8603C346.277 81.7924 345.643 80.832 345.209 79.7679C344.556 78.1468 344.387 76.3105 343.588 74.7739C342.251 72.1885 339.101 70.8978 336.508 71.8697C335.275 72.3307 334.203 73.2296 332.947 73.633C331.268 74.1746 329.47 73.7674 327.734 73.5254C325.997 73.2834 324.073 73.2603 322.675 74.4013C321.065 75.7189 320.627 78.1929 319.113 79.6373C318.48 80.2442 317.692 80.6322 317.024 81.1739C316.355 81.7155 315.775 82.5684 315.871 83.4788C315.971 84.6543 317.124 85.7223 316.697 86.8133C316.544 87.1297 316.33 87.4129 316.067 87.6469C314.802 88.9734 313.86 90.5749 313.317 92.3259C316.355 93.2786 319.647 89.9249 322.029 88.3384C323.554 87.328 327.342 86.3062 328.587 88.323Z" fill="#7C5C5C"/>
<path opacity="0.1" fill-rule="evenodd" clip-rule="evenodd" d="M358.051 174.589L356.634 175.741C355.385 173.667 350.264 169.518 350.264 169.518L350.487 169.303C350.96 169.184 351.229 169.122 351.229 169.122L358.051 174.589Z" fill="black"/>
<path fill-rule="evenodd" clip-rule="evenodd" d="M359.415 172.483C359.415 172.483 358.904 173.751 358.382 174.842C357.859 175.933 357.283 176.932 357.256 176.121C357.198 174.531 350.606 169.187 350.606 169.187L351.501 168.319L352.535 167.313L359.415 172.483Z" fill="#E7EFFD"/>
<path opacity="0.1" fill-rule="evenodd" clip-rule="evenodd" d="M359.642 164.07L360.391 176.747C358.624 174.001 353.776 166.963 350.66 167.19L358.209 158.504C358.523 158.154 358.813 157.783 359.077 157.394C359.361 161.016 359.642 164.07 359.642 164.07Z" fill="black"/>
<path opacity="0.1" fill-rule="evenodd" clip-rule="evenodd" d="M359.415 172.483C359.415 172.483 358.904 173.751 358.382 174.842C356.399 172.126 353.676 168.918 351.501 168.312L352.535 167.305L359.415 172.483Z" fill="black"/>
<path fill-rule="evenodd" clip-rule="evenodd" d="M365.097 126.508L367.144 128.098C367.144 128.098 370.552 128.156 370.893 130.999C371.235 133.841 374.351 135.148 374.351 135.148C374.351 135.148 376.679 137.476 376.679 138.555C376.679 139.634 378.442 141.567 378.442 141.74C378.442 141.912 380.148 145.378 379.917 146C379.687 146.622 381.738 149.354 381.112 150.375C380.599 151.294 380.143 152.243 379.748 153.218C379.748 153.218 377.078 158.335 375.715 159.299C374.351 160.264 368.097 168.392 368.097 168.392C368.097 168.392 361.393 176.121 361.393 178.507C361.393 178.507 354.863 167.597 350.99 167.881L358.551 159.184C358.551 159.184 359.857 157.767 359.914 156.914C359.972 156.061 363.552 152.139 365.258 151.97C365.258 151.97 365.538 149.638 364.801 149.58C364.063 149.523 363.437 147.706 363.437 147.706C363.437 147.706 358.443 141.797 358.378 138.044C358.312 134.291 365.097 126.508 365.097 126.508Z" fill="#65617D"/>
<path opacity="0.1" fill-rule="evenodd" clip-rule="evenodd" d="M368.108 131.905C368.108 131.905 363.337 135.432 364.359 136.565C365.381 137.698 368.108 131.905 368.108 131.905Z" fill="black"/>
<path opacity="0.1" fill-rule="evenodd" clip-rule="evenodd" d="M368.335 146.457C368.335 146.457 377.201 143.614 378.112 146.457H368.335Z" fill="black"/>
<path opacity="0.1" fill-rule="evenodd" clip-rule="evenodd" d="M313.439 297.456C313.439 297.456 308.664 300.583 306.279 300.145C303.893 299.707 301.446 300.944 301.446 300.944C299.801 302.741 297.727 304.09 295.419 304.867C291.577 306.173 286.161 305.658 283.091 304.636C281.639 304.152 281.52 303.53 282.219 302.758C285.558 303.422 293.014 304.748 295.023 303.783C297.635 302.531 301.389 299.803 301.389 299.803C301.389 299.803 306.279 299.124 306.959 299.124C307.443 299.124 311.219 297.564 313.351 296.673L313.439 297.456Z" fill="black"/>
<path opacity="0.1" fill-rule="evenodd" clip-rule="evenodd" d="M342.355 303.849L342.305 304.164C342.305 304.164 341.152 306.664 334.864 307.575C328.575 308.485 328.556 305.47 328.556 305.47C328.556 305.47 328.579 305.147 328.617 304.659C330.615 305.416 334.971 306.261 342.355 303.849Z" fill="black"/>
<path opacity="0.1" fill-rule="evenodd" clip-rule="evenodd" d="M305.795 131.225C305.795 131.225 305.795 144.183 304.685 145.462C303.574 146.741 305.795 131.225 305.795 131.225Z" fill="black"/>
<path opacity="0.1" fill-rule="evenodd" clip-rule="evenodd" d="M357.026 135.401L358.674 140.034C358.674 140.034 359.33 135.486 357.026 135.401Z" fill="black"/>
<g opacity="0.1">
<path fill-rule="evenodd" clip-rule="evenodd" d="M316.843 85.7261C317.258 84.6582 316.167 83.6133 316.025 82.4685C315.88 82.7914 315.818 83.1452 315.844 83.498C315.917 84.3585 316.551 85.1614 316.72 85.9605C316.768 85.886 316.809 85.8076 316.843 85.7261Z" fill="black"/>
<path fill-rule="evenodd" clip-rule="evenodd" d="M335.705 97.9653C335.298 96.1751 335.417 94.2774 335.002 92.4834C334.587 90.6894 333.308 88.8147 331.568 88.784C330.799 88.784 329.939 89.0606 329.397 88.4997C329.067 88.1617 329.013 87.6239 328.756 87.2128C327.511 85.196 323.723 86.2179 322.171 87.2512C319.866 88.7878 316.655 92.0263 313.674 91.2964C313.532 91.6383 313.401 91.9878 313.29 92.3451C316.328 93.2978 319.62 89.9441 322.002 88.3576C323.539 87.3281 327.342 86.3062 328.587 88.323C328.832 88.7341 328.898 89.268 329.224 89.6061C329.766 90.1708 330.646 89.8788 331.395 89.8942C333.139 89.9249 334.41 91.7689 334.833 93.5936C335.256 95.4183 335.117 97.3506 335.551 99.1715C335.523 98.7633 335.576 98.3535 335.705 97.9653Z" fill="black"/>
<path fill-rule="evenodd" clip-rule="evenodd" d="M344.249 95.8372C343.941 96.7361 343.131 97.5659 342.255 97.3738C341.379 97.1817 340.953 96.1944 340.3 95.5683C339.469 94.7899 338.238 94.6191 337.226 95.1418C336.261 95.717 335.684 96.7696 335.717 97.8924C335.947 97.1985 336.424 96.6133 337.057 96.2482C338.068 95.718 339.304 95.8911 340.13 96.6785C340.787 97.3008 341.233 98.2996 342.09 98.4801C342.946 98.6607 343.772 97.8386 344.083 96.9435C344.245 96.412 344.35 95.8647 344.395 95.3109C344.357 95.4892 344.308 95.665 344.249 95.8372Z" fill="black"/>
<path fill-rule="evenodd" clip-rule="evenodd" d="M346.922 88.0926C346.285 89.7791 345.124 91.2312 344.74 93.0059C344.663 93.3632 344.617 93.7281 344.575 94.0969C344.959 92.3298 346.112 90.8816 346.753 89.199C347.036 88.442 347.214 87.6496 347.28 86.8441C347.192 87.2687 347.073 87.686 346.922 88.0926Z" fill="black"/>
</g>
<path fill-rule="evenodd" clip-rule="evenodd" d="M264.794 129.243C264.87 129.243 264.932 129.181 264.932 129.105C264.932 129.028 264.87 128.966 264.794 128.966C264.718 128.966 264.656 129.028 264.656 129.105C264.656 129.181 264.718 129.243 264.794 129.243Z" fill="#E6E8EC"/>
<path opacity="0.1" fill-rule="evenodd" clip-rule="evenodd" d="M313.866 307.744C332.184 307.744 347.034 306.229 347.034 304.359C347.034 302.49 332.184 300.975 313.866 300.975C295.548 300.975 280.698 302.49 280.698 304.359C280.698 306.229 295.548 307.744 313.866 307.744Z" fill="#4D7CFE"/>
<path fill-rule="evenodd" clip-rule="evenodd" d="M191.901 82.3609L91.4409 147.536L157.001 265.779C157.62 266.897 158.678 267.705 159.92 268.007L219.322 282.497C221.419 283.005 223.586 281.979 224.523 280.035L253.988 218.82L286.28 175.653L209.649 84.9924C205.237 79.7756 197.637 78.6486 191.901 82.3609Z" fill="#DCDFED"/>
<path opacity="0.1" fill-rule="evenodd" clip-rule="evenodd" d="M287.302 176.164L287.017 176.548L268.102 201.837L267.76 202.294L255.01 219.339L229.809 271.703L229.102 273.166L225.545 280.553C224.607 282.501 222.436 283.527 220.336 283.016L160.934 268.518C159.692 268.216 158.633 267.408 158.015 266.29L152.302 256.006L151.277 254.154L110.045 179.759L109.692 179.125L92.4589 148.047L94.541 146.695L110.326 136.457L110.691 136.219L143.932 114.653L146.029 113.293L192.915 82.8719C198.651 79.1523 206.258 80.278 210.671 85.4995L245.629 126.873L247.165 128.717L272.539 158.735L272.677 158.9L285.435 173.989L287.04 175.891L287.302 176.164Z" fill="black"/>
<path opacity="0.1" fill-rule="evenodd" clip-rule="evenodd" d="M271.694 158.389L268.597 179.901L267.664 186.394L267.13 200.223L267.088 201.303L264.31 273.562C264.256 274.919 263.603 276.182 262.526 277.011C261.45 277.839 260.062 278.148 258.736 277.853L228.795 271.169L228.472 271.096L151.684 253.959L150.274 253.644L108.059 244.216L109.027 179.248L109.058 177.078L109.35 157.413L109.673 135.708L142.914 114.142L145.011 112.782C175.843 115.944 216.848 122.025 244.626 126.362L246.163 128.206L271.517 158.224L271.694 158.389Z" fill="black"/>
<path fill-rule="evenodd" clip-rule="evenodd" d="M275.201 132.881L271.555 158.235L268.213 181.453L267.28 187.93L266.746 201.76L263.926 275.099C263.872 276.456 263.218 277.719 262.142 278.547C261.066 279.376 259.678 279.684 258.352 279.389L228.088 272.632L151.3 255.495L107.675 245.753L108.674 178.614L108.966 158.95L109.308 135.947L109.657 112.287C116.872 111.945 128.742 112.717 142.914 114.142C174.645 117.327 217.9 123.769 246.182 128.206C263.5 130.922 275.201 132.881 275.201 132.881Z" fill="#9E4CF9"/>
<path opacity="0.1" fill-rule="evenodd" clip-rule="evenodd" d="M284.451 173.478L268.213 181.442L185.34 222.085L108.966 158.965L93.5269 146.184L91.4448 147.536L108.678 178.614L107.679 245.753L151.304 255.495L157.004 265.779C157.623 266.897 158.682 267.706 159.924 268.007L219.326 282.497C221.422 283.003 223.587 281.977 224.523 280.035L228.081 272.648L258.344 279.405C259.67 279.7 261.058 279.391 262.135 278.563C263.211 277.734 263.864 276.471 263.918 275.114L266.738 201.775L285.996 176.037L286.049 175.388L284.451 173.478Z" fill="black"/>
<path fill-rule="evenodd" clip-rule="evenodd" d="M91.4409 147.536L84.5915 264.83C84.4606 267.072 85.9754 269.079 88.1679 269.567L270.072 309.961C271.363 310.243 272.712 309.955 273.774 309.169C274.837 308.384 275.508 307.178 275.616 305.862L286.276 175.653L185.34 225.159L91.4409 147.536Z" fill="#DCDFED"/>
<path opacity="0.1" fill-rule="evenodd" clip-rule="evenodd" d="M85.8438 267.515L180.346 209.212C183.235 207.46 186.966 208.044 189.181 210.595L273.764 309.242C274.071 309.595 274.221 309.342 273.764 309.242L85.8438 267.515C85.3752 267.796 85.306 267.396 85.8438 267.515Z" fill="black"/>
<path fill-rule="evenodd" clip-rule="evenodd" d="M86.5199 267.419L180.046 210.922C183.098 209.078 187.034 209.697 189.373 212.389L273.192 308.785C273.476 309.114 273.518 309.588 273.296 309.962C273.074 310.336 272.637 310.526 272.212 310.433L86.8234 269.267C86.4194 269.18 86.1099 268.854 86.0429 268.446C85.976 268.039 86.1651 267.631 86.5199 267.419Z" fill="#E3E5F1"/>
<defs>
<linearGradient id="paint0_linear" x1="382.492" y1="308.255" x2="382.492" y2="70.2448" gradientUnits="userSpaceOnUse">
<stop stop-color="#808080" stop-opacity="0.25"/>
<stop offset="0.54" stop-color="#808080" stop-opacity="0.12"/>
<stop offset="1" stop-color="#808080" stop-opacity="0.1"/>
</linearGradient>
</defs>
</svg>
