<svg viewBox="0 0 13 13" fill="none" xmlns="http://www.w3.org/2000/svg">
<path d="M3.66016 1.59521C4.43359 0.821777 5.35938 0.435059 6.4375 0.435059C7.51562 0.435059 8.44141 0.821777 9.21484 1.59521C9.98828 2.36865 10.375 3.29443 10.375 4.37256C10.375 5.02881 10.2109 5.6499 9.88281 6.23584C9.57812 6.82178 9.15625 7.29053 8.61719 7.64209C9.64844 8.0874 10.4805 8.77881 11.1133 9.71631C11.7461 10.6304 12.0625 11.6616 12.0625 12.8101H10.9375C10.9375 11.5679 10.4922 10.5132 9.60156 9.646C8.73438 8.75537 7.67969 8.31006 6.4375 8.31006C5.19531 8.31006 4.12891 8.75537 3.23828 9.646C2.37109 10.5132 1.9375 11.5679 1.9375 12.8101H0.8125C0.8125 11.6616 1.12891 10.6304 1.76172 9.71631C2.39453 8.77881 3.22656 8.0874 4.25781 7.64209C3.71875 7.29053 3.28516 6.82178 2.95703 6.23584C2.65234 5.6499 2.5 5.02881 2.5 4.37256C2.5 3.29443 2.88672 2.36865 3.66016 1.59521ZM8.40625 2.40381C7.86719 1.84131 7.21094 1.56006 6.4375 1.56006C5.66406 1.56006 4.99609 1.84131 4.43359 2.40381C3.89453 2.94287 3.625 3.59912 3.625 4.37256C3.625 5.146 3.89453 5.81396 4.43359 6.37646C4.99609 6.91553 5.66406 7.18506 6.4375 7.18506C7.21094 7.18506 7.86719 6.91553 8.40625 6.37646C8.96875 5.81396 9.25 5.146 9.25 4.37256C9.25 3.59912 8.96875 2.94287 8.40625 2.40381Z" fill="currentColor"/>
</svg>
