<svg width="18" height="18" viewBox="0 0 18 18" fill="none" xmlns="http://www.w3.org/2000/svg">
<path d="M9 16C12.866 16 16 12.866 16 9C16 5.13401 12.866 2 9 2C5.13401 2 2 5.13401 2 9C2 12.866 5.13401 16 9 16Z" fill="currentColor" stroke="white" stroke-width="4"/>
<mask id="mask0" mask-type="alpha" maskUnits="userSpaceOnUse" x="0" y="0" width="18" height="18">
<path d="M9 16C12.866 16 16 12.866 16 9C16 5.13401 12.866 2 9 2C5.13401 2 2 5.13401 2 9C2 12.866 5.13401 16 9 16Z" fill="white" stroke="white" stroke-width="4"/>
</mask>
<g mask="url(#mask0)">
<rect x="-0.333252" y="-1.5" width="18.6667" height="21" fill="white"/>
<path d="M4.98047 4.73047C6.09245 3.61849 7.43229 3.0625 9 3.0625C10.5677 3.0625 11.9076 3.61849 13.0195 4.73047C14.1315 5.84245 14.6875 7.18229 14.6875 8.75C14.6875 10.3177 14.1315 11.6576 13.0195 12.7695C11.9076 13.8815 10.5677 14.4375 9 14.4375C7.43229 14.4375 6.09245 13.8815 4.98047 12.7695C3.86849 11.6576 3.3125 10.3177 3.3125 8.75C3.3125 7.18229 3.86849 5.84245 4.98047 4.73047ZM12.3906 5.35938C11.4609 4.41146 10.3307 3.9375 9 3.9375C7.66927 3.9375 6.52995 4.41146 5.58203 5.35938C4.65234 6.28906 4.1875 7.41927 4.1875 8.75C4.1875 10.0807 4.65234 11.2201 5.58203 12.168C6.52995 13.0977 7.66927 13.5625 9 13.5625C10.3307 13.5625 11.4609 13.0977 12.3906 12.168C13.3385 11.2201 13.8125 10.0807 13.8125 8.75C13.8125 7.41927 13.3385 6.28906 12.3906 5.35938ZM8.5625 6.125H9.4375V8.3125H11.625V9.1875H9.4375V11.375H8.5625V9.1875H6.375V8.3125H8.5625V6.125Z" fill="currentColor"/>
</g>
</svg>
