<svg width="18" height="17" viewBox="0 0 18 17" fill="none" xmlns="http://www.w3.org/2000/svg">
<path d="M3.15625 2.94922C4.78906 1.31641 6.73698 0.5 9 0.5C11.263 0.5 13.1966 1.31641 14.8008 2.94922C16.4336 4.55339 17.25 6.48698 17.25 8.75C17.25 11.013 16.4336 12.9609 14.8008 14.5938C13.1966 16.1979 11.263 17 9 17C6.73698 17 4.78906 16.1979 3.15625 14.5938C1.55208 12.9609 0.75 11.013 0.75 8.75C0.75 6.48698 1.55208 4.55339 3.15625 2.94922ZM13.8555 3.89453C12.5091 2.54818 10.8906 1.875 9 1.875C7.10938 1.875 5.49089 2.54818 4.14453 3.89453C2.79818 5.24089 2.125 6.85938 2.125 8.75C2.125 10.6406 2.79818 12.2591 4.14453 13.6055C5.49089 14.9518 7.10938 15.625 9 15.625C10.8906 15.625 12.5091 14.9518 13.8555 13.6055C15.2018 12.2591 15.875 10.6406 15.875 8.75C15.875 6.85938 15.2018 5.24089 13.8555 3.89453ZM7.06641 5.44141C7.61068 4.89714 8.25521 4.625 9 4.625C9.74479 4.625 10.3893 4.89714 10.9336 5.44141C11.4779 5.98568 11.75 6.63021 11.75 7.375C11.75 7.91927 11.5781 8.42057 11.2344 8.87891C10.9193 9.33724 10.4896 9.66667 9.94531 9.86719L9.6875 9.95312V10.8125H8.3125V9.95312C8.3125 9.26562 8.6276 8.82161 9.25781 8.62109L9.51562 8.53516C10.0885 8.36328 10.375 7.97656 10.375 7.375C10.375 7.0026 10.2318 6.6875 9.94531 6.42969C9.6875 6.14323 9.3724 6 9 6C8.6276 6 8.29818 6.14323 8.01172 6.42969C7.75391 6.6875 7.625 7.0026 7.625 7.375H6.25C6.25 6.63021 6.52214 5.98568 7.06641 5.44141ZM8.3125 11.5H9.6875V12.875H8.3125V11.5Z" fill="currentColor"/>
</svg>
