<svg enable-background="new 0 0 512 512" width="18" height="18" viewBox="0 0 512 512" xmlns="http://www.w3.org/2000/svg">
  <path d="m497 373.658h-5v-295.413c0-24.076-19.588-43.664-43.665-43.664h-384.671c-24.077 0-43.664 19.587-43.664 43.664v295.413h-5c-8.284 0-15 6.716-15 15v41.227c0 26.211 21.324 47.535 47.535 47.535h416.93c26.211 0 47.535-21.324 47.535-47.535v-41.227c0-8.284-6.716-15-15-15zm-447-295.413c0-7.534 6.129-13.664 13.664-13.664h384.671c7.535 0 13.665 6.13 13.665 13.664v295.413h-142.13c-6.045 0-11.499 3.629-13.835 9.204l-6.144 14.665h-87.782l-6.144-14.665c-2.336-5.575-7.79-9.204-13.835-9.204h-142.13zm432 351.639c0 9.669-7.866 17.535-17.535 17.535h-416.93c-9.668 0-17.535-7.866-17.535-17.535v-26.227h152.151l6.144 14.665c2.336 5.575 7.79 9.204 13.835 9.204h107.74c6.045 0 11.499-3.629 13.835-9.204l6.144-14.665h152.151z" fill="currentColor"/>
  <path d="m346.559 290.804c4.329-2.753 6.95-7.527 6.95-12.657v-40.279l61.07-22.362c5.911-2.164 9.842-7.79 9.842-14.085s-3.931-11.921-9.842-14.085l-152.755-55.936c-3.33-1.221-6.985-1.221-10.315 0l-152.756 55.935c-5.912 2.164-9.842 7.79-9.842 14.085s3.931 11.921 9.842 14.085l14.145 5.18v57.147c0 8.284 6.716 15 15 15s15-6.716 15-15v-46.162l15.461 5.662v40.815c0 5.13 2.622 9.904 6.951 12.657 27.132 17.255 58.469 26.376 90.624 26.376s63.493-9.121 90.625-26.376zm-89.892-129.346 109.131 39.962-109.131 39.961-109.132-39.961zm-68.307 86.859 63.149 23.123c1.665.61 3.412.915 5.158.915s3.493-.305 5.158-.915l61.685-22.587v20.776c-41.842 23.271-93.307 23.271-135.149 0v-21.312z" fill="currentColor"/>
</svg>