<svg viewBox="0 0 37 27" fill="none" xmlns="http://www.w3.org/2000/svg">
<rect x="1" y="1" width="35" height="25" rx="4" stroke="#C4C4C4" stroke-width="2"/>
<path d="M15.3672 17.3633H10.7441L9.86523 20H7.06152L11.8252 7.20312H14.2686L19.0586 20H16.2549L15.3672 17.3633ZM11.4561 15.2275H14.6553L13.0469 10.4375L11.4561 15.2275ZM20.2539 20V7.20312H24.1914C25.3164 7.20312 26.3213 7.45801 27.2061 7.96777C28.0967 8.47168 28.791 9.19238 29.2891 10.1299C29.7871 11.0615 30.0361 12.1221 30.0361 13.3115V13.9004C30.0361 15.0898 29.79 16.1475 29.2979 17.0732C28.8115 17.999 28.123 18.7168 27.2324 19.2266C26.3418 19.7363 25.3369 19.9941 24.2178 20H20.2539ZM22.8906 9.33887V17.8818H24.165C25.1963 17.8818 25.9844 17.5449 26.5293 16.8711C27.0742 16.1973 27.3525 15.2334 27.3643 13.9795V13.3027C27.3643 12.002 27.0947 11.0176 26.5557 10.3496C26.0166 9.67578 25.2285 9.33887 24.1914 9.33887H22.8906Z" fill="#C4C4C4"/>
</svg>
