<svg viewBox="0 0 37 32" fill="none" id="image" xmlns="http://www.w3.org/2000/svg">
<path d="M28 13C30.2083 13 32 11.2083 32 9C32 6.79167 30.2083 5 28 5C25.7917 5 24 6.79167 24 9C24 11.2083 25.7917 13 28 13Z" fill="#A3A3A3"/>
<path fill-rule="evenodd" clip-rule="evenodd" d="M2.3125 0H34.6875C35.9759 0 37 1.05833 37 2.35833V29.6417C37 30.9417 35.9759 32 34.6875 32H2.3125C1.02411 32 0 30.9417 0 29.6417V2.35833C0 1.05833 1.02411 0 2.3125 0ZM25.1154 15.9583C25.5449 15.9583 25.9248 16.1833 26.1725 16.475L34.3571 25.3667L34.3324 3.66667C34.2993 3.09167 33.8368 2.66667 33.267 2.66667H3.72478C3.16317 2.66667 2.72545 3.075 2.64286 3.64167V25.35L13.0904 12.6333C13.4125 12.2583 13.9246 11.9833 14.4779 11.9833C15.0312 11.9833 15.5268 12.225 15.8571 12.6083L20.3004 17.4583C20.4243 17.5833 20.573 17.725 20.6556 17.8C20.8868 18.0083 21.2089 18.1417 21.5641 18.1417C21.9357 18.1417 22.1917 17.9833 22.5138 17.75L24.0583 16.4333C24.3969 16.1583 24.6942 15.9583 25.1154 15.9583Z" fill="#A3A3A3"/>
</svg>
