<svg width="24" height="24" viewBox="0 0 24 24" fill="none" xmlns="http://www.w3.org/2000/svg">
<path d="M0.480008 6.34737L11.0275 11.5074C11.3018 11.64 11.6696 11.7095 12.0312 11.7095C12.3927 11.7095 12.7605 11.64 13.0348 11.5074L23.5823 6.34737C24.1372 6.07579 24.1372 5.63368 23.5823 5.36211L13.0348 0.202105C12.7605 0.0694737 12.3927 0 12.0312 0C11.6696 0 11.3018 0.0694737 11.0275 0.202105L0.480008 5.36211C-0.0747975 5.63368 -0.0747975 6.07579 0.480008 6.34737Z" fill="#CCCCCC"/>
<path d="M23.5823 11.6337C23.5823 11.6337 21.6561 10.6926 21.4005 10.5663C21.1449 10.44 21.0764 10.4463 20.8083 10.5726C20.5403 10.6989 13.0286 14.3747 13.0286 14.3747C12.748 14.5074 12.3865 14.5768 12.0249 14.5768C11.6634 14.5768 11.2956 14.5074 11.0213 14.3747C11.0213 14.3747 3.70908 10.8 3.36623 10.6295C2.9922 10.4463 2.88623 10.4463 2.5496 10.6105C2.20051 10.7811 0.467526 11.6274 0.467526 11.6274C-0.0872792 11.8989 -0.0872792 12.3411 0.467526 12.6126L11.0151 17.7726C11.2893 17.9053 11.6571 17.9747 12.0187 17.9747C12.3803 17.9747 12.748 17.9053 13.0223 17.7726L23.5699 12.6126C24.1371 12.3474 24.1371 11.9053 23.5823 11.6337Z" fill="#CCCCCC"/>
<path d="M23.5836 18.0808C23.5836 18.0808 21.6526 17.2033 21.3963 17.0855C21.1401 16.9677 21.0714 16.9736 20.8027 17.0913C20.5339 17.2091 13.0097 20.6429 13.0097 20.6429C12.7284 20.7665 12.366 20.8313 12.0035 20.8313C11.641 20.8313 11.2723 20.7665 10.9974 20.6429C10.9974 20.6429 3.66683 17.3093 3.32311 17.1502C2.94815 16.9794 2.84191 16.9794 2.50444 17.1326C2.15448 17.2916 0.417147 18.0808 0.417147 18.0808C-0.139049 18.3341 -0.139049 18.7464 0.417147 18.9996L10.9911 23.8115C11.2661 23.9411 11.6348 24 11.9973 24C12.3597 24 12.7284 23.9352 13.0034 23.8115L23.5774 18.9996C24.1398 18.7464 24.1398 18.3341 23.5836 18.0808Z" fill="#CCCCCC"/>
</svg>
