<svg viewBox="0 0 60 60" fill="none" xmlns="http://www.w3.org/2000/svg"><mask id="aa" maskUnits="userSpaceOnUse" x="10" y="10" width="40" height="41"><path fill-rule="evenodd" clip-rule="evenodd" d="M45.205 28.817c.254.216.52.442.795.683 2 1.5 4 3 4 5.5 0 7-15.25 7.5-20 7.5S10 42 10 35c0-2.5 2-4 4-5.5.275-.24.54-.467.795-.683C16.385 27.46 17.5 26.509 17.5 25v-2.5C17.5 15.5 23 10 30 10s12.5 5.5 12.5 12.5V25c0 1.51 1.116 2.46 2.705 3.817zM30 45c2.25 0 4.5 0 7.25-.25-1 3-3.75 5.25-7.25 5.25s-6.25-2.25-7.25-5.25c2.75.25 5 .25 7.25.25z" fill="#fff"/></mask><path fill="#0C0033" d="M0 0h60v60H0z" mask="url(#aa)"/></svg>