<svg width="18" height="17" viewBox="0 0 18 17" fill="none" xmlns="http://www.w3.org/2000/svg">
<path d="M10.4609 0.5H10.8906L11.0625 0.84375L11.707 1.96094C13.1966 2.13281 14.4427 2.8776 15.4453 4.19531C17.1068 6.42969 17.9375 10.0104 17.9375 14.9375V15.625H17.25H11.3203C10.5755 16.0833 9.80208 16.3125 9 16.3125C8.19792 16.3125 7.42448 16.0833 6.67969 15.625H0.75H0.0625V14.9375C0.0625 9.23698 1.20833 5.24089 3.5 2.94922C5.10417 1.31641 7.42448 0.5 10.4609 0.5ZM10.0742 1.91797C7.58203 1.97526 5.70573 2.64844 4.44531 3.9375C2.55469 5.82812 1.56641 9.26562 1.48047 14.25H5.21875C5.13281 14.1641 5.04688 14.0495 4.96094 13.9062C3.98698 12.5312 3.5 11.0417 3.5 9.4375C3.5 8.86458 3.64323 8.39193 3.92969 8.01953C4.1875 7.67578 4.54557 7.41797 5.00391 7.24609C5.46224 7.07422 6.30729 6.93099 7.53906 6.81641C8.6276 6.73047 9.34375 6.60156 9.6875 6.42969C9.94531 6.3151 10.1172 6.1862 10.2031 6.04297C10.3177 5.89974 10.375 5.65625 10.375 5.3125H11.75C11.75 6.42969 11.263 7.21745 10.2891 7.67578C9.74479 7.93359 8.88542 8.10547 7.71094 8.19141C6.59375 8.27734 5.86328 8.39193 5.51953 8.53516C5.29036 8.62109 5.13281 8.72135 5.04688 8.83594C4.93229 8.97917 4.875 9.17969 4.875 9.4375C4.875 10.7552 5.27604 11.987 6.07812 13.1328C6.90885 14.3359 7.88281 14.9375 9 14.9375C10.1172 14.9375 11.0911 14.3359 11.9219 13.1328C12.724 12.0156 13.125 10.7839 13.125 9.4375H14.5C14.5 11.0417 14.013 12.5456 13.0391 13.9492C12.9245 14.1211 12.8529 14.2214 12.8242 14.25H16.5195C16.4336 9.92448 15.7031 6.85938 14.3281 5.05469C13.4401 3.85156 12.4089 3.25 11.2344 3.25H10.8047L10.6328 2.90625L10.0742 1.91797ZM6.42188 9.65234C6.5651 9.50911 6.73698 9.4375 6.9375 9.4375C7.13802 9.4375 7.29557 9.50911 7.41016 9.65234C7.55339 9.76693 7.625 9.92448 7.625 10.125C7.625 10.3255 7.55339 10.4974 7.41016 10.6406C7.29557 10.7552 7.13802 10.8125 6.9375 10.8125C6.73698 10.8125 6.5651 10.7552 6.42188 10.6406C6.30729 10.4974 6.25 10.3255 6.25 10.125C6.25 9.92448 6.30729 9.76693 6.42188 9.65234ZM10.5469 9.65234C10.6901 9.50911 10.862 9.4375 11.0625 9.4375C11.263 9.4375 11.4206 9.50911 11.5352 9.65234C11.6784 9.76693 11.75 9.92448 11.75 10.125C11.75 10.3255 11.6784 10.4974 11.5352 10.6406C11.4206 10.7552 11.263 10.8125 11.0625 10.8125C10.862 10.8125 10.6901 10.7552 10.5469 10.6406C10.4323 10.4974 10.375 10.3255 10.375 10.125C10.375 9.92448 10.4323 9.76693 10.5469 9.65234Z" fill="currentColor"/>
</svg>
