<svg width="22" height="24" viewBox="0 0 22 24" fill="none" xmlns="http://www.w3.org/2000/svg">
<path d="M9.32422 4.24219C9.61068 3.95573 9.9401 3.8125 10.3125 3.8125C10.6849 3.8125 11 3.95573 11.2578 4.24219C11.5443 4.5 11.6875 4.8151 11.6875 5.1875C11.6875 5.1875 11.6875 5.24479 11.6875 5.35938C12.8906 5.67448 13.8789 6.34766 14.6523 7.37891C15.4258 8.41016 15.8125 9.57031 15.8125 10.8594V16.875C15.8125 17.3333 16.0417 17.5625 16.5 17.5625H17.1875V18.9375H12.2461C12.332 19.1667 12.375 19.3958 12.375 19.625C12.375 20.1979 12.1745 20.6849 11.7734 21.0859C11.3724 21.487 10.8854 21.6875 10.3125 21.6875C9.73958 21.6875 9.2526 21.487 8.85156 21.0859C8.45052 20.6849 8.25 20.1979 8.25 19.625C8.25 19.3958 8.29297 19.1667 8.37891 18.9375H3.4375V17.5625H4.125C4.58333 17.5625 4.8125 17.3333 4.8125 16.875V10.6875C4.8125 9.42708 5.19922 8.3099 5.97266 7.33594C6.77474 6.33333 7.76302 5.67448 8.9375 5.35938C8.9375 5.24479 8.9375 5.1875 8.9375 5.1875C8.9375 4.8151 9.06641 4.5 9.32422 4.24219ZM10.0117 6.5625C8.92318 6.64844 8.00651 7.09245 7.26172 7.89453C6.54557 8.66797 6.1875 9.59896 6.1875 10.6875V16.875C6.1875 17.1042 6.14453 17.3333 6.05859 17.5625H14.5664C14.4805 17.3333 14.4375 17.1042 14.4375 16.875V10.8594C14.4375 9.71354 14.0508 8.72526 13.2773 7.89453C12.5039 7.03516 11.5586 6.59115 10.4414 6.5625H10.3125H10.1406H10.0117ZM11 19.625C11 19.1667 10.7708 18.9375 10.3125 18.9375C9.85417 18.9375 9.625 19.1667 9.625 19.625C9.625 20.0833 9.85417 20.3125 10.3125 20.3125C10.7708 20.3125 11 20.0833 11 19.625Z" fill="currentColor"/>
<path fill-rule="evenodd" opacity="0" clip-rule="evenodd" d="M17 10C19.2091 10 21 8.20914 21 6C21 3.79086 19.2091 2 17 2C14.7909 2 13 3.79086 13 6C13 8.20914 14.7909 10 17 10Z" fill="#FE4D97" stroke="white"/>
</svg>
