<svg width="14" height="16" viewBox="0 0 14 16" fill="none" xmlns="http://www.w3.org/2000/svg">
<path d="M6.01562 1.28906C6.32031 1.05469 6.64844 0.9375 7 0.9375C7.35156 0.9375 7.67969 1.05469 7.98438 1.28906L8.93359 1.92188L9.98828 2.0625H10.0234C10.375 2.10937 10.6797 2.27344 10.9375 2.55469C11.2188 2.8125 11.3828 3.11719 11.4297 3.46875C11.4297 3.49219 11.4297 3.50391 11.4297 3.50391C11.4297 3.50391 11.4297 3.51562 11.4297 3.53906L11.6406 4.59375L12.2734 5.50781C12.7422 6.14062 12.7539 6.82031 12.3086 7.54688H12.2734L11.6406 8.49609L11.5 9.55078L13.2578 12.2227L13.8203 13.1016H12.8008H11.1484L10.5156 14.5781L10.0938 15.5625L9.53125 14.6836L7.73828 12.0117C7.26953 12.2227 6.77734 12.2227 6.26172 12.0117L4.46875 14.6836L3.90625 15.5625L3.48438 14.5781L2.85156 13.1016H1.19922H0.179688L0.742188 12.2227L2.57031 9.44531L2.35938 8.49609L1.72656 7.54688C1.25781 6.91406 1.24609 6.23438 1.69141 5.50781H1.72656L2.35938 4.66406L2.5 3.53906C2.59375 3.16406 2.76953 2.84766 3.02734 2.58984C3.28516 2.33203 3.60156 2.15625 3.97656 2.0625L5.06641 1.92188L6.01562 1.28906ZM7.35156 2.20312C7.25781 2.10937 7.14062 2.0625 7 2.0625C6.85938 2.0625 6.74219 2.10937 6.64844 2.20312L5.66406 2.90625L5.52344 2.97656L5.38281 3.01172L4.1875 3.1875C3.88281 3.25781 3.69531 3.44531 3.625 3.75L3.44922 4.94531L3.41406 5.08594L3.34375 5.22656L2.64062 6.14062C2.45312 6.42188 2.45312 6.67969 2.64062 6.91406L3.34375 7.89844L3.41406 8.03906L3.44922 8.17969L3.69531 9.44531V9.48047C3.69531 9.55078 3.71875 9.62109 3.76562 9.69141C3.83594 9.83203 3.95312 9.91406 4.11719 9.9375H4.15234L5.38281 10.1133L5.52344 10.1484L5.66406 10.2188L6.57812 10.9219C6.85938 11.1094 7.11719 11.1094 7.35156 10.9219L8.33594 10.2188L8.47656 10.1484L8.61719 10.1133L9.88281 9.86719H9.91797C10.0586 9.86719 10.1641 9.82031 10.2344 9.72656V9.69141L10.3047 9.65625C10.3516 9.58594 10.375 9.51562 10.375 9.44531V9.41016L10.5508 8.17969L10.5859 8.03906L10.6562 7.89844L11.3594 6.91406C11.5469 6.63281 11.5469 6.375 11.3594 6.14062L10.6562 5.15625L10.5859 5.05078L10.5508 4.94531L10.3047 3.67969V3.64453C10.2812 3.36328 10.1406 3.21094 9.88281 3.1875H9.84766L8.61719 3.01172L8.47656 2.97656L8.33594 2.90625L7.35156 2.20312ZM10.8672 10.6406C10.6328 10.8281 10.375 10.9453 10.0938 10.9922C10.0703 10.9922 10.0586 10.9922 10.0586 10.9922C10.0586 10.9922 10.0469 10.9922 10.0234 10.9922L8.93359 11.2031L8.6875 11.3789L9.88281 13.207L10.2344 12.3281L10.375 11.9766H10.7617H11.7461L10.8672 10.6406ZM3.13281 10.6406L2.25391 11.9766H3.23828H3.625L3.76562 12.3281L4.11719 13.207L5.3125 11.4141L5.10156 11.2031L4.01172 11.0625H3.97656C3.64844 11.0156 3.36719 10.875 3.13281 10.6406Z" fill="currentColor"/>
</svg>
