<svg width="19" height="19" viewBox="0 0 19 19" fill="none" xmlns="http://www.w3.org/2000/svg">
<path d="M16.7891 0.5H17.5625L18.207 0.542969L18.25 1.1875C18.2786 1.98958 18.25 2.84896 18.1641 3.76562C17.9635 5.77083 17.5052 7.13151 16.7891 7.84766C16.2161 8.42057 14.4974 9.8099 11.6328 12.0156C11.3177 12.2734 11.0312 12.4883 10.7734 12.6602L10.8594 13.8203C10.9167 14.7656 10.5729 15.5247 9.82812 16.0977L8.10938 17.5156L7.20703 18.2461L6.99219 17.1289L6.51953 14.8516L3.89844 12.2305L1.62109 11.7578L0.503906 11.5859L1.23438 10.6406L2.65234 8.92188C3.22526 8.17708 3.98438 7.83333 4.92969 7.89062L6.13281 7.97656C6.21875 7.86198 6.30469 7.73307 6.39062 7.58984C6.47656 7.44661 6.59115 7.30339 6.73438 7.16016C8.88281 4.32422 10.2865 2.59115 10.9453 1.96094C11.6615 1.21615 13.0078 0.757812 14.9844 0.585938C15.5859 0.528646 16.1875 0.5 16.7891 0.5ZM16.1875 1.875C15.901 1.875 15.5286 1.90365 15.0703 1.96094C13.4661 2.10417 12.4062 2.41927 11.8906 2.90625C11.2891 3.53646 9.91406 5.22656 7.76562 7.97656C7.30729 8.60677 6.41927 9.79557 5.10156 11.543L7.25 13.6484C7.5651 13.3906 8.73958 12.4883 10.7734 10.9414C13.5234 8.82161 15.2135 7.46094 15.8438 6.85938C16.3307 6.3724 16.6458 5.3125 16.7891 3.67969C16.8464 3.07812 16.875 2.47656 16.875 1.875C16.8177 1.875 16.7174 1.875 16.5742 1.875C16.431 1.875 16.3021 1.875 16.1875 1.875ZM12.0625 4.71094C12.349 4.42448 12.6784 4.28125 13.0508 4.28125C13.4232 4.28125 13.7526 4.42448 14.0391 4.71094C14.3255 4.9974 14.4688 5.32682 14.4688 5.69922C14.4688 6.07161 14.3255 6.40104 14.0391 6.6875C13.7526 6.97396 13.4232 7.11719 13.0508 7.11719C12.6784 7.11719 12.349 6.97396 12.0625 6.6875C11.8047 6.40104 11.6758 6.07161 11.6758 5.69922C11.6758 5.32682 11.8047 4.9974 12.0625 4.71094ZM4.84375 9.26562C4.38542 9.23698 4.01302 9.40885 3.72656 9.78125L2.99609 10.6406L3.89844 10.8125C3.92708 10.8125 4.08464 10.612 4.37109 10.2109C4.6862 9.8099 4.92969 9.49479 5.10156 9.26562H4.84375ZM3.29688 12.832L4.24219 13.8203C4.01302 14.0495 3.75521 14.5365 3.46875 15.2812C4.1849 15.0234 4.67188 14.7656 4.92969 14.5078L5.875 15.4531C5.41667 15.9401 4.72917 16.3411 3.8125 16.6562L2.56641 17L1.57812 17.1719L1.75 16.1406C1.83594 15.7682 1.95052 15.3672 2.09375 14.9375C2.4375 13.9922 2.83854 13.2904 3.29688 12.832ZM9.48438 13.6484C9.25521 13.8203 8.9401 14.0638 8.53906 14.3789C8.13802 14.6654 7.9375 14.8229 7.9375 14.8516L8.10938 15.7539L8.96875 15.0234C9.34115 14.737 9.51302 14.3646 9.48438 13.9062V13.6484Z" fill="currentColor"/>
</svg>
