<svg viewBox="0 0 19 19" fill="none" xmlns="http://www.w3.org/2000/svg">
<path d="M9.46959 0.597613C11.9408 0.597613 14.0474 1.46861 15.7894 3.21059C17.5313 4.95258 18.4023 7.05917 18.4023 9.53036C18.4023 12.0016 17.5313 14.1081 15.7894 15.8501C14.0474 17.5921 11.9408 18.4631 9.46959 18.4631C6.9984 18.4631 4.89182 17.5921 3.14983 15.8501C1.40784 14.1081 0.536851 12.0016 0.536851 9.53036C0.536851 7.05917 1.40784 4.95258 3.14983 3.21059C4.89182 1.46861 6.9984 0.597613 9.46959 0.597613ZM17.0047 9.53036C17.025 7.44403 16.2958 5.66153 14.8171 4.18287C13.3384 2.7042 11.5458 1.96487 9.43921 1.96487C7.37313 1.96487 5.60076 2.7042 4.1221 4.18287C2.64344 5.66153 1.89398 7.44403 1.87372 9.53036C1.89398 11.6167 2.64344 13.3992 4.1221 14.8779C5.60076 16.3565 7.37313 17.0959 9.43921 17.0959C11.5458 17.0959 13.3384 16.3565 14.8171 14.8779C16.2958 13.3992 17.025 11.6167 17.0047 9.53036ZM11.9003 6.12741L12.8725 7.09968L10.4419 9.53036L12.8725 11.961L11.9003 12.9333L9.46959 10.5026L7.03892 12.9333L6.06664 11.961L8.49732 9.53036L6.06664 7.09968L7.03892 6.12741L9.46959 8.55809L11.9003 6.12741Z" fill="currentColor"/>
</svg>
