<svg viewBox="0 0 24 24" fill="none" xmlns="http://www.w3.org/2000/svg"><mask id="ca" maskUnits="userSpaceOnUse" x="5" y="5" width="15" height="15"><path fill-rule="evenodd" clip-rule="evenodd" d="M19.054 11.425c0 .832-.13 1.594-.387 2.285-.258.69-.62 1.228-1.09 1.608-.47.38-1.008.572-1.617.572-.504 0-.93-.153-1.274-.457a1.834 1.834 0 0 1-.616-1.17H14c-.234.51-.57.91-1.006 1.196-.437.286-.954.43-1.552.43-.88 0-1.566-.3-2.06-.9-.496-.602-.743-1.418-.743-2.45 0-1.194.344-2.165 1.036-2.913.69-.747 1.6-1.12 2.724-1.12.4 0 .85.036 1.354.11a8.54 8.54 0 0 1 1.362.303l-.22 4.13v.194c0 1.043.39 1.565 1.17 1.565.533 0 .966-.316 1.3-.946.334-.63.5-1.45.5-2.457 0-1.06-.216-1.99-.65-2.786a4.482 4.482 0 0 0-1.85-1.84c-.8-.43-1.718-.646-2.755-.646-1.305 0-2.442.27-3.41.813a5.397 5.397 0 0 0-2.214 2.32c-.51 1.005-.764 2.167-.764 3.485 0 1.787.47 3.16 1.415 4.122.943.96 2.302 1.44 4.078 1.44 1.23 0 2.508-.25 3.832-.754v1.17c-1.125.49-2.402.737-3.832.737-2.127 0-3.778-.585-4.953-1.754C5.587 16.543 5 14.91 5 12.813c0-1.523.313-2.88.94-4.07A6.68 6.68 0 0 1 8.62 5.98C9.78 5.327 11.11 5 12.61 5c1.26 0 2.382.265 3.363.795a5.56 5.56 0 0 1 2.277 2.26c.536.975.804 2.098.804 3.37zm-9.088 1.15c0 1.49.57 2.234 1.714 2.234 1.213 0 1.872-.918 1.977-2.752l.123-2.294a5.142 5.142 0 0 0-1.38-.176c-.76 0-1.358.264-1.788.79-.43.528-.646 1.26-.646 2.198z" fill="#fff"/></mask><path fill="#434890" d="M0 0h24v24H0z" mask="url(#ca)"/></svg>