<svg viewBox="0 0 28 20" xmlns="http://www.w3.org/2000/svg"><path fill-rule="evenodd" clip-rule="evenodd" d="M23.553 5a.833.833 0 0 1 0 1.667H4.317a.833.833 0 0 1 0-1.667h19.236zm0 4.167a.833.833 0 0 1 0 1.666H4.317a.833.833 0 0 1 0-1.666h19.236zm.833 5a.833.833 0 0 0-.833-.834H4.317a.833.833 0 0 0 0 1.667h19.236c.46 0 .833-.373.833-.833z" fill="#D8D8D8"/><mask id="ba" maskUnits="userSpaceOnUse" x="3" y="5" width="22" height="10"><path fill-rule="evenodd" clip-rule="evenodd" d="M23.553 5a.833.833 0 0 1 0 1.667H4.317a.833.833 0 0 1 0-1.667h19.236zm0 4.167a.833.833 0 0 1 0 1.666H4.317a.833.833 0 0 1 0-1.666h19.236zm.833 5a.833.833 0 0 0-.833-.834H4.317a.833.833 0 0 0 0 1.667h19.236c.46 0 .833-.373.833-.833z" fill="#fff"/></mask><path mask="url(#ba)" fill="#0C0033" d="M0 0h27.87v20H0z"/></svg>