<svg width="220" height="40" viewBox="0 0 220 40" fill="none" xmlns="http://www.w3.org/2000/svg">
<g clip-path="url(#clip0)">
<path fill-rule="evenodd" clip-rule="evenodd" d="M74.7352 28.0807V11.5603H72.2402V19.7236H72.1843C71.5583 18.6218 70.1403 17.633 68.0386 17.633C64.6886 17.633 61.849 20.427 61.8779 24.9744C61.8779 29.1251 64.4324 31.921 67.7536 31.921C69.996 31.921 71.6701 30.7635 72.4368 29.2382H72.4928L72.6064 31.6105H74.8488C74.764 30.6792 74.7352 29.2956 74.7352 28.0807ZM72.1229 22.4602C72.2077 22.7707 72.2366 23.1942 72.2366 23.5047H72.2348V25.8788C72.2348 26.2736 72.2059 26.6128 72.1211 26.9519C71.6665 28.8147 70.1349 29.9165 68.459 29.9165C65.762 29.9165 64.3999 27.6285 64.3999 24.8613C64.3999 21.8393 65.9333 19.58 68.5167 19.58C70.3911 19.58 71.7531 20.8793 72.1229 22.4602ZM80.7822 15.6267C81.7763 15.6267 82.4005 14.9484 82.3716 14.1014C82.3716 13.2257 81.7745 12.5473 80.84 12.5473C79.9307 12.5473 79.2777 13.2257 79.2777 14.1014C79.2777 14.9484 79.9019 15.6267 80.7822 15.6267ZM79.5898 17.9417V31.6088H82.0884V17.9417H79.5898ZM86.9411 22.2054C86.9411 20.5957 86.9122 19.2121 86.8274 17.9416H89.0139L89.0987 20.6244H89.2123C89.8365 18.7886 91.3411 17.6311 93.017 17.6311C93.3003 17.6311 93.5005 17.6599 93.726 17.7155V20.0591C93.4699 20.0035 93.2155 19.9748 92.8745 19.9748C91.1138 19.9748 89.8654 21.3027 89.5244 23.1655C89.4685 23.5046 89.4108 23.8994 89.4108 24.3229V31.6087H86.9411V22.2054ZM102.753 29.9721C100.255 29.9721 98.0972 28.5885 98.0413 25.2274H107.693L107.698 25.1803L107.701 25.1529L107.708 25.0903L107.708 25.0902C107.737 24.8401 107.778 24.4937 107.778 24.0699C107.778 21.5558 106.585 17.6311 102.1 17.6311C98.0972 17.6311 95.6564 20.8774 95.6564 25.0013C95.6564 29.1251 98.182 31.8922 102.412 31.8922C104.599 31.8922 106.103 31.44 106.984 31.0452L106.558 29.2669C105.62 29.6616 104.541 29.9721 102.753 29.9721ZM101.902 19.4113C104.713 19.4113 105.394 21.868 105.366 23.449H98.0701C98.2686 21.7263 99.3744 19.4113 101.902 19.4113ZM121.378 31.1006C120.725 31.4397 119.276 31.8919 117.433 31.8919C113.289 31.8919 110.592 29.0961 110.592 24.9166C110.592 20.7085 113.487 17.6596 117.972 17.6596C119.448 17.6596 120.754 18.0274 121.436 18.3648L120.868 20.285C120.272 19.9458 119.334 19.6353 117.972 19.6353C114.82 19.6353 113.117 21.9503 113.117 24.8036C113.117 27.9655 115.161 29.9144 117.887 29.9144C119.307 29.9144 120.243 29.5465 120.954 29.236L121.378 31.1006ZM128.39 17.941V14.0163L125.951 14.666V17.941H123.823V19.8342H125.951V27.2887C125.951 28.8984 126.207 30.1133 126.916 30.8472C127.512 31.5255 128.45 31.8916 129.613 31.8916C130.578 31.8916 131.343 31.7499 131.827 31.5525L131.713 29.688C131.399 29.7723 130.918 29.8566 130.265 29.8566C128.872 29.8566 128.39 28.8966 128.39 27.2025V19.8324H131.968V17.941H128.39ZM139.631 11.5603H142.13V20.0879H142.186C142.582 19.3826 143.208 18.7599 143.973 18.3364C144.711 17.9129 145.592 17.6312 146.528 17.6312C148.373 17.6312 151.325 18.7599 151.325 23.4759V31.6087H148.826V23.7595C148.826 21.5576 148.003 19.6931 145.647 19.6931C144.029 19.6931 142.752 20.8218 142.297 22.1785C142.155 22.5177 142.128 22.8838 142.128 23.3647V31.6105H139.631V11.5603ZM162.199 29.9721C159.701 29.9721 157.543 28.5885 157.487 25.2274H167.14L167.145 25.1865L167.153 25.1249C167.183 24.8726 167.225 24.5137 167.225 24.0699C167.225 21.5558 166.033 17.6311 161.548 17.6311C157.545 17.6311 155.104 20.8774 155.104 25.0013C155.104 29.1251 157.63 31.8922 161.86 31.8922C164.045 31.8922 165.549 31.44 166.43 31.0452L166.004 29.2669C165.066 29.6616 163.987 29.9721 162.199 29.9721ZM161.348 19.4113C164.158 19.4113 164.84 21.868 164.812 23.449H157.516C157.715 21.7263 158.822 19.4113 161.348 19.4113ZM171.03 22.2054C171.03 20.5957 171.001 19.2121 170.916 17.9416H173.103L173.188 20.6244H173.301C173.926 18.7886 175.43 17.6311 177.106 17.6311C177.389 17.6311 177.59 17.6599 177.815 17.7155V20.0591C177.559 20.0035 177.305 19.9748 176.964 19.9748C175.203 19.9748 173.954 21.3027 173.613 23.1655C173.558 23.5046 173.5 23.8994 173.5 24.3229V31.6087H171.03V22.2054ZM186.332 31.9192C189.653 31.9192 193.172 29.7173 193.172 24.6621C193.172 20.4826 190.504 17.6311 186.559 17.6311C182.754 17.6311 179.745 20.314 179.745 24.8882C179.745 29.2076 182.614 31.9192 186.332 31.9192ZM186.444 30.0564C184.003 30.0564 182.271 27.7971 182.271 24.8039C182.271 22.2054 183.55 19.4957 186.499 19.4957C189.453 19.4957 190.616 22.4333 190.616 24.7482C190.616 27.8258 188.828 30.0564 186.444 30.0564ZM198.426 25.2274C198.482 28.5885 200.639 29.9721 203.138 29.9721C204.926 29.9721 206.005 29.6616 206.943 29.2669L207.368 31.0452C206.488 31.44 204.983 31.8922 202.799 31.8922C198.568 31.8922 196.043 29.1251 196.043 25.0013C196.043 20.8774 198.484 17.6311 202.487 17.6311C206.971 17.6311 208.164 21.5558 208.164 24.0699C208.164 24.5135 208.121 24.8722 208.091 25.1245L208.091 25.1248L208.091 25.128C208.087 25.1632 208.083 25.1964 208.079 25.2274H198.426ZM205.75 23.449C205.779 21.868 205.097 19.4113 202.286 19.4113C199.761 19.4113 198.653 21.7263 198.455 23.449H205.75ZM214.918 30.056C213.67 30.056 212.364 29.5482 211.626 29.0672L211.003 30.9587C211.969 31.5239 213.36 31.89 214.864 31.89C218.128 31.89 220.002 30.196 220.002 27.7949C220.002 25.7617 218.781 24.5755 216.396 23.6711C214.606 22.9945 213.783 22.4849 213.783 21.3561C213.783 20.3386 214.608 19.4916 216.084 19.4916C217.361 19.4916 218.355 19.9439 218.894 20.283L219.518 18.4759C218.752 18.0237 217.53 17.6289 216.14 17.6289C213.186 17.6289 211.399 19.4378 211.399 21.6397C211.399 23.2781 212.562 24.633 215.032 25.5087C216.877 26.187 217.586 26.8366 217.586 28.0228C217.586 29.1516 216.735 30.056 214.918 30.056Z" fill="url(#paint0_linear)"/>
<path d="M18.3055 39.9998C18.2207 39.9998 18.1359 39.989 18.0547 39.9657C17.7246 39.8759 17.4702 39.6086 17.353 39.2317L11.6 23.4632C11.5711 23.3717 11.5855 23.1707 11.6234 22.9212L11.3474 22.984L11.9121 21.5359C11.9229 21.4892 11.9337 21.4461 11.9427 21.4084C12.4046 19.5457 12.6517 19.377 12.7708 19.2981C12.9331 19.1886 13.1334 19.1958 13.2813 19.3142L13.487 19.4793L12.5976 21.7602C12.5796 21.832 12.5633 21.9037 12.5471 21.9737L20.6561 20.1164L17.4865 18.356L31.0563 13.0998L28.6155 11.6014L55.4466 3.23526L52.2787 6.54437L51.0105 7.10068L43.2893 11.0522L44.139 12.0913L46.3219 12.6942L35.0486 17.6471L35.6295 17.7709L39.0607 18.9087L38.8244 19.6283L40.2676 20.0895L39.896 20.2617L40.0295 20.26L22.2671 28.495C22.4132 28.5561 22.5792 28.6171 22.7037 28.6637C22.9328 28.7499 23.1691 28.8378 23.3549 28.9275L26.53 30.6251C26.714 30.7149 26.9973 30.7615 27.2462 30.8028C27.6467 30.8692 27.9949 30.9266 28.0887 31.246C28.1464 31.4417 28.0706 31.6337 27.865 31.8203L19.1606 39.6319C18.8954 39.8723 18.5941 39.9998 18.3055 39.9998ZM12.2981 23.273L18.0367 39.0056C18.0674 39.1025 18.1269 39.2425 18.246 39.2748C18.3614 39.3071 18.5238 39.2407 18.6789 39.1007L27.1326 31.5134H27.1289C26.8457 31.4668 26.4921 31.4076 26.2017 31.2658L23.0266 29.5682C22.8841 29.5 22.664 29.4174 22.4511 29.3367C21.7782 29.0854 21.293 28.9042 21.2767 28.4968C21.2713 28.3748 21.3146 28.1469 21.6501 27.9908L36.7083 21.0101L36.573 21.0119L38.2958 20.2133L37.9134 20.0913L38.1515 19.3645L35.4202 18.4582L32.7088 17.8894L44.1859 12.8485L43.7259 12.7211L42.169 10.8189L50.7092 6.44747L51.8548 5.945L52.9985 4.74985L30.3401 11.8167L32.6673 13.2469L19.175 18.4726L22.6424 20.3981L12.3811 22.749C12.3342 22.9858 12.3053 23.1743 12.2981 23.273Z" fill="url(#paint1_linear)"/>
<path d="M31.8086 17.7373V22.6687L38.074 19.7328L31.8086 17.7373Z" fill="url(#paint2_linear)"/>
<path d="M31.8086 17.7373V22.6687L38.074 19.7328L31.8086 17.7373Z" fill="#1B1E24" fill-opacity="0.45"/>
<path d="M40.3054 11.3883V15.4206L45.2484 12.7557L40.3054 11.3883Z" fill="url(#paint3_linear)"/>
<path d="M40.3054 11.3883V15.4206L45.2484 12.7557L40.3054 11.3883Z" fill="#1B1E24" fill-opacity="0.45"/>
<path d="M58.1309 0.0735708L0.555669 17.8179C-0.138878 18.0314 -0.189391 18.4621 0.445624 18.7725L12.4351 24.7124L24.0061 19.8277L19.4582 18.3239L34.1122 12.8668L30.3689 11.8295L52.69 5.24899L40.309 11.3719L43.9315 12.3733L31.8265 17.7353L37.7762 19.6375L19.6837 28.2046C20.3205 28.5132 27.7963 32.1166 28.4314 32.4271L37.0383 36.6119C37.6751 36.9206 38.4455 36.7322 38.7521 36.1902L58.8399 0.667559C59.1448 0.127407 58.8273 -0.139978 58.1309 0.0735708Z" fill="url(#paint4_linear)"/>
<path d="M19.6873 28.2066L18.4227 38.7997L18.3325 39.6091C18.3325 39.6091 18.6212 39.627 18.9928 39.2717L19.3139 38.9828L27.2534 31.8657L20.786 28.7163" fill="url(#paint5_linear)"/>
<path d="M19.6873 28.2066L18.4227 38.7997L18.3325 39.6091C18.3325 39.6091 18.6212 39.627 18.9928 39.2717L19.3139 38.9828L27.2534 31.8657L20.786 28.7163" fill="#1B1E24" fill-opacity="0.45"/>
</g>
<defs>
<linearGradient id="paint0_linear" x1="61.8771" y1="21.741" x2="220.002" y2="21.741" gradientUnits="userSpaceOnUse">
<stop offset="0.6016" stop-color="#661ACE"/>
<stop offset="1" stop-color="#2665F9"/>
</linearGradient>
<linearGradient id="paint1_linear" x1="11.3473" y1="21.6181" x2="55.4465" y2="21.6181" gradientUnits="userSpaceOnUse">
<stop offset="0.6016" stop-color="#661ACE"/>
<stop offset="1" stop-color="#2665F9"/>
</linearGradient>
<linearGradient id="paint2_linear" x1="31.8095" y1="20.2029" x2="38.0745" y2="20.2029" gradientUnits="userSpaceOnUse">
<stop offset="0.6016" stop-color="#661ACE"/>
<stop offset="1" stop-color="#4E5BA8"/>
</linearGradient>
<linearGradient id="paint3_linear" x1="40.305" y1="13.4046" x2="45.2478" y2="13.4046" gradientUnits="userSpaceOnUse">
<stop stop-color="#661ACE"/>
<stop offset="0.0662" stop-color="#631DD0"/>
<stop offset="1" stop-color="#2665F9"/>
</linearGradient>
<linearGradient id="paint4_linear" x1="3.11906e-05" y1="18.3808" x2="58.9557" y2="18.3808" gradientUnits="userSpaceOnUse">
<stop offset="0.6016" stop-color="#661ACE"/>
<stop offset="1" stop-color="#2665F9"/>
</linearGradient>
<linearGradient id="paint5_linear" x1="18.3313" y1="33.9074" x2="27.2513" y2="33.9074" gradientUnits="userSpaceOnUse">
<stop offset="0.6016" stop-color="#661ACE"/>
<stop offset="1" stop-color="#4E3F8F"/>
</linearGradient>
<clipPath id="clip0">
<path d="M0 0H220V40H0V0Z" fill="white"/>
</clipPath>
</defs>
</svg>
