<svg width="148" height="29" viewBox="0 0 148 29" fill="none" xmlns="http://www.w3.org/2000/svg">
<g clip-path="url(#clip0)">
<path d="M40.7646 9.35815V18.4444C40.7646 19.1126 40.7803 19.8735 40.8266 20.3858H39.6034L39.5414 19.081H39.5109C39.0927 19.9199 38.1796 20.5565 36.9565 20.5565C35.1449 20.5565 33.7515 19.0188 33.7515 16.7359C33.7358 14.2349 35.2846 12.6981 37.1119 12.6981C38.2583 12.6981 39.0317 13.242 39.3732 13.848H39.4037V9.35815H40.7646ZM39.4017 15.9276C39.4017 15.7568 39.386 15.5239 39.3397 15.3531C39.138 14.4836 38.3951 13.769 37.3727 13.769C35.9636 13.769 35.1272 15.0116 35.1272 16.6737C35.1272 18.1957 35.8701 19.4541 37.3412 19.4541C38.2553 19.4541 39.0908 18.8481 39.3387 17.8236C39.385 17.637 39.4007 17.4505 39.4007 17.2333V15.9276H39.4017Z" fill="white"/>
<path d="M44.9299 10.7557C44.9456 11.2216 44.6052 11.5947 44.063 11.5947C43.5828 11.5947 43.2423 11.2216 43.2423 10.7557C43.2423 10.2741 43.5985 9.901 44.0945 9.901C44.6042 9.901 44.9299 10.2741 44.9299 10.7557ZM43.4125 20.3848V12.8679H44.7754V20.3848H43.4125Z" fill="white"/>
<path d="M47.4223 15.213C47.4223 14.3277 47.4066 13.5667 47.3604 12.8679H48.553L48.5992 14.3434H48.6612C49.0017 13.3338 49.8224 12.6971 50.7365 12.6971C50.891 12.6971 51.0002 12.7129 51.1232 12.7435V14.0325C50.9835 14.0019 50.8448 13.9862 50.6588 13.9862C49.6984 13.9862 49.0174 14.7165 48.8315 15.741C48.801 15.9276 48.7695 16.1447 48.7695 16.3776V20.3848H47.4223V15.213Z" fill="white"/>
<path d="M53.477 16.8751C53.5075 18.7237 54.6844 19.4847 56.0472 19.4847C57.0224 19.4847 57.6108 19.3139 58.1225 19.0968L58.3547 20.0749C57.8745 20.292 57.0539 20.5408 55.8612 20.5408C53.5537 20.5408 52.1761 19.0188 52.1761 16.7507C52.1761 14.4826 53.5075 12.6971 55.691 12.6971C58.1372 12.6971 58.7877 14.8557 58.7877 16.2385C58.7877 16.5178 58.7562 16.7359 58.7414 16.8751H53.477ZM57.4721 15.897C57.4878 15.0274 57.1158 13.6762 55.5828 13.6762C54.2042 13.6762 53.601 14.9495 53.4927 15.897H57.4721Z" fill="white"/>
<path d="M66.2061 20.1053C65.8499 20.2919 65.0598 20.5406 64.0541 20.5406C61.7938 20.5406 60.3228 19.0029 60.3228 16.7042C60.3228 14.3897 61.9021 12.7128 64.3483 12.7128C65.1533 12.7128 65.8657 12.9151 66.2376 13.1007L65.9277 14.1567C65.6029 13.9702 65.0913 13.7994 64.3483 13.7994C62.6293 13.7994 61.7004 15.0727 61.7004 16.642C61.7004 18.381 62.8152 19.4529 64.3021 19.4529C65.0765 19.4529 65.5872 19.2506 65.9749 19.0798L66.2061 20.1053Z" fill="white"/>
<path d="M70.031 10.709V12.8675H71.9823V13.9078H70.031V17.9614C70.031 18.8931 70.2937 19.4211 71.0534 19.4211C71.4096 19.4211 71.6723 19.3748 71.8435 19.3284L71.9055 20.3538C71.6418 20.4624 71.2246 20.5404 70.6981 20.5404C70.0634 20.5404 69.5518 20.339 69.2271 19.966C68.8403 19.5623 68.7006 18.8941 68.7006 18.0088V13.9088H67.5395V12.8675H68.7006V11.0663L70.031 10.709Z" fill="white"/>
<path d="M76.1624 9.35815H77.5252V14.0483H77.5557C77.7722 13.6604 78.1136 13.318 78.5309 13.085C78.9333 12.8521 79.4135 12.6971 79.9242 12.6971C80.9309 12.6971 82.5407 13.318 82.5407 15.9118V20.3848H81.1778V16.0677C81.1778 14.8567 80.7291 13.8312 79.444 13.8312C78.5614 13.8312 77.8647 14.452 77.6167 15.1982C77.539 15.3847 77.5242 15.5861 77.5242 15.8506V20.3858H76.1624V9.35815Z" fill="white"/>
<path d="M85.9021 16.8751C85.9326 18.7237 87.1095 19.4847 88.4723 19.4847C89.4475 19.4847 90.0359 19.3139 90.5476 19.0968L90.7798 20.0749C90.2996 20.292 89.4789 20.5408 88.2873 20.5408C85.9798 20.5408 84.6022 19.0188 84.6022 16.7507C84.6022 14.4826 85.9336 12.6971 88.1171 12.6971C90.5633 12.6971 91.2137 14.8557 91.2137 16.2385C91.2137 16.5178 91.1832 16.7359 91.1675 16.8751H85.9021ZM89.8971 15.897C89.9129 15.0274 89.5409 13.6762 88.0079 13.6762C86.6303 13.6762 86.0261 14.9495 85.9178 15.897H89.8971Z" fill="white"/>
<path d="M93.2891 15.213C93.2891 14.3277 93.2734 13.5667 93.2271 12.8679H94.4197L94.466 14.3434H94.528C94.8684 13.3338 95.6891 12.6971 96.6033 12.6971C96.7577 12.6971 96.867 12.7129 96.99 12.7435V14.0325C96.8502 14.0019 96.7115 13.9862 96.5255 13.9862C95.5651 13.9862 94.8842 14.7165 94.6982 15.741C94.6677 15.9276 94.6362 16.1447 94.6362 16.3776V20.3848H93.2891V15.213Z" fill="white"/>
<path d="M105.367 16.5642C105.367 19.3445 103.447 20.5556 101.635 20.5556C99.6074 20.5556 98.0428 19.0642 98.0428 16.6885C98.0428 14.1727 99.6841 12.6971 101.759 12.6971C103.911 12.6971 105.367 14.2655 105.367 16.5642ZM99.4204 16.6421C99.4204 18.2884 100.365 19.5311 101.696 19.5311C102.997 19.5311 103.972 18.3042 103.972 16.6115C103.972 15.3383 103.338 13.7226 101.727 13.7226C100.118 13.7226 99.4204 15.213 99.4204 16.6421Z" fill="white"/>
<path d="M108.232 16.8751C108.263 18.7237 109.44 19.4847 110.802 19.4847C111.778 19.4847 112.366 19.3139 112.878 19.0968L113.11 20.0749C112.63 20.292 111.809 20.5408 110.617 20.5408C108.31 20.5408 106.932 19.0188 106.932 16.7507C106.932 14.4826 108.264 12.6971 110.447 12.6971C112.893 12.6971 113.544 14.8557 113.544 16.2385C113.544 16.5178 113.513 16.7359 113.498 16.8751H108.232ZM112.227 15.897C112.243 15.0274 111.871 13.6762 110.338 13.6762C108.96 13.6762 108.356 14.9495 108.248 15.897H112.227Z" fill="white"/>
<path d="M115.432 18.987C115.835 19.2515 116.547 19.5308 117.228 19.5308C118.219 19.5308 118.683 19.0334 118.683 18.4126C118.683 17.7602 118.297 17.4029 117.29 17.0298C115.943 16.5481 115.308 15.803 115.308 14.9018C115.308 13.6908 116.283 12.6959 117.894 12.6959C118.653 12.6959 119.319 12.9131 119.737 13.1618L119.397 14.1557C119.103 13.9691 118.56 13.7204 117.864 13.7204C117.059 13.7204 116.609 14.1863 116.609 14.7459C116.609 15.3667 117.058 15.647 118.034 16.0191C119.335 16.5166 120.001 17.169 120.001 18.2872C120.001 19.6078 118.979 20.5395 117.199 20.5395C116.378 20.5395 115.619 20.3382 115.093 20.0273L115.432 18.987Z" fill="white"/>
<path d="M40.7646 9.35815V18.4444C40.7646 19.1126 40.7803 19.8735 40.8266 20.3858H39.6034L39.5414 19.081H39.5109C39.0927 19.9199 38.1796 20.5565 36.9565 20.5565C35.1449 20.5565 33.7515 19.0188 33.7515 16.7359C33.7358 14.2349 35.2846 12.6981 37.1119 12.6981C38.2583 12.6981 39.0317 13.242 39.3732 13.848H39.4037V9.35815H40.7646ZM39.4017 15.9276C39.4017 15.7568 39.386 15.5239 39.3397 15.3531C39.138 14.4836 38.3951 13.769 37.3727 13.769C35.9636 13.769 35.1272 15.0116 35.1272 16.6737C35.1272 18.1957 35.8701 19.4541 37.3412 19.4541C38.2553 19.4541 39.0908 18.8481 39.3387 17.8236C39.385 17.637 39.4007 17.4505 39.4007 17.2333V15.9276H39.4017Z" fill="url(#paint0_linear)"/>
<path d="M44.9299 10.7557C44.9456 11.2216 44.6052 11.5947 44.063 11.5947C43.5828 11.5947 43.2423 11.2216 43.2423 10.7557C43.2423 10.2741 43.5985 9.901 44.0945 9.901C44.6042 9.901 44.9299 10.2741 44.9299 10.7557ZM43.4125 20.3848V12.8679H44.7754V20.3848H43.4125Z" fill="url(#paint1_linear)"/>
<path d="M47.4223 15.213C47.4223 14.3277 47.4066 13.5667 47.3604 12.8679H48.553L48.5992 14.3434H48.6612C49.0017 13.3338 49.8224 12.6971 50.7365 12.6971C50.891 12.6971 51.0002 12.7129 51.1232 12.7435V14.0325C50.9835 14.0019 50.8448 13.9862 50.6588 13.9862C49.6984 13.9862 49.0174 14.7165 48.8315 15.741C48.801 15.9276 48.7695 16.1447 48.7695 16.3776V20.3848H47.4223V15.213Z" fill="url(#paint2_linear)"/>
<path d="M53.477 16.8751C53.5075 18.7237 54.6844 19.4847 56.0472 19.4847C57.0224 19.4847 57.6108 19.3139 58.1225 19.0968L58.3547 20.0749C57.8745 20.292 57.0539 20.5408 55.8612 20.5408C53.5537 20.5408 52.1761 19.0188 52.1761 16.7507C52.1761 14.4826 53.5075 12.6971 55.691 12.6971C58.1372 12.6971 58.7877 14.8557 58.7877 16.2385C58.7877 16.5178 58.7562 16.7359 58.7414 16.8751H53.477ZM57.4721 15.897C57.4878 15.0274 57.1158 13.6762 55.5828 13.6762C54.2042 13.6762 53.601 14.9495 53.4927 15.897H57.4721Z" fill="url(#paint3_linear)"/>
<path d="M66.2061 20.1053C65.8499 20.2919 65.0598 20.5406 64.0541 20.5406C61.7938 20.5406 60.3228 19.0029 60.3228 16.7042C60.3228 14.3897 61.9021 12.7128 64.3483 12.7128C65.1533 12.7128 65.8657 12.9151 66.2376 13.1007L65.9277 14.1567C65.6029 13.9702 65.0913 13.7994 64.3483 13.7994C62.6293 13.7994 61.7004 15.0727 61.7004 16.642C61.7004 18.381 62.8152 19.4529 64.3021 19.4529C65.0765 19.4529 65.5872 19.2506 65.9749 19.0798L66.2061 20.1053Z" fill="url(#paint4_linear)"/>
<path d="M70.031 10.709V12.8675H71.9823V13.9078H70.031V17.9614C70.031 18.8931 70.2937 19.4211 71.0534 19.4211C71.4096 19.4211 71.6723 19.3748 71.8435 19.3284L71.9055 20.3538C71.6418 20.4624 71.2246 20.5404 70.6981 20.5404C70.0634 20.5404 69.5518 20.339 69.2271 19.966C68.8403 19.5623 68.7006 18.8941 68.7006 18.0088V13.9088H67.5395V12.8675H68.7006V11.0663L70.031 10.709Z" fill="url(#paint5_linear)"/>
<path d="M76.1624 9.35815H77.5252V14.0483H77.5557C77.7722 13.6604 78.1136 13.318 78.5309 13.085C78.9333 12.8521 79.4135 12.6971 79.9242 12.6971C80.9309 12.6971 82.5407 13.318 82.5407 15.9118V20.3848H81.1778V16.0677C81.1778 14.8567 80.7291 13.8312 79.444 13.8312C78.5614 13.8312 77.8647 14.452 77.6167 15.1982C77.539 15.3847 77.5242 15.5861 77.5242 15.8506V20.3858H76.1624V9.35815Z" fill="url(#paint6_linear)"/>
<path d="M85.9021 16.8751C85.9326 18.7237 87.1095 19.4847 88.4723 19.4847C89.4475 19.4847 90.0359 19.3139 90.5476 19.0968L90.7798 20.0749C90.2996 20.292 89.4789 20.5408 88.2873 20.5408C85.9798 20.5408 84.6022 19.0188 84.6022 16.7507C84.6022 14.4826 85.9336 12.6971 88.1171 12.6971C90.5633 12.6971 91.2137 14.8557 91.2137 16.2385C91.2137 16.5178 91.1832 16.7359 91.1675 16.8751H85.9021ZM89.8971 15.897C89.9129 15.0274 89.5409 13.6762 88.0079 13.6762C86.6303 13.6762 86.0261 14.9495 85.9178 15.897H89.8971Z" fill="url(#paint7_linear)"/>
<path d="M93.2891 15.213C93.2891 14.3277 93.2734 13.5667 93.2271 12.8679H94.4197L94.466 14.3434H94.528C94.8684 13.3338 95.6891 12.6971 96.6033 12.6971C96.7577 12.6971 96.867 12.7129 96.99 12.7435V14.0325C96.8502 14.0019 96.7115 13.9862 96.5255 13.9862C95.5651 13.9862 94.8842 14.7165 94.6982 15.741C94.6677 15.9276 94.6362 16.1447 94.6362 16.3776V20.3848H93.2891V15.213Z" fill="url(#paint8_linear)"/>
<path d="M105.367 16.5642C105.367 19.3445 103.447 20.5556 101.635 20.5556C99.6074 20.5556 98.0428 19.0642 98.0428 16.6885C98.0428 14.1727 99.6841 12.6971 101.759 12.6971C103.911 12.6971 105.367 14.2655 105.367 16.5642ZM99.4204 16.6421C99.4204 18.2884 100.365 19.5311 101.696 19.5311C102.997 19.5311 103.972 18.3042 103.972 16.6115C103.972 15.3383 103.338 13.7226 101.727 13.7226C100.118 13.7226 99.4204 15.213 99.4204 16.6421Z" fill="url(#paint9_linear)"/>
<path d="M108.232 16.8751C108.263 18.7237 109.44 19.4847 110.802 19.4847C111.778 19.4847 112.366 19.3139 112.878 19.0968L113.11 20.0749C112.63 20.292 111.809 20.5408 110.617 20.5408C108.31 20.5408 106.932 19.0188 106.932 16.7507C106.932 14.4826 108.264 12.6971 110.447 12.6971C112.893 12.6971 113.544 14.8557 113.544 16.2385C113.544 16.5178 113.513 16.7359 113.498 16.8751H108.232ZM112.227 15.897C112.243 15.0274 111.871 13.6762 110.338 13.6762C108.96 13.6762 108.356 14.9495 108.248 15.897H112.227Z" fill="url(#paint10_linear)"/>
<path d="M115.432 18.987C115.835 19.2515 116.547 19.5308 117.228 19.5308C118.219 19.5308 118.683 19.0334 118.683 18.4126C118.683 17.7602 118.297 17.4029 117.29 17.0298C115.943 16.5481 115.308 15.803 115.308 14.9018C115.308 13.6908 116.283 12.6959 117.894 12.6959C118.653 12.6959 119.319 12.9131 119.737 13.1618L119.397 14.1557C119.103 13.9691 118.56 13.7204 117.864 13.7204C117.059 13.7204 116.609 14.1863 116.609 14.7459C116.609 15.3667 117.058 15.647 118.034 16.0191C119.335 16.5166 120.001 17.169 120.001 18.2872C120.001 19.6078 118.979 20.5395 117.199 20.5395C116.378 20.5395 115.619 20.3382 115.093 20.0273L115.432 18.987Z" fill="url(#paint11_linear)"/>
<path d="M9.98477 24.9999C9.93853 24.9999 9.89228 24.994 9.848 24.9811C9.66792 24.9318 9.52918 24.7847 9.46522 24.5775L6.32721 15.9048C6.31147 15.8544 6.31934 15.7439 6.34001 15.6067L6.18945 15.6412L6.49745 14.8447C6.50335 14.8191 6.50926 14.7954 6.51418 14.7747C6.76608 13.7502 6.90089 13.6574 6.96584 13.614C7.0544 13.5538 7.16362 13.5577 7.24431 13.6229L7.35649 13.7137L6.87137 14.9681C6.86153 15.0076 6.85268 15.0471 6.84382 15.0856L11.2669 14.064L9.53803 13.0958L16.9397 10.2049L15.6084 9.38077L30.2435 4.77942L28.5156 6.59943L27.8239 6.9054L23.6123 9.07875L24.0758 9.65022L25.2664 9.98184L19.1174 12.7059L19.4342 12.774L21.3058 13.3998L21.1769 13.7956L21.9641 14.0492L21.7614 14.144L21.8342 14.143L12.1457 18.6723C12.2254 18.7059 12.3159 18.7394 12.3838 18.7651C12.5088 18.8124 12.6377 18.8608 12.739 18.9102L14.4709 19.8439C14.5712 19.8932 14.7257 19.9189 14.8615 19.9416C15.08 19.9781 15.2699 20.0097 15.3211 20.1854C15.3525 20.2929 15.3112 20.3985 15.199 20.5012L10.4512 24.7976C10.3065 24.9298 10.1422 24.9999 9.98477 24.9999ZM6.70803 15.8002L9.83816 24.4531C9.85489 24.5064 9.88736 24.5834 9.9523 24.6011C10.0153 24.6189 10.1038 24.5824 10.1885 24.5054L14.7995 20.3324C14.7985 20.3324 14.7985 20.3324 14.7976 20.3324C14.6431 20.3068 14.4502 20.2742 14.2918 20.1962L12.5599 19.2625C12.4822 19.225 12.3621 19.1796 12.246 19.1352C11.879 18.997 11.6143 18.8973 11.6054 18.6733C11.6025 18.6062 11.6261 18.4808 11.8091 18.3949L20.0226 14.5556L19.9488 14.5565L20.8886 14.1173L20.68 14.0502L20.8099 13.6505L19.3201 13.1521L17.8411 12.8392L24.1014 10.0667L23.8504 9.99665L23.0012 8.95044L27.6595 6.54613L28.2844 6.26977L28.9082 5.61244L16.5491 9.49921L17.8185 10.2858L10.4591 13.16L12.3503 14.219L6.75329 15.512C6.72771 15.6422 6.71196 15.7459 6.70803 15.8002Z" fill="url(#paint12_linear)"/>
<path d="M17.3501 12.7555V15.4677L20.7675 13.853L17.3501 12.7555Z" fill="url(#paint13_linear)"/>
<path d="M21.9848 9.26355V11.4813L24.681 10.0156L21.9848 9.26355Z" fill="url(#paint14_linear)"/>
<path opacity="0.45" d="M17.3501 12.7555V15.4677L20.7675 13.853L17.3501 12.7555Z" fill="black"/>
<path opacity="0.45" d="M21.9848 9.26355V11.4813L24.681 10.0156L21.9848 9.26355Z" fill="black"/>
<path d="M31.7078 3.04047L0.303142 12.7998C-0.0757018 12.9173 -0.103254 13.1542 0.243117 13.3249L6.78285 16.5918L13.0943 13.9053L10.6136 13.0782L18.6067 10.0767L16.5649 9.50624L28.74 5.88695L21.9868 9.25455L23.9627 9.80529L17.36 12.7544L20.6052 13.8006L10.7366 18.5125C11.084 18.6823 15.1617 20.6642 15.5081 20.8349L20.2028 23.1366C20.5501 23.3063 20.9703 23.2027 21.1376 22.9046L32.0945 3.36716C32.2608 3.07008 32.0876 2.92302 31.7078 3.04047Z" fill="url(#paint15_linear)"/>
<path d="M10.7385 18.5137L10.0487 24.3399L9.99951 24.785C9.99951 24.785 10.157 24.7949 10.3597 24.5995L10.5348 24.4405L14.8654 20.5261L11.3378 18.794" fill="url(#paint16_linear)"/>
<path opacity="0.45" d="M10.7385 18.5137L10.0487 24.3399L10.0113 24.6794C10.0113 24.6794 10.1766 24.6735 10.3784 24.4781L10.647 24.2362L14.7936 20.4916L11.3378 18.795" fill="black"/>
</g>
<defs>
<linearGradient id="paint0_linear" x1="33.7495" y1="14.957" x2="120.001" y2="14.957" gradientUnits="userSpaceOnUse">
<stop offset="0.6016" stop-color="#661ACE"/>
<stop offset="1" stop-color="#2665F9"/>
</linearGradient>
<linearGradient id="paint1_linear" x1="33.7494" y1="14.957" x2="120.001" y2="14.957" gradientUnits="userSpaceOnUse">
<stop offset="0.6016" stop-color="#661ACE"/>
<stop offset="1" stop-color="#2665F9"/>
</linearGradient>
<linearGradient id="paint2_linear" x1="33.7494" y1="14.957" x2="120.001" y2="14.957" gradientUnits="userSpaceOnUse">
<stop offset="0.6016" stop-color="#661ACE"/>
<stop offset="1" stop-color="#2665F9"/>
</linearGradient>
<linearGradient id="paint3_linear" x1="33.7495" y1="14.957" x2="120" y2="14.957" gradientUnits="userSpaceOnUse">
<stop offset="0.6016" stop-color="#661ACE"/>
<stop offset="1" stop-color="#2665F9"/>
</linearGradient>
<linearGradient id="paint4_linear" x1="33.7495" y1="14.9568" x2="120" y2="14.9568" gradientUnits="userSpaceOnUse">
<stop offset="0.6016" stop-color="#661ACE"/>
<stop offset="1" stop-color="#2665F9"/>
</linearGradient>
<linearGradient id="paint5_linear" x1="33.7498" y1="14.9566" x2="120" y2="14.9566" gradientUnits="userSpaceOnUse">
<stop offset="0.6016" stop-color="#661ACE"/>
<stop offset="1" stop-color="#2665F9"/>
</linearGradient>
<linearGradient id="paint6_linear" x1="33.7495" y1="14.957" x2="120" y2="14.957" gradientUnits="userSpaceOnUse">
<stop offset="0.6016" stop-color="#661ACE"/>
<stop offset="1" stop-color="#2665F9"/>
</linearGradient>
<linearGradient id="paint7_linear" x1="33.7499" y1="14.957" x2="120" y2="14.957" gradientUnits="userSpaceOnUse">
<stop offset="0.6016" stop-color="#661ACE"/>
<stop offset="1" stop-color="#2665F9"/>
</linearGradient>
<linearGradient id="paint8_linear" x1="33.7495" y1="14.957" x2="120" y2="14.957" gradientUnits="userSpaceOnUse">
<stop offset="0.6016" stop-color="#661ACE"/>
<stop offset="1" stop-color="#2665F9"/>
</linearGradient>
<linearGradient id="paint9_linear" x1="33.7494" y1="14.957" x2="120" y2="14.957" gradientUnits="userSpaceOnUse">
<stop offset="0.6016" stop-color="#661ACE"/>
<stop offset="1" stop-color="#2665F9"/>
</linearGradient>
<linearGradient id="paint10_linear" x1="33.7494" y1="14.957" x2="120" y2="14.957" gradientUnits="userSpaceOnUse">
<stop offset="0.6016" stop-color="#661ACE"/>
<stop offset="1" stop-color="#2665F9"/>
</linearGradient>
<linearGradient id="paint11_linear" x1="33.7496" y1="14.9567" x2="120" y2="14.9567" gradientUnits="userSpaceOnUse">
<stop offset="0.6016" stop-color="#661ACE"/>
<stop offset="1" stop-color="#2665F9"/>
</linearGradient>
<linearGradient id="paint12_linear" x1="6.18929" y1="14.8899" x2="30.2437" y2="14.8899" gradientUnits="userSpaceOnUse">
<stop offset="0.6016" stop-color="#661ACE"/>
<stop offset="1" stop-color="#2665F9"/>
</linearGradient>
<linearGradient id="paint13_linear" x1="17.3506" y1="14.1116" x2="20.7678" y2="14.1116" gradientUnits="userSpaceOnUse">
<stop offset="0.6016" stop-color="#661ACE"/>
<stop offset="1" stop-color="#4E5BA8"/>
</linearGradient>
<linearGradient id="paint14_linear" x1="21.9846" y1="10.3726" x2="24.6806" y2="10.3726" gradientUnits="userSpaceOnUse">
<stop stop-color="#661ACE"/>
<stop offset="0.0662" stop-color="#631DD0"/>
<stop offset="1" stop-color="#2665F9"/>
</linearGradient>
<linearGradient id="paint15_linear" x1="6.69509e-05" y1="13.1094" x2="32.1577" y2="13.1094" gradientUnits="userSpaceOnUse">
<stop offset="0.6016" stop-color="#661ACE"/>
<stop offset="1" stop-color="#2665F9"/>
</linearGradient>
<linearGradient id="paint16_linear" x1="9.99887" y1="21.6491" x2="14.8643" y2="21.6491" gradientUnits="userSpaceOnUse">
<stop offset="0.6016" stop-color="#661ACE"/>
<stop offset="1" stop-color="#4E3F8F"/>
</linearGradient>
<clipPath id="clip0">
<rect width="120" height="22" fill="white" transform="translate(0 3)"/>
</clipPath>
</defs>
</svg>
