<svg width="152" height="102" viewBox="0 0 152 102" fill="none" xmlns="http://www.w3.org/2000/svg">
<path d="M83.0489 68C82.905 68 82.7612 67.9817 82.6235 67.942C82.0635 67.7895 81.6321 67.3349 81.4332 66.6943L71.675 39.8878C71.626 39.7322 71.6505 39.3905 71.7148 38.9665L71.2466 39.0733L72.2043 36.6114C72.2227 36.532 72.2411 36.4588 72.2564 36.3948C73.0397 33.2281 73.4589 32.9414 73.6609 32.8071C73.9363 32.621 74.2759 32.6332 74.5269 32.8346L74.8757 33.1153L73.3671 36.9927C73.3365 37.1147 73.309 37.2367 73.2815 37.3557L87.036 34.1983L81.6596 31.2055L104.677 22.27L100.537 19.7227L146.047 5.50034L140.674 11.1258L138.523 12.0715L125.426 18.7892L126.868 20.5555L130.57 21.5806L111.448 30.0005L112.434 30.211L118.254 32.1451L117.853 33.3685L120.301 34.1525L119.67 34.4454L119.897 34.4423L89.7685 48.442C90.0164 48.5457 90.2979 48.6494 90.509 48.7287C90.8977 48.8752 91.2985 49.0246 91.6137 49.1772L96.9992 52.0631C97.3113 52.2157 97.7918 52.295 98.214 52.3652C98.8933 52.478 99.4839 52.5757 99.643 53.1187C99.7409 53.4512 99.6124 53.7776 99.2636 54.0949L84.4993 67.3746C84.0495 67.7834 83.5385 68 83.0489 68ZM72.8592 39.5644L82.5929 66.3099C82.6449 66.4746 82.7459 66.7126 82.9479 66.7675C83.1437 66.8224 83.4191 66.7095 83.6823 66.4716L98.0212 53.5732H98.0151C97.5347 53.4939 96.935 53.3932 96.4423 53.1522L91.0568 50.2663C90.815 50.1504 90.4417 50.01 90.0807 49.8727C88.9393 49.4456 88.1162 49.1375 88.0886 48.445C88.0794 48.2376 88.1529 47.8501 88.722 47.5847L114.264 35.7175L114.034 35.7206L116.956 34.363L116.308 34.1555L116.711 32.92L112.079 31.3794L107.48 30.4123L126.947 21.8429L126.167 21.6263L123.526 18.3926L138.012 10.9611L139.955 10.1069L141.895 8.07512L103.462 20.0888L107.409 22.5202L84.5238 31.4038L90.405 34.6772L72.9999 38.6736C72.9204 39.0763 72.8714 39.3966 72.8592 39.5644Z" fill="url(#paint0_linear)"/>
<path d="M105.953 30.1534V38.5374L116.58 33.5461L105.953 30.1534Z" fill="url(#paint1_linear)"/>
<path d="M105.953 30.1534V38.5374L116.58 33.5461L105.953 30.1534Z" fill="#1B1E24" fill-opacity="0.45"/>
<path d="M120.366 19.3601V26.2155L128.75 21.6849L120.366 19.3601Z" fill="url(#paint2_linear)"/>
<path d="M120.366 19.3601V26.2155L128.75 21.6849L120.366 19.3601Z" fill="#1B1E24" fill-opacity="0.45"/>
<path d="M150.601 0.12508L52.9421 30.2904C51.764 30.6534 51.6783 31.3856 52.7555 31.9133L73.092 42.0111L92.7186 33.7071L85.0044 31.1507L109.861 21.8735L103.511 20.1102L141.372 8.92329L120.371 19.3323L126.516 21.0346L105.984 30.15L116.075 33.3838L85.3869 47.9478C86.4671 48.4725 99.1476 54.5983 100.225 55.1261L114.824 62.2403C115.904 62.765 117.211 62.4447 117.731 61.5234L151.803 1.13486C152.321 0.216601 151.782 -0.237953 150.601 0.12508Z" fill="url(#paint3_linear)"/>
<path d="M85.3928 47.9513L83.2477 65.9596L83.0947 67.3354C83.0947 67.3354 83.5843 67.3659 84.2147 66.7619L84.7593 66.2707L98.2263 54.1717L87.2563 48.8177" fill="url(#paint4_linear)"/>
<path d="M85.3928 47.9513L83.2477 65.9596L83.0947 67.3354C83.0947 67.3354 83.5843 67.3659 84.2147 66.7619L84.7593 66.2707L98.2263 54.1717L87.2563 48.8177" fill="#1B1E24" fill-opacity="0.45"/>
<line opacity="0.6" x1="67.7477" y1="59.744" x2="1.37483" y2="100.331" stroke="#98A9BC" stroke-width="2" stroke-linecap="round" stroke-linejoin="round"/>
<line opacity="0.6" x1="57.6768" y1="46.3298" x2="25.3298" y2="61.4814" stroke="#98A9BC" stroke-width="2" stroke-linecap="round" stroke-linejoin="round"/>
<line opacity="0.6" x1="99.138" y1="68.4075" x2="77.4075" y2="94.862" stroke="#98A9BC" stroke-width="2" stroke-linecap="round" stroke-linejoin="round"/>
<line opacity="0.4" x1="87.9628" y1="72.7061" x2="78.7061" y2="81.0372" stroke="#98A9BC" stroke-linecap="round" stroke-linejoin="round"/>
<line opacity="0.4" x1="70.8771" y1="66.6963" x2="41.6963" y2="87.1229" stroke="#98A9BC" stroke-linecap="round" stroke-linejoin="round"/>
<line opacity="0.4" x1="51.8023" y1="40.611" x2="37.611" y2="44.3559" stroke="#98A9BC" stroke-linecap="round" stroke-linejoin="round"/>
<defs>
<linearGradient id="paint0_linear" x1="71.2463" y1="36.7512" x2="146.047" y2="36.7512" gradientUnits="userSpaceOnUse">
<stop offset="0.6016" stop-color="#661ACE"/>
<stop offset="1" stop-color="#2665F9"/>
</linearGradient>
<linearGradient id="paint1_linear" x1="105.955" y1="34.3452" x2="116.581" y2="34.3452" gradientUnits="userSpaceOnUse">
<stop offset="0.6016" stop-color="#661ACE"/>
<stop offset="1" stop-color="#4E5BA8"/>
</linearGradient>
<linearGradient id="paint2_linear" x1="120.365" y1="22.7881" x2="128.749" y2="22.7881" gradientUnits="userSpaceOnUse">
<stop stop-color="#661ACE"/>
<stop offset="0.0662" stop-color="#631DD0"/>
<stop offset="1" stop-color="#2665F9"/>
</linearGradient>
<linearGradient id="paint3_linear" x1="51.9996" y1="31.2473" x2="152" y2="31.2473" gradientUnits="userSpaceOnUse">
<stop offset="0.6016" stop-color="#661ACE"/>
<stop offset="1" stop-color="#2665F9"/>
</linearGradient>
<linearGradient id="paint4_linear" x1="83.0927" y1="57.6426" x2="98.2227" y2="57.6426" gradientUnits="userSpaceOnUse">
<stop offset="0.6016" stop-color="#661ACE"/>
<stop offset="1" stop-color="#4E3F8F"/>
</linearGradient>
</defs>
</svg>
