<svg viewBox="0 0 54 36" width="54" fill="none" xmlns="http://www.w3.org/2000/svg" ><path d="M16.64 36a.834.834 0 0 1-.227-.03c-.3-.082-.53-.322-.638-.66l-5.23-14.193c-.026-.082-.013-.263.022-.488l-.25.056.512-1.304c.01-.042.02-.08.027-.114.42-1.677.644-1.83.753-1.9a.39.39 0 0 1 .464.015l.187.148-.808 2.054c-.016.065-.03.13-.046.192l7.372-1.67-2.88-1.586 12.335-4.73-2.22-1.35 24.393-7.528-2.88 2.978-1.153.5-7.02 3.557.773.935 1.985.543-10.248 4.457.528.112 3.12 1.024-.215.647 1.312.416-.338.156.12-.002-16.147 7.41c.133.056.283.11.397.153.208.078.423.157.592.238l2.886 1.528c.167.08.425.122.65.16.365.06.682.11.767.398.052.177-.016.35-.203.518l-7.913 7.03c-.243.217-.516.332-.78.332zm-5.46-15.054l5.217 14.16c.028.086.082.212.19.24.105.03.253-.03.394-.155l7.686-6.828h-.003c-.258-.042-.58-.095-.843-.223l-2.887-1.53c-.13-.06-.33-.134-.523-.207-.612-.226-1.053-.39-1.068-.756-.005-.11.035-.315.34-.455l13.69-6.283h-.124l1.566-.718-.347-.11.216-.654-2.483-.816-2.465-.512 10.434-4.536-.42-.115-1.415-1.713L46.1 5.803l1.04-.452 1.04-1.075-20.598 6.36 2.115 1.287-12.265 4.703 3.152 1.733-9.33 2.116c-.04.213-.067.383-.074.472z" fill="url(#da)"/><path d="M28.917 15.964v4.438l5.695-2.643-5.695-1.796z" fill="url(#db)"/><path d="M28.917 15.964v4.438l5.695-2.643-5.695-1.796z" fill="#1B1E24" fill-opacity=".45"/><path d="M36.64 10.25v3.63l4.495-2.4-4.494-1.23z" fill="url(#dc)"/><path d="M36.64 10.25v3.63l4.495-2.4-4.494-1.23z" fill="#1B1E24" fill-opacity=".45"/><path d="M52.846.066L.506 16.036c-.632.192-.678.58-.1.86l10.9 5.345 10.518-4.395-4.135-1.354 13.32-4.91-3.402-.933L47.9 4.724l-11.255 5.51 3.293.902-11.005 4.826 5.41 1.712-16.45 7.71c.58.278 7.376 3.52 7.954 3.8l7.824 3.767c.58.278 1.28.11 1.56-.38L53.49.6c.278-.485-.01-.726-.644-.534z" fill="url(#dd)"/><path d="M17.897 25.386l-1.15 9.534-.08.728s.26.016.6-.304l.29-.26 7.22-6.405-5.88-2.835" fill="url(#de)"/><path d="M17.897 25.386l-1.15 9.534-.08.728s.26.016.6-.304l.29-.26 7.22-6.405-5.88-2.835" fill="#1B1E24" fill-opacity=".45"/><defs><linearGradient id="da" x1="10.316" y1="19.456" x2="50.406" y2="19.456" gradientUnits="userSpaceOnUse"><stop offset=".602" stop-color="#661ACE"/><stop offset="1" stop-color="#2665F9"/></linearGradient><linearGradient id="db" x1="28.918" y1="18.183" x2="34.613" y2="18.183" gradientUnits="userSpaceOnUse"><stop offset=".602" stop-color="#661ACE"/><stop offset="1" stop-color="#4E5BA8"/></linearGradient><linearGradient id="dc" x1="36.641" y1="12.064" x2="41.134" y2="12.064" gradientUnits="userSpaceOnUse"><stop stop-color="#661ACE"/><stop offset=".066" stop-color="#631DD0"/><stop offset="1" stop-color="#2665F9"/></linearGradient><linearGradient id="dd" y1="16.543" x2="53.596" y2="16.543" gradientUnits="userSpaceOnUse"><stop offset=".602" stop-color="#661ACE"/><stop offset="1" stop-color="#2665F9"/></linearGradient><linearGradient id="de" x1="16.665" y1="30.517" x2="24.774" y2="30.517" gradientUnits="userSpaceOnUse"><stop offset=".602" stop-color="#661ACE"/><stop offset="1" stop-color="#4E3F8F"/></linearGradient></defs></svg>