<svg xmlns="http://www.w3.org/2000/svg" viewBox="0 0 1821.3333 1024"><defs><linearGradient id="aa" gradientTransform="matrix(217.74586 0 0 -217.74586 114.784 382.25)" gradientUnits="userSpaceOnUse" x2="1"><stop offset="0" stop-color="#661ace"/><stop offset=".602" stop-color="#661ace"/><stop offset="1" stop-color="#2665f9"/></linearGradient><clipPath id="ab"><path d="M0 768h1366V0H0z"/></clipPath><clipPath id="ac"><path d="M111.555 478.723h227.757V288H111.555z"/></clipPath><linearGradient id="ad" gradientTransform="translate(111.555 384.638) scale(227.757)" gradientUnits="userSpaceOnUse" x2="1"><stop offset="0" stop-color="#661ace"/><stop offset=".602" stop-color="#661ace"/><stop offset="1" stop-color="#2665f9"/></linearGradient><linearGradient id="ae" gradientTransform="matrix(32.25483 0 0 -32.25483 217.134 390.438)" gradientUnits="userSpaceOnUse" x2="1"><stop offset="0" stop-color="#661ace"/><stop offset=".602" stop-color="#661ace"/><stop offset="1" stop-color="#4e5ba8"/></linearGradient><linearGradient id="af" gradientTransform="matrix(25.44743 0 0 -25.44743 260.873 425.623)" gradientUnits="userSpaceOnUse" x2="1"><stop offset="0" stop-color="#661ace"/><stop offset=".066" stop-color="#631dd0"/><stop offset="1" stop-color="#2665f9"/></linearGradient><clipPath id="ag"><path d="M0 768h1366V0H0z"/></clipPath><clipPath id="ah"><path d="M217.134 403.2h32.255v-25.523h-32.256z"/></clipPath><clipPath id="ai"><path d="M260.873 436.056h25.448V415.19h-25.447z"/></clipPath><linearGradient id="aj" gradientTransform="matrix(303.52814 0 0 -303.52814 53.366 399.868)" gradientUnits="userSpaceOnUse" x2="1"><stop offset="0" stop-color="#661ace"/><stop offset=".602" stop-color="#661ace"/><stop offset="1" stop-color="#2665f9"/></linearGradient><linearGradient id="ak" gradientTransform="matrix(45.9235 0 0 -45.9235 147.743 319.51)" gradientUnits="userSpaceOnUse" x2="1"><stop offset="0" stop-color="#661ace"/><stop offset=".602" stop-color="#661ace"/><stop offset="1" stop-color="#4e3f8f"/></linearGradient><clipPath id="al"><path d="M0 768h1366V0H0z"/></clipPath><clipPath id="am"><path d="M147.855 349.017h45.134v-58.02h-45.135z"/></clipPath><linearGradient id="an" gradientTransform="matrix(945.6377 0 0 -945.6377 367.974 389.338)" gradientUnits="userSpaceOnUse" x2="1"><stop offset="0" stop-color="#661ace"/><stop offset=".602" stop-color="#661ace"/><stop offset="1" stop-color="#2665f9"/></linearGradient><linearGradient id="ao" gradientTransform="matrix(945.6377 0 0 -945.6377 367.974 389.338)" gradientUnits="userSpaceOnUse" x2="1"><stop offset="0" stop-color="#661ace"/><stop offset=".602" stop-color="#661ace"/><stop offset="1" stop-color="#2665f9"/></linearGradient><linearGradient id="ap" gradientTransform="matrix(945.6377 0 0 -945.6377 367.974 389.338)" gradientUnits="userSpaceOnUse" x2="1"><stop offset="0" stop-color="#661ace"/><stop offset=".602" stop-color="#661ace"/><stop offset="1" stop-color="#2665f9"/></linearGradient><linearGradient id="aq" gradientTransform="matrix(945.6377 0 0 -945.6377 367.974 389.338)" gradientUnits="userSpaceOnUse" x2="1"><stop offset="0" stop-color="#661ace"/><stop offset=".602" stop-color="#661ace"/><stop offset="1" stop-color="#2665f9"/></linearGradient><linearGradient id="ar" gradientTransform="matrix(945.6377 0 0 -945.6377 367.974 389.338)" gradientUnits="userSpaceOnUse" x2="1"><stop offset="0" stop-color="#661ace"/><stop offset=".602" stop-color="#661ace"/><stop offset="1" stop-color="#2665f9"/></linearGradient><linearGradient id="as" gradientTransform="matrix(945.6377 0 0 -945.6377 367.974 389.338)" gradientUnits="userSpaceOnUse" x2="1"><stop offset="0" stop-color="#661ace"/><stop offset=".602" stop-color="#661ace"/><stop offset="1" stop-color="#2665f9"/></linearGradient><linearGradient id="at" gradientTransform="matrix(945.6377 0 0 -945.6377 367.974 389.338)" gradientUnits="userSpaceOnUse" x2="1"><stop offset="0" stop-color="#661ace"/><stop offset=".602" stop-color="#661ace"/><stop offset="1" stop-color="#2665f9"/></linearGradient><linearGradient id="au" gradientTransform="matrix(945.6377 0 0 -945.6377 367.974 389.338)" gradientUnits="userSpaceOnUse" x2="1"><stop offset="0" stop-color="#661ace"/><stop offset=".602" stop-color="#661ace"/><stop offset="1" stop-color="#2665f9"/></linearGradient><linearGradient id="av" gradientTransform="matrix(945.6377 0 0 -945.6377 367.974 389.338)" gradientUnits="userSpaceOnUse" x2="1"><stop offset="0" stop-color="#661ace"/><stop offset=".602" stop-color="#661ace"/><stop offset="1" stop-color="#2665f9"/></linearGradient><linearGradient id="aw" gradientTransform="matrix(945.6377 0 0 -945.6377 367.974 389.338)" gradientUnits="userSpaceOnUse" x2="1"><stop offset="0" stop-color="#661ace"/><stop offset=".602" stop-color="#661ace"/><stop offset="1" stop-color="#2665f9"/></linearGradient><linearGradient id="ax" gradientTransform="matrix(945.6377 0 0 -945.6377 367.974 389.338)" gradientUnits="userSpaceOnUse" x2="1"><stop offset="0" stop-color="#661ace"/><stop offset=".602" stop-color="#661ace"/><stop offset="1" stop-color="#2665f9"/></linearGradient><linearGradient id="ay" gradientTransform="matrix(945.6377 0 0 -945.6377 367.974 389.338)" gradientUnits="userSpaceOnUse" x2="1"><stop offset="0" stop-color="#661ace"/><stop offset=".602" stop-color="#661ace"/><stop offset="1" stop-color="#2665f9"/></linearGradient><linearGradient id="az" gradientTransform="matrix(175.30418 0 0 -175.30418 1149.91 280.748)" gradientUnits="userSpaceOnUse" x2="1"><stop offset="0" stop-color="#661ace"/><stop offset=".602" stop-color="#661ace"/><stop offset="1" stop-color="#2665f9"/></linearGradient><linearGradient id="aA" gradientTransform="matrix(175.30418 0 0 -175.30418 1149.91 280.748)" gradientUnits="userSpaceOnUse" x2="1"><stop offset="0" stop-color="#661ace"/><stop offset=".602" stop-color="#661ace"/><stop offset="1" stop-color="#2665f9"/></linearGradient><linearGradient id="aB" gradientTransform="matrix(175.30418 0 0 -175.30418 1149.91 280.748)" gradientUnits="userSpaceOnUse" x2="1"><stop offset="0" stop-color="#661ace"/><stop offset=".602" stop-color="#661ace"/><stop offset="1" stop-color="#2665f9"/></linearGradient><linearGradient id="aC" gradientTransform="matrix(175.30418 0 0 -175.30418 1149.91 280.748)" gradientUnits="userSpaceOnUse" x2="1"><stop offset="0" stop-color="#661ace"/><stop offset=".602" stop-color="#661ace"/><stop offset="1" stop-color="#2665f9"/></linearGradient></defs><g transform="matrix(1.33333 0 0 -1.33333 0 1024)"><path d="M205.13 434.565l19.948-7.382-77.334-27.316 22.96-9.146-55.92-11.915 2.657-5.64c-1.777 1.435-2.92 2.23-2.604 1.205l29.643-81.712c.92-2.982 3.753-3.54 6.295-1.238l44.816 40.432c2.542 2.3-3.237 1.563-6.512 3.165l-16.28 8.75c-3.276 1.6-10.5 3.298-7.185 4.844l85.298 39.75-.688-.006 1.188.554 4.2 1.958-4.7 1.51-3.043.978-24.52 7.88 4.447 1.965 54.315 23.983 4.25 1.877-4.83 1.342-1.973.55-18.646 5.182 54.283 23.96 6.24 2.754L332.53 474.5z" fill="url(#aa)"/><g clip-path="url(#ab)"><g clip-path="url(#ac)" opacity=".96"><path d="M205.13 434.565l12.274-7.577-69.66-27.12 17.084-9.54-50.045-11.523 5.798 14.957c-1.777 1.434-6.06-18.367-5.744-19.392l29.642-81.712c.92-2.983 3.755-3.54 6.297-1.24l44.815 40.433c2.542 2.302-3.237 1.565-6.512 3.166l-16.28 8.75c-3.276 1.6-10.5 3.3-7.185 4.845l85.297 39.75-.69-.006 1.19.554 4.2 1.957-4.7 1.51 1.223 3.742-15.917 5.306-8.422 1.776 54.315 23.983 4.25 1.877-4.83 1.34-1.973.55-6.2 7.615 41.836 21.528 6.24 2.754 11.096 11.653z" fill="#fff"/><path d="M0 0l12.274-7.577-69.66-27.12 17.084-9.54-50.045-11.523 5.798 14.957c-1.777 1.434-6.06-18.367-5.744-19.392l29.642-81.712c.92-2.983 3.755-3.54 6.297-1.24l44.815 40.433c2.542 2.3-3.237 1.564-6.512 3.165l-16.28 8.75c-3.276 1.602-10.5 3.3-7.185 4.846l85.297 39.75-.69-.007 1.19.553 4.2 1.957-4.7 1.51 1.223 3.742-15.917 5.306-8.422 1.776L76.98-7.382l4.25 1.877-4.83 1.34-1.973.55L68.227 4l41.836 21.528 6.24 2.754 11.096 11.653z" fill="none" stroke="url(#ad)" stroke-width="4" stroke-miterlimit="10" transform="translate(205.13 434.565)"/></g></g><path d="M217.134 377.678l32.255 15.194-32.256 10.327z" fill="url(#ae)"/><path d="M260.873 415.192l25.448 13.79-25.447 7.073z" fill="url(#af)"/><g clip-path="url(#ag)"><g clip-path="url(#ah)" opacity=".45"><path d="M217.134 403.2v-25.522l32.255 15.194z"/></g><g><g clip-path="url(#ai)" opacity=".45"><path d="M260.873 436.056v-20.864l25.448 13.79z"/></g></g></g><path d="M352.652 494.617L56.226 402.783c-3.58-1.11-3.833-3.332-.565-4.943l61.732-30.744 59.57 25.28-23.41 7.784L229 428.4l-19.268 5.365 114.92 34.055-63.74-31.686 18.647-5.183-62.318-27.75 30.627-9.846-93.144-44.337c3.276-1.6 41.764-20.25 45.04-21.852l44.314-21.66c3.276-1.602 7.244-.62 8.82 2.182l103.4 183.853c1.205 2.145.526 3.46-1.466 3.46-.608 0-1.34-.123-2.178-.383" fill="url(#aj)"/><path d="M148.21 294.188l-.466-4.187s1.487-.096 3.395 1.748l1.656 1.495 40.87 36.832-33.295 16.3-5.647 2.642z" fill="url(#ak)"/><g clip-path="url(#al)"><g clip-path="url(#am)" opacity=".45"><path d="M154.724 349.018l-6.512-54.83-.357-3.19s1.56.053 3.468 1.897l2.532 2.275 39.135 35.238-32.62 15.968"/></g></g><text style="" transform="matrix(1 0 0 -1 366.366 331.4)" font-weight="400" font-size="146.161" font-family="abeatbyKai" fill="#fff"><tspan y="0" x="0 102.75111 129.64471 174.66228 274.49017 370.37173">direct</tspan></text><text style="" transform="matrix(1 0 0 -1 827.844 331.4)" font-weight="400" font-size="146.161" font-family="abeatbyKai" fill="#fff"><tspan y="0" x="0 87.696541 187.52443 232.54199 333.10068 432.92859">heroes</tspan></text><path d="M442.663 446.284v-41.948c-8.184 9.353-18.416 14.323-30.693 14.762-11.986.438-22.364-3.8-30.987-12.57-8.624-8.624-13.01-19.147-13.01-31.28 0-11.692 3.948-21.778 11.986-30.256 8.038-8.477 17.978-12.862 29.525-13.154 11.985-.438 22.363 3.8 31.278 12.424 8.917 8.77 13.156 19.147 12.863 31.133v70.89zM409.63 342.8c-8.623.293-15.785 3.654-21.778 10.23-5.993 6.58-8.915 14.326-8.77 23.096.146 8.916 3.215 16.37 9.5 22.655 6.286 6.286 13.886 9.5 22.657 9.356 8.623 0 15.785-3.07 21.777-9.355 5.993-6.284 9.208-13.738 9.355-22.51.29-9.207-2.778-17.1-9.355-23.97-6.03-6.44-13.216-9.54-21.68-9.54-.563 0-1.132.013-1.707.04" fill="url(#an)"/><path d="M469.116 427.43h10.963v19.44h-10.964zm0-93.254h10.963v83.313h-10.964z" fill="url(#ao)"/><path d="M515.888 416.03c-4.53-2.486-8.04-5.85-10.378-10.38v11.84h-10.378v-83.314h11.693v49.842c0 5.408.877 9.647 2.778 12.863 1.17 1.9 3.36 4.24 6.577 6.87 3.215 2.632 7.454 4.093 12.57 4.24v11.108c-.275.01-.55.013-.823.013-4.093 0-8.067-1.027-12.04-3.08" fill="url(#ap)"/><path d="M554.18 407.258c-9.062-8.915-13.447-19.732-13.155-32.155.147-11.84 4.677-21.925 13.448-30.55 8.77-8.477 18.855-12.568 30.255-12.423 9.062.146 17.248 2.777 24.702 8.038 7.454 5.264 12.717 12.425 15.786 21.34h-11.84c-5.7-11.985-15.054-18.123-28.21-18.27-8.477-.145-15.785 2.632-22.07 8.04-6.285 5.407-9.793 12.423-10.67 20.755h74.836v5.992c0 10.378-3.946 19.733-11.84 28.064-8.184 8.477-17.83 13.008-28.94 13.738-.915.054-1.82.08-2.715.08-11.27 0-21.057-4.255-29.587-12.65m9.5-5.846c5.993 4.824 13.01 7.31 21.048 7.162 8.04-.146 14.91-2.63 20.61-7.455 5.7-4.824 9.354-11.11 10.962-18.856h-63.874c1.61 7.893 5.262 14.325 11.255 19.148" fill="url(#aq)"/><path d="M685.432 419.828c-12.278-.145-22.802-4.677-31.718-13.3-8.77-8.624-13.008-18.856-12.862-30.987.146-11.984 4.532-22.216 13.3-30.548 8.77-8.33 19.148-12.57 31.28-12.716 18.27-.146 31.863 7.748 40.633 23.97l1.17 2.487h-12.57c-6.432-10.232-16.078-15.495-29.087-15.64-9.062-.147-16.955 3.07-23.532 9.5-6.578 6.578-9.94 14.324-9.94 23.386s3.51 16.955 10.67 23.532c6.87 6.43 14.47 9.5 23.094 9.354 12.863-.292 22.363-5.847 28.648-16.516h12.57l-1.607 3.654c-3.07 6.87-8.33 12.424-15.493 16.955-7.377 4.54-15.304 6.875-23.784 6.875-.256 0-.514-.002-.77-.007" fill="url(#ar)"/><path d="M736.734 446.722v-88.428c0-17.248 10.084-25.87 30.402-25.87v9.207c-12.717 0-19.148 6.14-19.148 18.563v47.065h19.148v10.378h-19.148v29.086z" fill="url(#as)"/><path d="M827.698 446.87V334.175h11.546v49.404c0 7.162 2.34 13.01 7.162 17.54 4.825 4.677 10.817 7.016 17.832 7.16 6.87.148 13.01-2.337 18.126-7.453 5.114-5.116 7.745-11.108 7.745-18.124v-48.527h11.108v47.357c0 10.67-3.8 19.733-11.254 27.04-7.456 7.31-16.225 10.67-26.603 10.233-9.937-.44-18.122-4.824-24.408-13.155v41.22z" fill="url(#at)"/><path d="M928.695 407.258c-9.062-8.915-13.447-19.732-13.155-32.155.146-11.84 4.677-21.925 13.447-30.55 8.77-8.477 18.855-12.568 30.256-12.423 9.062.146 17.247 2.777 24.7 8.038 7.456 5.264 12.718 12.425 15.788 21.34h-11.84c-5.7-11.985-15.054-18.123-28.208-18.27-8.478-.145-15.786 2.632-22.072 8.04-6.284 5.407-9.793 12.423-10.67 20.755h74.836v5.992c0 10.378-3.946 19.733-11.838 28.064-8.187 8.477-17.833 13.008-28.94 13.738-.917.054-1.82.08-2.717.08-11.27 0-21.055-4.255-29.585-12.65m9.5-5.846c5.993 4.824 13.01 7.31 21.048 7.162 8.04-.146 14.908-2.63 20.61-7.455 5.7-4.824 9.354-11.11 10.962-18.856H926.94c1.61 7.893 5.263 14.325 11.255 19.148" fill="url(#au)"/><path d="M1035.244 416.03c-4.53-2.486-8.04-5.85-10.377-10.38v11.84h-10.378v-83.314h11.693v49.842c0 5.408.876 9.647 2.776 12.863 1.17 1.9 3.362 4.24 6.577 6.87 3.215 2.632 7.454 4.093 12.57 4.24v11.108c-.275.01-.55.013-.823.013-4.093 0-8.066-1.027-12.04-3.08" fill="url(#av)"/><path d="M1073.39 406.966c-8.623-8.623-13.008-19.147-13.008-31.278 0-11.694 3.946-21.78 11.985-30.256 8.04-8.478 17.978-12.864 29.525-13.156 11.986-.438 22.364 3.8 30.987 12.424 8.77 8.77 13.154 19.148 13.154 31.133 0 11.693-4.092 21.78-12.132 30.256-8.04 8.623-17.98 13.008-29.526 13.446-.562.02-1.12.03-1.675.03-11.278 0-21.09-4.242-29.31-12.6m28.648-63.728c-8.623.293-15.785 3.654-21.778 10.232-5.992 6.578-8.77 14.324-8.624 23.094.146 8.916 3.217 16.37 9.5 22.655 6.285 6.284 13.74 9.5 22.657 9.354 8.477 0 15.64-3.07 21.632-9.355 5.993-6.285 9.208-13.74 9.5-22.51.146-9.21-2.923-17.1-9.5-23.97-6.03-6.442-13.217-9.543-21.682-9.543-.562 0-1.13.014-1.705.04" fill="url(#aw)"/><path d="M1174.095 407.258c-9.062-8.915-13.447-19.732-13.154-32.155.147-11.84 4.677-21.925 13.447-30.55 8.77-8.477 18.855-12.568 30.257-12.423 9.062.146 17.246 2.777 24.7 8.038 7.456 5.264 12.717 12.425 15.787 21.34h-11.838c-5.7-11.985-15.056-18.123-28.21-18.27-8.477-.145-15.786 2.632-22.072 8.04-6.283 5.407-9.793 12.423-10.67 20.755h74.837v5.992c0 10.378-3.947 19.733-11.84 28.064-8.184 8.477-17.83 13.008-28.94 13.738-.915.054-1.818.08-2.715.08-11.27 0-21.057-4.255-29.587-12.65m9.5-5.846c5.994 4.824 13.01 7.31 21.05 7.162 8.037-.146 14.906-2.63 20.608-7.455 5.7-4.824 9.354-11.11 10.962-18.856h-63.874c1.61 7.893 5.263 14.325 11.255 19.148" fill="url(#ax)"/><path d="M1287.076 419.536c-6.577-.292-12.132-2.777-16.81-7.308-4.53-4.532-6.722-10.086-6.43-16.517.438-10.668 5.846-17.685 16.078-20.9l9.793-3.07c8.186-2.63 12.277-7.454 12.132-14.616-.147-4.093-1.317-7.454-3.802-9.938-2.776-2.778-6.43-4.093-11.108-4.24-3.508-.146-6.87 1.316-9.94 4.385-3.07 3.07-4.676 5.994-4.676 8.77v2.778h-11.547c0-7.163 2.338-13.3 7.015-18.416 4.823-5.117 10.67-8.04 17.687-8.477 7.6-.44 14.322 2.045 20.17 7.454 5.845 5.552 8.476 12.13 7.892 19.584-.732 10.962-6.723 18.417-17.832 22.217l-9.648 3.217c-7.453 2.484-11.108 6.723-10.67 12.717.147 6.43 5.41 11.254 11.694 11.4 6.432 0 12.277-3.947 12.277-9.793v-1.9h11.694l-.147 2.486c-.438 5.846-3.07 10.67-8.038 14.616-4.5 3.683-9.384 5.583-14.648 5.583-.377 0-.757-.01-1.138-.03" fill="url(#ay)"/><path d="M1162.184 305.948c-.528 0-1.02-.192-1.475-.576-.458-.385-.733-.84-.83-1.368l-9.936-46.512c-.097-.53.012-.984.324-1.368.312-.384.732-.576 1.26-.576h22.896c2.88 0 5.4.432 7.56 1.296 2.16.864 3.996 1.98 5.508 3.348a16.625 16.625 0 0 1 3.637 4.68 20.96 20.96 0 0 1 1.942 5.365c.288 1.44.384 2.735.288 3.887-.097 1.152-.324 2.197-.684 3.132-.36.936-.816 1.752-1.368 2.448a12.967 12.967 0 0 1-1.763 1.836c.384.192.9.55 1.547 1.08.648.527 1.332 1.188 2.052 1.98s1.392 1.75 2.016 2.88c.624 1.127 1.08 2.412 1.368 3.852.288 1.44.312 3.012.072 4.716-.24 1.703-.888 3.287-1.944 4.752-1.055 1.464-2.544 2.687-4.464 3.672-1.92.984-4.417 1.476-7.487 1.476zm5.904-9h12.745c2.495 0 4.212-.468 5.147-1.404.937-.936 1.213-2.317.828-4.14-.72-3.697-3.503-5.544-8.35-5.544h-12.745zm-4.32-20.088h13.32c2.544 0 4.332-.576 5.364-1.728 1.033-1.152 1.357-2.64.972-4.464-.384-1.825-1.308-3.3-2.772-4.428-1.465-1.13-3.516-1.692-6.155-1.692h-13.32z" fill="url(#az)"/><path d="M1211.648 305.948c-.528 0-1.02-.192-1.476-.576-.456-.385-.73-.84-.828-1.368l-9.936-46.512c-.097-.53.012-.984.324-1.368.312-.384.732-.576 1.26-.576h31.608c.528 0 1.02.192 1.476.576.456.384.73.84.828 1.368l1.08 5.112c.145.528.06.983-.252 1.368-.312.383-.732.576-1.26.576h-23.832l2.52 11.952h21.672c.53 0 1.032.19 1.512.576.48.384.767.84.864 1.37l1.08 5.11c.096.527 0 .983-.288 1.368-.287.383-.696.576-1.224.576h-21.672l2.448 11.448h23.256c.528 0 1.02.19 1.476.576.456.383.73.84.828 1.368l1.152 5.112c.097.527-.012.983-.324 1.368-.312.384-.732.576-1.26.576z" fill="url(#aA)"/><path d="M1251.896 305.948c-.53 0-1.02-.192-1.477-.576-.457-.385-.733-.84-.83-1.368l-1.15-5.112c-.098-.53.01-.985.323-1.368.312-.385.73-.576 1.26-.576h12.96l-8.424-39.456c-.097-.53.01-.984.323-1.368.312-.384.73-.576 1.26-.576h5.832c.528 0 1.02.192 1.476.576.457.384.732.84.83 1.368l8.423 39.456h12.96c.53 0 1.02.19 1.477.576.455.383.73.84.828 1.368l1.152 5.112c.095.527-.012.983-.325 1.368-.313.384-.732.576-1.26.576z" fill="url(#aB)"/><path d="M1306.83 305.948c-.766 0-1.38-.205-1.835-.612-.456-.408-.925-1.02-1.404-1.836l-27.287-45.504c-.335-.53-.36-1.07-.072-1.62.29-.553.77-.828 1.442-.828h5.76c.96 0 1.666.204 2.123.612.456.408.803.803 1.044 1.188l4.75 7.992h22.754l1.44-7.992c.095-.385.287-.78.576-1.188.287-.408.91-.612 1.87-.612h4.825c.672 0 1.26.24 1.764.72.503.48.707 1.055.612 1.728L1317.2 303.5c-.145.815-.36 1.428-.648 1.836-.29.407-.818.612-1.584.612zm2.233-11.088l3.528-20.52h-15.84z" fill="url(#aC)"/></g></svg>