<svg width="15" height="16" viewBox="0 0 15 16" fill="none" xmlns="http://www.w3.org/2000/svg">
<path d="M6.94531 1.60547C7.39062 1.16016 7.92969 0.9375 8.5625 0.9375C9.19531 0.9375 9.72266 1.16016 10.1445 1.60547C10.5898 2.02734 10.8125 2.55469 10.8125 3.1875H13.625H14.1875V3.75V6.5625V7.125H13.625H13.0625C12.7344 7.125 12.4648 7.23047 12.2539 7.44141C12.043 7.65234 11.9375 7.92188 11.9375 8.25C11.9375 8.57812 12.043 8.84766 12.2539 9.05859C12.4648 9.26953 12.7344 9.375 13.0625 9.375H13.625H14.1875V9.9375V12.75V13.3125H13.625H10.8125C10.8125 13.9453 10.5898 14.4844 10.1445 14.9297C9.72266 15.3516 9.19531 15.5625 8.5625 15.5625C7.92969 15.5625 7.39062 15.3516 6.94531 14.9297C6.52344 14.4844 6.3125 13.9453 6.3125 13.3125H3.5H2.9375V12.75V10.5C2.30469 10.5 1.76562 10.2891 1.32031 9.86719C0.898438 9.42188 0.6875 8.88281 0.6875 8.25C0.6875 7.61719 0.898438 7.08984 1.32031 6.66797C1.76562 6.22266 2.30469 6 2.9375 6V3.75V3.1875H3.5H6.3125C6.3125 2.55469 6.52344 2.02734 6.94531 1.60547ZM9.37109 2.37891C9.16016 2.16797 8.89062 2.0625 8.5625 2.0625C8.23438 2.0625 7.96484 2.16797 7.75391 2.37891C7.54297 2.58984 7.4375 2.85938 7.4375 3.1875V3.75V4.3125H6.875H4.0625V6.5625V7.125H3.5H2.9375C2.60938 7.125 2.33984 7.23047 2.12891 7.44141C1.91797 7.65234 1.8125 7.92188 1.8125 8.25C1.8125 8.57812 1.91797 8.84766 2.12891 9.05859C2.33984 9.26953 2.60938 9.375 2.9375 9.375H3.5H4.0625V9.9375V12.1875H6.875H7.4375V12.75V13.3125C7.4375 13.6406 7.54297 13.9102 7.75391 14.1211C7.96484 14.332 8.23438 14.4375 8.5625 14.4375C8.89062 14.4375 9.16016 14.332 9.37109 14.1211C9.58203 13.9102 9.6875 13.6406 9.6875 13.3125V12.75V12.1875H10.25H13.0625V10.5C12.4297 10.5 11.8906 10.2891 11.4453 9.86719C11.0234 9.42188 10.8125 8.88281 10.8125 8.25C10.8125 7.61719 11.0234 7.08984 11.4453 6.66797C11.8906 6.22266 12.4297 6 13.0625 6V4.3125H10.25H9.6875V3.75V3.1875C9.6875 2.85938 9.58203 2.58984 9.37109 2.37891Z" fill="currentColor"/>
</svg>
