<svg viewBox="0 0 23 28" fill="none" xmlns="http://www.w3.org/2000/svg">
<path fill-rule="evenodd" clip-rule="evenodd" d="M10.0375 6.56702H17.6139C21.6817 6.56702 23.213 8.62637 22.9764 11.6518C22.5853 16.6467 19.5657 19.4101 15.5604 19.4101H13.5382C12.9886 19.4101 12.619 19.7738 12.4704 20.7595L11.6118 26.4897C11.5551 26.8613 11.3596 27.0764 11.0662 27.1058H6.30603C5.85817 27.1058 5.69976 26.7635 5.8171 26.0223L8.71936 7.65243C8.83279 6.91709 9.23566 6.56702 10.0375 6.56702Z" fill="#009EE3"/>
<path fill-rule="evenodd" clip-rule="evenodd" d="M5.29889 0.244263H12.8831C15.0187 0.244263 17.5533 0.312712 19.2469 1.80882C20.3793 2.80818 20.9738 4.39816 20.8369 6.11136C20.3714 11.9022 16.9079 15.1467 12.2612 15.1467H8.52188C7.88432 15.1467 7.46384 15.5691 7.28392 16.7112L6.23958 23.3606C6.17113 23.7909 5.98534 24.0451 5.65287 24.0764H0.972886C0.454626 24.0764 0.270789 23.6853 0.405732 22.8208L3.76953 1.50764C3.90447 0.651046 4.3758 0.244263 5.29889 0.244263Z" fill="#113984"/>
<path fill-rule="evenodd" clip-rule="evenodd" d="M7.39343 16.0365L8.71744 7.65244C8.83283 6.91709 9.2357 6.56506 10.0375 6.56506H17.6139C18.8675 6.56506 19.8825 6.76063 20.6765 7.12244C19.9158 12.2777 16.5813 15.1408 12.2162 15.1408H8.48276C7.9821 15.1428 7.61443 15.3931 7.39343 16.0365Z" fill="#172C70"/>
</svg>
