<svg viewBox="0 0 53 53" fill="none" xmlns="http://www.w3.org/2000/svg">
<path d="M34.9623 25.4677C37.0244 25.4677 38.6961 23.796 38.6961 21.7339C38.6961 19.6718 37.0244 18.0001 34.9623 18.0001C32.9002 18.0001 31.2285 19.6718 31.2285 21.7339C31.2285 23.796 32.9002 25.4677 34.9623 25.4677Z" stroke="#8233DB" stroke-width="3"/>
<path d="M43.1761 34.6817C41.6826 31.6947 39.4985 29.4545 34.9619 29.4545C32.1036 29.4545 30.1792 30.3437 28.7729 31.7487" stroke="#8233DB" stroke-width="3" stroke-linecap="round"/>
<path d="M21.0475 24.9524C24.0719 24.9524 26.5237 22.5006 26.5237 19.4762C26.5237 16.4518 24.0719 14 21.0475 14C18.0231 14 15.5713 16.4518 15.5713 19.4762C15.5713 22.5006 18.0231 24.9524 21.0475 24.9524Z" stroke="#9E4CF9" stroke-width="3"/>
<path d="M33.0957 38C30.9053 33.6191 27.7018 30.3334 21.0481 30.3334C14.3944 30.3334 11.191 33.6191 9.00049 38" stroke="#9E4CF9" stroke-width="3" stroke-linecap="round"/>
</svg>
