<svg overflow="hidden" viewBox="0, 0, 24, 24" xml="http://www.w3.org/XML/1998/namespace"  xmlns="http://www.w3.org/2000/svg" xmlns:xlink="http://www.w3.org/1999/xlink" xmlns:xml="http://www.w3.org/XML/1998/namespace" version="1.1">
  <path d="M18 6 C16.5 4.5 14.3 3.5 12 3.5 C7.3 3.5 3.5 7.3 3.5 12 C3.5 16.7 7.3 20.5 12 20.5 C16 20.5 19.3 17.8 20.2 14.1 L18 14.1 C17.1 16.6 14.8 18.3 12 18.3 C8.5 18.3 5.6 15.4 5.6 11.9 C5.6 8.4 8.5 5.6 12 5.6 C13.8 5.6 15.3 6.3 16.5 7.5 L13.1 10.9 L20.5 10.9 L20.5 3.5 L18 6 z" xml:space="default" class="general" style="fill:currentColor;" />
</svg>