<svg width="13" height="17" viewBox="0 0 13 17" fill="none" xmlns="http://www.w3.org/2000/svg">
<path d="M3.66016 2.09766C4.43359 1.32422 5.35938 0.9375 6.4375 0.9375C7.51562 0.9375 8.44141 1.32422 9.21484 2.09766C9.98828 2.87109 10.375 3.79687 10.375 4.875V6.49219C11.5 7.59375 12.0625 8.92969 12.0625 10.5C12.0625 12.0469 11.5117 13.3711 10.4102 14.4727C9.30859 15.5742 7.98438 16.125 6.4375 16.125C4.89062 16.125 3.56641 15.5742 2.46484 14.4727C1.36328 13.3711 0.8125 12.0469 0.8125 10.5C0.8125 8.92969 1.375 7.59375 2.5 6.49219V4.875C2.5 3.79687 2.88672 2.87109 3.66016 2.09766ZM8.40625 2.90625C7.86719 2.34375 7.21094 2.0625 6.4375 2.0625C5.66406 2.0625 4.99609 2.34375 4.43359 2.90625C3.89453 3.44531 3.625 4.10156 3.625 4.875V5.64844C4.51562 5.13281 5.45312 4.875 6.4375 4.875C7.42188 4.875 8.35938 5.13281 9.25 5.64844V4.875C9.25 4.10156 8.96875 3.44531 8.40625 2.90625ZM9.60156 7.33594C8.73438 6.44531 7.67969 6 6.4375 6C5.19531 6 4.12891 6.44531 3.23828 7.33594C2.37109 8.20312 1.9375 9.25781 1.9375 10.5C1.9375 11.7422 2.37109 12.8086 3.23828 13.6992C4.12891 14.5664 5.19531 15 6.4375 15C7.67969 15 8.73438 14.5664 9.60156 13.6992C10.4922 12.8086 10.9375 11.7422 10.9375 10.5C10.9375 9.25781 10.4922 8.20312 9.60156 7.33594ZM5.62891 9.72656C5.86328 9.49219 6.13281 9.375 6.4375 9.375C6.74219 9.375 7 9.49219 7.21094 9.72656C7.44531 9.9375 7.5625 10.1953 7.5625 10.5C7.5625 10.9219 7.375 11.25 7 11.4844V13.3125H5.875V11.4844C5.5 11.25 5.3125 10.9219 5.3125 10.5C5.3125 10.1953 5.41797 9.9375 5.62891 9.72656Z" fill="currentColor"/>
</svg>
