<svg viewBox="0 0 22 22" fill="none" xmlns="http://www.w3.org/2000/svg">
<path d="M11 0.59375L11.6562 2.14062L14.0938 7.625L20.0938 8.23438L21.7812 8.42188L20.4688 9.54688L16.0625 13.5312L17.2812 19.4375L17.6562 21.0312L16.1562 20.1875L11 17.1875L5.84375 20.1875L4.34375 21.0312L4.71875 19.4375L5.9375 13.5312L1.53125 9.54688L0.21875 8.42188L1.90625 8.23438L7.90625 7.625L10.3438 2.14062L11 0.59375ZM11 4.25L9.07812 8.60938L8.89062 9.03125H8.46875L3.78125 9.54688L7.25 12.6875L7.625 13.0156L7.53125 13.4375L6.5 18.0312L10.625 15.6875L11 15.5L11.375 15.6875L15.5 18.0312L14.4688 13.4375L14.375 13.0156L14.75 12.6875L18.2188 9.54688L13.5312 9.03125H13.1094L12.9219 8.60938L11 4.25Z" fill="currentColor"/>
</svg>
