<svg viewBox="0 0 24 24" xmlns="http://www.w3.org/2000/svg"><path d="M19.144 9.417l-4.317-.628L12.9 4.877a1.04 1.04 0 0 0-1.8 0L9.173 8.79l-4.317.627a1 1 0 0 0-.556 1.706l3.123 3.045-.737 4.3a1 1 0 0 0 1.45 1.054L12 17.492l3.86 2.028a1 1 0 0 0 1.452-1.054l-.737-4.3 3.125-3.043a1 1 0 0 0-.554-1.705h-.002z" fill="#444"/><mask id="da" maskUnits="userSpaceOnUse" x="3" y="4" width="18" height="16"><path d="M19.144 9.417l-4.317-.628L12.9 4.877a1.04 1.04 0 0 0-1.8 0L9.173 8.79l-4.317.627a1 1 0 0 0-.556 1.706l3.123 3.045-.737 4.3a1 1 0 0 0 1.45 1.054L12 17.492l3.86 2.028a1 1 0 0 0 1.452-1.054l-.737-4.3 3.125-3.043a1 1 0 0 0-.554-1.705h-.002z" fill="#fff"/></mask><path fill="#fff" d="M0 0h24v24H0z" mask="url(#da)"/></svg>