<svg viewBox="0 0 16 16" fill="none" xmlns="http://www.w3.org/2000/svg">
<path d="M8 0.9375C6.67578 0.9375 5.44531 1.27148 4.30859 1.93945C3.20703 2.58398 2.33398 3.45703 1.68945 4.55859C1.02148 5.69531 0.6875 6.92578 0.6875 8.25C0.6875 9.57422 1.02148 10.8047 1.68945 11.9414C2.33398 13.043 3.20703 13.916 4.30859 14.5605C5.44531 15.2285 6.67578 15.5625 8 15.5625C9.32422 15.5625 10.5547 15.2285 11.6914 14.5605C12.793 13.916 13.666 13.043 14.3105 11.9414C14.9785 10.8047 15.3125 9.57422 15.3125 8.25C15.3125 7.38281 15.1836 6.61523 14.9258 5.94727L14.0117 6.84375C14.1289 7.3125 14.1875 7.78125 14.1875 8.25C14.1875 9.375 13.9062 10.418 13.3438 11.3789C12.8047 12.3164 12.0664 13.0547 11.1289 13.5938C10.168 14.1562 9.125 14.4375 8 14.4375C6.875 14.4375 5.83203 14.1562 4.87109 13.5938C3.93359 13.0547 3.19531 12.3164 2.65625 11.3789C2.09375 10.418 1.8125 9.375 1.8125 8.25C1.8125 7.125 2.09375 6.08203 2.65625 5.12109C3.19531 4.18359 3.93359 3.44531 4.87109 2.90625C5.83203 2.34375 6.875 2.0625 8 2.0625C8.83203 2.0625 9.62305 2.2207 10.373 2.53711C11.0879 2.83008 11.7207 3.25195 12.2715 3.80273L13.0625 3.01172C12.4062 2.35547 11.6387 1.8457 10.7598 1.48242C9.89258 1.11914 8.97266 0.9375 8 0.9375ZM14.3457 3.3457L8 9.69141L5.5918 7.2832L4.7832 8.0918L7.5957 10.9043L8 11.291L8.4043 10.9043L15.1543 4.1543L14.3457 3.3457Z" fill="currentColor"/>
</svg>
