<svg width="14" height="14" viewBox="0 0 14 14" fill="none" xmlns="http://www.w3.org/2000/svg">
<path d="M10.8672 0.992188C11.1953 0.664063 11.5938 0.5 12.0625 0.5C12.5312 0.5 12.918 0.664063 13.2227 0.992188C13.5508 1.32031 13.7148 1.71875 13.7148 2.1875C13.7148 2.65625 13.5625 3.05469 13.2578 3.38281L7.70312 8.9375L7.5625 9.07812H7.38672L5.41797 9.5L4.60938 9.64062L4.75 8.83203L5.17188 6.86328V6.6875L5.3125 6.54688L10.8672 0.992188ZM12.4492 1.80078C12.332 1.68359 12.2031 1.625 12.0625 1.625C11.9219 1.625 11.793 1.68359 11.6758 1.80078L6.22656 7.25L6.01562 8.23438L7 8.02344L12.4492 2.57422C12.707 2.31641 12.707 2.05859 12.4492 1.80078ZM0.25 2.75H7.66797L6.54297 3.875H1.375V12.875H10.375V7.70703L11.5 6.58203V14H0.25V2.75Z" fill="currentColor"/>
</svg>
