<svg width="18" height="15" viewBox="0 0 18 15" fill="none" xmlns="http://www.w3.org/2000/svg">
<path d="M2.72656 1.34766C4.875 1.03255 6.96615 0.875 9 0.875C11.0339 0.875 13.125 1.03255 15.2734 1.34766C15.8464 1.43359 16.3477 1.67708 16.7773 2.07812C17.207 2.47917 17.4792 2.96615 17.5938 3.53906C17.8229 4.85677 17.9375 6.26042 17.9375 7.75C17.9375 9.23958 17.8229 10.6432 17.5938 11.9609C17.4792 12.5339 17.207 13.0208 16.7773 13.4219C16.3477 13.8229 15.8464 14.0664 15.2734 14.1523C13.0964 14.4674 11.0052 14.625 9 14.625C6.99479 14.625 4.90365 14.4674 2.72656 14.1523C2.15365 14.0664 1.65234 13.8229 1.22266 13.4219C0.792969 13.0208 0.520833 12.5339 0.40625 11.9609C0.177083 10.6432 0.0625 9.23958 0.0625 7.75C0.0625 6.26042 0.177083 4.85677 0.40625 3.53906C0.520833 2.96615 0.792969 2.47917 1.22266 2.07812C1.65234 1.67708 2.15365 1.43359 2.72656 1.34766ZM15.1016 2.67969C13.0104 2.39323 10.9766 2.25 9 2.25C7.02344 2.25 4.98958 2.39323 2.89844 2.67969C2.26823 2.79427 1.89583 3.16667 1.78125 3.79688C1.55208 5.02865 1.4375 6.34635 1.4375 7.75C1.4375 9.15365 1.55208 10.4714 1.78125 11.7031C1.89583 12.3333 2.26823 12.7057 2.89844 12.8203C4.98958 13.1068 7.02344 13.25 9 13.25C10.9766 13.25 13.0104 13.1068 15.1016 12.8203C15.7318 12.7057 16.1042 12.3333 16.2188 11.7031C16.4479 10.4714 16.5625 9.15365 16.5625 7.75C16.5625 6.34635 16.4479 5.02865 16.2188 3.79688C16.1042 3.16667 15.7318 2.79427 15.1016 2.67969ZM6.9375 3.79688L7.96875 4.39844L12.7812 7.14844L13.8125 7.75L12.7812 8.35156L7.96875 11.1016L6.9375 11.7031V10.5V5V3.79688ZM8.3125 6.20312V9.29688L11.0625 7.75L8.3125 6.20312Z" fill="currentColor"/>
</svg>
