<svg viewBox="0 0 20 20" fill="none" xmlns="http://www.w3.org/2000/svg">
<path d="M10 0.25C8.23438 0.25 6.59375 0.695312 5.07812 1.58594C3.60938 2.44531 2.44531 3.60938 1.58594 5.07812C0.695312 6.59375 0.25 8.23438 0.25 10C0.25 11.7656 0.695312 13.4062 1.58594 14.9219C2.44531 16.3906 3.60938 17.5547 5.07812 18.4141C6.59375 19.3047 8.23438 19.75 10 19.75C11.7656 19.75 13.4062 19.3047 14.9219 18.4141C16.3906 17.5547 17.5547 16.3906 18.4141 14.9219C19.3047 13.4062 19.75 11.7656 19.75 10C19.75 8.23438 19.3047 6.59375 18.4141 5.07812C17.5547 3.60938 16.3906 2.44531 14.9219 1.58594C13.4062 0.695312 11.7656 0.25 10 0.25ZM10 1.75C11.5 1.75 12.8906 2.125 14.1719 2.875C15.4062 3.60938 16.3906 4.59375 17.125 5.82812C17.875 7.10938 18.25 8.5 18.25 10C18.25 11.5 17.875 12.8906 17.125 14.1719C16.3906 15.4062 15.4062 16.3906 14.1719 17.125C12.8906 17.875 11.5 18.25 10 18.25C8.5 18.25 7.10938 17.875 5.82812 17.125C4.59375 16.3906 3.60938 15.4062 2.875 14.1719C2.125 12.8906 1.75 11.5 1.75 10C1.75 8.5 2.125 7.10938 2.875 5.82812C3.60938 4.59375 4.59375 3.60938 5.82812 2.875C7.10938 2.125 8.5 1.75 10 1.75ZM9.25 5.5V7H10.75V5.5H9.25ZM9.25 8.5V14.5H10.75V8.5H9.25Z" fill="currentColor"/>
</svg>
